<?xml version="1.0" encoding="utf-8"?>
<!-- Generator: Adobe Illustrator 23.0.3, SVG Export Plug-In . SVG Version: 6.00 Build 0)  -->
<svg version="1.1" id="Layer_1" xmlns="http://www.w3.org/2000/svg" xmlns:xlink="http://www.w3.org/1999/xlink" x="0px" y="0px"
	 viewBox="0 0 612 792" style="enable-background:new 0 0 612 792;" xml:space="preserve">
<style type="text/css">
	.st0{fill:#809A3C;}
	.st1{fill:#8CB23E;}
</style>
<g>
	<path class="st0" d="M50.35,300.48c-20.35-21.15,7.77-9.9,38.77-42.88c31-32.98,134.75-86.33,358.57-9.93
		c223.82,76.39,137.28,83.72,117.21,92.55c-20.06,8.82-105.94,69.47-297.64,30.13C75.57,331.01,50.35,300.48,50.35,300.48z"/>
	<path class="st1" d="M89.12,257.6c21.54-22.92,78.25-55.61,185.9-47.85c-24.64,4.76-61.42,14.84-65.71,44.81
		c-4.06,28.45,16.49,44.7,35.31,55.21c53.64,29.94,116.12,43.05,176.34,47.94c36.82,2.98,75.84,3.61,114.02-2.67
		c-42.23,18.87-126.05,44.39-267.7,15.32c-191.7-39.34-216.92-69.87-216.92-69.87C30,279.33,58.12,290.58,89.12,257.6z"/>
</g>
</svg>
