<?xml version="1.0" encoding="utf-8"?>
<!-- Generator: Adobe Illustrator 23.0.3, SVG Export Plug-In . SVG Version: 6.00 Build 0)  -->
<svg version="1.1" id="Layer_1" xmlns="http://www.w3.org/2000/svg" xmlns:xlink="http://www.w3.org/1999/xlink" x="0px" y="0px"
	 viewBox="0 0 612 792" style="enable-background:new 0 0 612 792;" xml:space="preserve">
<style type="text/css">
	.st0{fill:#FEBF51;}
	.st1{fill:#F2F2F2;}
	.st2{fill:#E6E7E7;}
	.st3{fill:#F5803E;}
	.st4{fill:#C95228;}
	.st5{fill:#03547B;}
	.st6{fill:#FFFFFF;}
</style>
<path class="st0" d="M159.88,300.09c53.48-20.73,113.4-35.31,171.21-32.49c21.8,1.06,51.16,5,78.67,13.7
	c-78.23-61.15-222.13-46.11-278.73,30.81C140.84,307.4,150.96,303.54,159.88,300.09z"/>
<path class="st1" d="M426.47,376.57c-49.64-23.44-109.41-14.4-161.65-2.72c-30.57,6.83-61.85,13.19-89.47,28.69
	c-19.66,11.04-37.95,27.29-58.88,35.93c54.96,144.93,337.03,103.82,345.89-42.18C447.54,398.58,432.33,390.03,426.47,376.57z"/>
<path class="st2" d="M426.47,376.57c-8.04-3.81-16.37-6.67-24.87-8.88c-18.4,26.8-48.47,48.11-80.61,60.49
	c-51.98,20.01-124.63,24.54-173.49-7.53c-10.01,6.8-20.16,13.34-31.03,17.83c54.96,144.93,337.03,103.82,345.88-42.18
	C447.54,398.57,432.33,390.03,426.47,376.57z"/>
<path class="st3" d="M157.28,301.09c55.2-50.14,157.58-60.56,224.36-27.06c9.35,1.92,18.83,4.33,28.12,7.27
	c-78.23-61.15-222.13-46.11-278.73,30.81C139.91,307.84,149.01,304.29,157.28,301.09z"/>
<path class="st4" d="M444.06,393.85c-22.16,149.18-268.16,156.36-317.2,39.61c-3.41,1.83-6.86,3.55-10.39,5.01
	c54.96,144.93,337.03,103.82,345.89-42.18C456.08,397.25,449.74,396.34,444.06,393.85z"/>
<path class="st5" d="M363.61,391.14c-7.63-23-59.73-39.33-73-11.22C261.06,442.52,384.63,454.53,363.61,391.14
	C358.51,375.78,370.32,411.39,363.61,391.14z"/>
<path class="st6" d="M313.16,364.9c-14.69,1.99-29.2,4.78-43.23,7.83c-5.44,32.09,60.26,35.97,48.06-0.79
	C317.15,369.42,315.43,367.04,313.16,364.9z"/>
<path class="st4" d="M469.9,402c-2.24-1.04-4.61-1.85-6.88-2.84c-20.14-20.64-54.84-29.21-80.81-37.83
	c-40.72-13.5-85.46-13.14-127.33-6.08c-55.15,9.3-136.86,31.36-155.46,92.17c-0.35,1.16-0.35,2.19-0.17,3.15
	c-0.11,0.09-0.23,0.18-0.34,0.28c-4.93,4.41,1.45,12.43,6.99,9.06c53.95-32.83,106.16-58.41,169.25-68.47
	c63.82-10.18,127.98-0.99,187.92,21.99c0.96,0.59,2.03,1,3.13,0.89c0.12-0.02,0.24-0.03,0.36-0.03
	C472.4,413.75,476.45,405.03,469.9,402z"/>
</svg>
