<?xml version="1.0" encoding="utf-8"?>
<!-- Generator: Adobe Illustrator 23.0.3, SVG Export Plug-In . SVG Version: 6.00 Build 0)  -->
<svg version="1.1" id="_x31_" xmlns="http://www.w3.org/2000/svg" xmlns:xlink="http://www.w3.org/1999/xlink" x="0px" y="0px"
	 viewBox="90 100 420 450" style="enable-background:new 0 0 600 600;" xml:space="preserve">
<style type="text/css">
	.st0{fill:#FA842F;}
	.st1{fill:#F46F23;}
	.st2{fill:#FFB32F;}
	.st3{fill:#EA631F;}
	.st4{fill:#FFC543;}
</style>
<path class="st0" d="M489.91,266.24c0.11-0.09,0.23-0.15,0.33-0.27c2.09-2.32,1.15-5.79,0.07-8.39c-1.14-2.76-3.16-5.75-6.2-6.56
	c-0.19-0.05-0.36-0.05-0.53-0.05c0.89-0.75,1.46-1.9,1.24-3.32c-1.03-6.51-5.24-19.23-13.8-18.65c1.95-3.24-0.5-7.82-2.98-9.97
	c-2.34-2.04-5.8-3.99-8.96-4.06c-0.01,0-0.01,0-0.02,0c-4.2-4.79-8.66-9.34-13.4-13.58c-7.67-6.86-15.26-12.88-22.72-18.18
	c-0.31-2.39-1.52-4.83-2.62-6.64c-2.32-3.8-5.8-7.32-9.89-9.17c-3.47-1.57-8.34-1.99-11.74,0.15c-0.03-0.33-0.04-0.65-0.13-0.98
	c-0.63-2.44-2.91-4.29-5.14-5.24c-1.36-0.58-2.66-1.03-4.16-0.98c-0.88,0.03-1.67,0.18-2.47,0.53c-0.16,0.07-0.31,0.15-0.46,0.24
	c0.98-0.58-0.16,0.04-0.54,0.24c-0.21,0.11-0.41,0.26-0.6,0.41c-11.46-4.94-22.48-8.32-32.95-10.54c-2.39-3.28-8.17-5.33-11.27-5.2
	c-2.45,0.1-5.33,0.87-7.56,2.3c-38.89-3.74-67.89,6.98-79.77,6.66c-27.48-0.74-57.72,1.89-86.27,25.38
	c-2.78-0.75-6.15-0.03-8.44,1.42c-2.18,1.39-3.73,3.43-4.56,5.86c-0.43,1.28-0.38,3.1,0.15,4.67c-0.01,0-0.03-0.01-0.04-0.02
	c-8.39-2.53-15.81,4.62-17.17,12.62c-0.29,1.75,0.12,4.01,1.97,4.83c0.38,0.17,0.76,0.32,1.14,0.47
	c-11.08,15.92-21.63,36.3-31.35,62.37c-18.54,49.77-16.12,98.86,3.29,139.39c-3.28,1.29-4.09,5.81-1.93,8.64
	c1.95,2.55,5.06,3.42,7.98,2.74c3.97,6.81,8.46,13.34,13.43,19.54c-0.51,1.64-0.39,3.3,0.44,4.91c0.92,1.77,2.73,2.58,4.6,2.83
	c0.49,0.07,0.98-0.01,1.47-0.13c0.09,0.1,0.18,0.19,0.27,0.29c-0.63,0.73-1.1,1.58-1.28,2.52c-0.68,3.58,1.18,6.89,3.67,9.32
	c2.62,2.55,6.33,4.45,10.03,4.44c1.26,0,2.57-0.31,3.75-0.86c0.03,0.02,0.05,0.04,0.08,0.06c-1.83,10.8,17.04,22.62,27.86,20.11
	c0.99,3.23,3.8,5.56,7.42,5.6c1.35,0.01,2.62-0.49,3.78-1.18c8.71,4.02,17.93,7.46,27.64,10.28c0.19,0.99,0.51,1.99,0.93,2.7
	c0.7,1.19,2.77,1.95,4.08,2.25c2.24,0.51,4.07-0.61,5.4-2.21c29.32,6.94,62.66,8.39,99.35,2.89c27.82-4.17,51.88-11.54,72.45-21.33
	c2.94,2.03,7.09,1.93,9.88-0.39c1.65-1.37,2.77-3.88,2.56-6.09c0.75-0.43,1.5-0.85,2.25-1.28c0.99,0.56,2.08,0.94,3.1,1.09
	c2.99,0.43,6.14-0.09,8.69-1.78c2.48-1.65,3.96-3.93,4.32-6.88c0.1-0.81-0.05-1.78-0.37-2.67
	C503.26,417.3,515.95,333.13,489.91,266.24z"/>
<path class="st1" d="M172.19,454.56c47.26,32.45,104.66,40.37,160.61,32.07c42.22-6.26,83.24-19.59,120.53-40.54
	c3.58-2.01,7.16-4.11,10.73-6.29c33.82-39.96,43.96-91.24,35.6-138.69c-2.69-6.49-5.67-12.86-9.02-19.02
	c-25.38-46.64-68.69-74.14-117.86-91.53c-21.47-7.59-45.44-14.03-69.81-17.19c26.23,7.28,51.72,15.95,73.95,34.08
	c33.4,27.24,68.19,68.28,66.22,114.28c-2.16,50.45-43,84.31-89.78,93.95c-44.28,9.12-93.8,6.2-137.72-4.11
	c-41.28-9.69-85.7-32.88-103.1-73.96c-7.48-17.67-9.52-35.13-7.78-52.15c-8.15,27.04-10.17,53.67-6.72,78.63
	C115.52,399.28,140.27,432.63,172.19,454.56z"/>
<path class="st2" d="M126.31,244.53c-29.86,41.53-20.5,89.55-7.55,107.89c12.95,18.34,50.71,26.97,50.71,26.97
	s29.13,25.89,92.78,19.42s94.94-59.34,94.94-59.34s41-11.87,10.79-102.49S249.3,166.85,212.62,179.8S142.05,222.63,126.31,244.53z"
	/>
<path class="st2" d="M365.82,205.01c-1.25,0.16-2.6,1.01-2.48,2.48c0.44,5.31,1.94,11.42,4.99,16.06c1.34,3.21,3.08,6.25,5.87,8.4
	c1.65,1.27,4.52-0.04,4.9-1.99C380.68,221.81,377.37,203.5,365.82,205.01z"/>
<path class="st2" d="M360.2,194.22c-0.58-0.99-1.59-1.47-2.59-1.92c-1.15-0.52-2.41-0.9-3.64-0.63c-0.13,0.01-0.25,0.02-0.38,0.02
	c-0.74,0.01-1.46,0.64-1.42,1.42c0.01,0.19,0.04,0.37,0.07,0.55c0,1.2,0.6,2.13,1.23,3.03c0.06,1.43,1.27,3.04,2.68,3.25
	c1.77,0.26,4.11-0.41,4.45-2.52C360.78,196.31,360.78,195.22,360.2,194.22z"/>
<path class="st2" d="M254.31,413.25c-1.03-2-2.66-3.32-4.63-4.17c-9.56-6.9-31.92-4.23-38.42,1.58c-6.19,5.54-0.55,13.64,5.17,16.39
	c8.75,4.21,20.53,4.5,29.75,1.84C253.69,426.73,258.12,420.67,254.31,413.25z"/>
<path class="st2" d="M276.11,408.83c-0.54-1.06-1.54-1.88-2.62-2.33c-0.39-0.16-0.79-0.24-1.21-0.3c-1.95-0.72-4.09-0.88-6.1-0.2
	c-3.44,1.16-5.09,4.45-5.14,7.91c-0.02,1.58,1.23,2.47,2.65,2.65c4.21,0.54,11.32,0.19,12.63-4.75
	C276.82,410.91,276.67,409.76,276.11,408.83z"/>
<path class="st0" d="M122.38,364.79c-0.75-0.56-1.57-1.04-2.39-1.41c-0.98-0.43-2.07-0.79-3.16-0.79c-0.48,0-0.93,0.12-1.37,0.3
	c-1.29-0.77-3.51-0.13-4.1,1.24c-0.03,0.07-0.04,0.13-0.07,0.2c-0.7,0.75-1.09,1.8-1.18,2.83c-0.4,4.57,1.77,8.3,5.11,10.37
	c2.5,2,5.69,3.29,8.92,3.49c1.72,0.1,3.15-1.24,3.65-2.78C129.65,372.43,126.88,367.34,122.38,364.79z"/>
<g>
	<path class="st3" d="M444.14,439.13c-5.35-6.3-14.51-1.25-19.02,3.03c-5.25,4.98-11.58,13.76-11.2,21.38
		c0.1,1.97,1.61,3.74,3.69,3.69c11.01-0.28,22.2-8.01,27.2-17.73c0.7-1.35,1.18-2.95,1.28-4.52
		C446.31,443.02,445.77,441.04,444.14,439.13z"/>
	<path class="st3" d="M458.53,433.85c0.04-0.25,0.07-0.5,0.09-0.74c0,0.02,0,0.01-0.01,0.03c0.33-1.64-1.11-3.11-2.78-2.68
		c-0.06,0.01-0.12,0.03-0.18,0.05c0.55-0.07,0.42-0.05-0.39,0.05c-0.42,0.08-0.8,0.28-1.18,0.48c-0.12,0.05-0.25,0.12-0.37,0.17
		c-0.85,0.13-1.65,0.49-2.36,1.13c-2.19,1.96-1.23,6.46,1.84,6.96c1.68,0.27,2.78-0.04,4.1-1.09c0.69-0.55,0.98-1.37,1.15-2.21
		C458.68,435.28,458.71,434.55,458.53,433.85z"/>
	<path class="st3" d="M408.2,458.65c0-3.27-0.91-6.52-2.79-9.02c-4.08-5.42-10.56-4.28-14.55,0.58c-5.06,6.15-6.06,14.58-2.32,21.63
		c3.32,6.26,10.7,7.11,15.46,2.06C407.75,469.94,408.84,464.16,408.2,458.65z"/>
	<path class="st3" d="M415.47,431.53c-2.11,0.3-4.59,0.44-6.18,2.05c-1.59,1.61-1.45,4.15-1.47,6.24c-0.02,1.32,0.9,2.2,1.99,2.45
		c0.83,0.97,2.14,1.33,3.42,0.63c1.57-0.86,3.07-1.9,4.13-3.36c0.96-1.33,1.1-3.22,1.33-4.78
		C419.01,432.64,417.57,431.23,415.47,431.53z"/>
	<path class="st3" d="M472.4,248.06c-2.14-1.47-4.58-2.5-7.33-2.86c-1.72-0.23-3.46,1.39-3.86,2.94
		c-2.97,11.28,5.53,27.24,17.26,29.84c2.01,0.44,4-0.58,4.59-2.61C485.45,267.25,480.88,252,472.4,248.06z"/>
	<path class="st3" d="M464.97,233.66c-0.22-0.29-0.44-0.58-0.67-0.86c-1.03-0.8-1.15-0.89-0.35-0.26c-0.66-0.51-1.16-0.93-2.01-1.09
		c-1.57-0.3-3.61,0.13-4.35,1.77c-0.62,1.37-0.67,2.28-0.42,3.73c0.24,1.43,1.65,2.6,2.98,2.98c0.04,0.01,0.08,0.02,0.12,0.03
		c1.38,0.39,3.08,0,4.07-1.07c0.29-0.32,0.51-0.66,0.69-1.01c-0.01,0.06-0.03,0.12-0.05,0.17
		C465.79,236.75,465.73,234.95,464.97,233.66z"/>
	<path class="st3" d="M477.66,393.16c-1.91-5.77-7.91-6.22-12.55-3.51c-4.68,2.73-9.02,7.74-11.52,12.49
		c-0.78,1.48-1.58,3.78-1.89,6.1c-0.39,1.29-0.7,2.57-0.83,3.85c-0.6,5.56,5.01,8.23,9.68,7.48c5.08-0.81,9.97-4.29,13.07-8.28
		C477.43,406.41,479.68,399.25,477.66,393.16z"/>
	<path class="st3" d="M449.13,421.23c-0.97-2.29-2.87-3.99-5.4-4.18c-0.21-0.02-0.44-0.01-0.66,0.01c-1.43-0.62-3.22-0.07-4.57,0.55
		c-3.79,1.74-4.69,7.15-1.62,9.97c3.59,3.3,8.54,1.58,11.63-1.46C449.91,424.73,449.84,422.92,449.13,421.23z"/>
</g>
<path class="st0" d="M159.91,387.21c-0.09-0.07-0.2-0.14-0.29-0.21c-2.61-3.76-7.6-5.45-11.66-1.96
	c-4.21,3.61-3.62,10.21,0.69,13.34c4.34,3.15,15.61,4.4,15.43-3.52C164.01,392.02,162.08,388.93,159.91,387.21z"/>
<g>
	<g>
		<path class="st4" d="M175.9,219.54c-0.76-6.45-6.14-8.64-12-7.68c-3.21,0.53-7.26,2.46-9.11,5.42
			c-7.99,5.68-14.26,18.25-2.41,23.15C164.57,245.49,177.3,231.51,175.9,219.54z"/>
		<path class="st4" d="M168.38,197.9c-7.27,0-7.27,11.28,0,11.28S175.65,197.9,168.38,197.9z"/>
		<path class="st4" d="M202.29,198.58c-1.5-4.98-8.73-4.64-12.67-3.77c-4.36,0.96-8.23,4.27-10.25,8.19
			c-1.63,3.18-2.02,7.43,0.79,10.07c0.22,0.21,0.45,0.39,0.69,0.56c0.52,0.94,1.55,1.61,2.63,1.58c0.9-0.03,1.77-0.16,2.64-0.33
			c2.8-0.21,5.7-1.39,7.76-2.62c1.71-1.02,3.26-2.43,4.39-4.08C200.88,205.71,203.37,202.14,202.29,198.58z"/>
		<path class="st4" d="M137.09,242.98c-3.39,0-3.39,5.26,0,5.26C140.49,248.24,140.49,242.98,137.09,242.98z"/>
		<path class="st4" d="M201.28,219.19c-2.36-3.17-7.32-2.01-10.36-0.7c-1.91,0.82-3.73,1.84-5.26,3.1
			c-3.74,2.05-6.95,5.08-8.14,8.39c-1.17,3.25,0.96,6.8,4.11,7.72c3.6,1.05,7.91-1.56,10.83-3.34
			C196.44,231.92,205.27,224.55,201.28,219.19z"/>
	</g>
</g>
</svg>
