<?xml version="1.0" encoding="utf-8"?>
<!-- Generator: Adobe Illustrator 23.0.3, SVG Export Plug-In . SVG Version: 6.00 Build 0)  -->
<svg version="1.1" id="Layer_1" xmlns="http://www.w3.org/2000/svg" xmlns:xlink="http://www.w3.org/1999/xlink" x="0px" y="0px"
	 viewBox="50 350 472 302" style="enable-background:new 0 0 612 792;" xml:space="preserve">
<style type="text/css">
	.st0{fill:#B52025;}
</style>
<path class="st0" d="M523.9,407.15c-1.96-7.92-12.61-24.17-21.3-12.69c-1.43,1.89-2.06,4.19-2.11,6.61
	c-0.86,2.4-0.57,5.48,0.38,8.62c-2.02,4.2-9.4,11.97-10.86,13.76c-5.45,6.66-11.83,12.57-18.4,18.11
	c-14.19,11.96-31.03,20.71-48.26,27.38c-34.4,13.32-71.97,17.24-108.6,17.75c-41.71,0.58-82.53-4.51-122.56-16.4
	c-21.62-6.41-43.09-14.07-63.13-24.47c-9.44-4.9-18.45-10.78-26.77-17.4c-4.83-3.84-12.44-7.26-16.16-12.39
	c2.38-3.31,4.92-7.27,4.81-11.22c-0.16-5.55-6.1-5.7-10.12-4.66c-4.18,1.09-10.01,5.24-11.74,10.07
	c-3.52,5.94-3.74,13.69,1.77,19.12c1.78,1.75,4.45,1.21,5.78-0.74c1.66-2.44,3.51-4.75,5.34-7.07c2.72,3.26,6.82,5.75,10,8.14
	c7.69,5.77,15.26,11.59,23.41,16.71c20.51,12.9,43.9,20.99,66.81,28.42c45.25,14.7,91.64,19.92,139.06,18.95
	c39.87-0.83,80.11-6.97,116.76-23.19c17.86-7.9,34.16-19,48.21-32.53c4.07-3.92,13.12-12.31,18.33-20.39
	c1.6,2.53,3.36,4.59,4.85,5.57c4.01,2.66,9.48,2.61,12.9-1.06C525.95,418.27,525.06,411.83,523.9,407.15z"/>
</svg>
