<svg 
 xmlns="http://www.w3.org/2000/svg"
 xmlns:xlink="http://www.w3.org/1999/xlink"
  viewBox="0 0 652 192">
<path fill-rule="evenodd"  fill="rgb(248, 248, 248)"
 d="M634.242,40.664 C633.504,40.705 632.662,40.623 631.719,40.418 C630.775,41.485 630.037,42.223 629.504,42.633 C629.012,42.962 628.724,43.002 628.643,42.756 C628.519,42.551 628.643,42.141 629.012,41.525 C629.463,40.870 630.058,40.213 630.796,39.556 C630.344,38.039 630.098,36.603 630.058,35.249 L630.058,35.187 C629.975,32.440 630.714,30.060 632.273,28.050 C633.462,26.491 635.165,25.240 637.380,24.296 C638.857,23.558 640.497,23.025 642.303,22.696 C642.877,22.573 643.451,22.471 644.026,22.389 L644.272,22.389 L644.518,22.389 L644.703,22.389 L644.949,22.389 L645.133,22.696 C645.749,23.804 646.097,25.158 646.179,26.757 C646.261,29.301 645.604,31.803 644.210,34.264 C641.831,38.367 638.508,40.500 634.242,40.664 ZM640.457,37.033 C641.277,36.336 642.036,35.516 642.734,34.572 C641.831,34.286 640.888,34.080 639.903,33.957 L638.611,33.834 C638.200,33.793 637.851,33.772 637.565,33.772 L635.227,36.480 C635.759,36.480 636.293,36.480 636.826,36.480 C637.359,36.480 637.872,36.501 638.365,36.541 C639.431,36.664 640.128,36.829 640.457,37.033 ZM634.242,39.556 C636.088,39.475 637.811,38.901 639.411,37.833 C639.042,37.793 638.672,37.731 638.303,37.649 C637.482,37.567 636.477,37.567 635.288,37.649 C634.919,37.649 634.550,37.649 634.180,37.649 L632.704,39.433 C633.319,39.516 633.831,39.556 634.242,39.556 ZM631.165,35.187 C631.165,36.213 631.329,37.362 631.658,38.633 L633.134,37.280 L633.134,37.033 L633.134,36.972 L633.134,36.726 L633.257,36.480 L633.257,35.987 C633.257,35.618 633.278,35.270 633.319,34.941 L633.319,33.649 C633.278,31.721 632.970,30.471 632.396,29.896 C631.535,31.414 631.124,33.178 631.165,35.187 ZM636.150,26.081 C634.784,26.924 633.739,27.907 633.002,29.024 C633.544,29.477 633.898,30.153 634.057,31.065 C634.262,31.721 634.365,32.563 634.365,33.588 C634.405,34.367 634.405,35.167 634.365,35.987 L636.211,33.649 L636.150,33.649 L636.211,33.034 L636.211,32.972 L636.211,32.788 C636.293,32.501 636.334,32.234 636.334,31.988 C636.375,31.578 636.396,31.209 636.396,30.880 L636.519,29.588 C636.600,27.988 636.477,26.819 636.150,26.081 ZM639.411,25.958 C639.411,25.711 639.411,25.445 639.411,25.158 L639.349,24.911 L639.226,24.788 L639.349,24.665 L637.749,25.281 L637.073,25.588 C637.442,26.327 637.605,27.660 637.565,29.588 L637.565,30.942 C637.482,31.352 637.442,31.763 637.442,32.172 L639.042,29.957 L639.226,29.280 C639.431,28.009 639.492,26.902 639.411,25.958 ZM640.272,24.358 L640.334,24.604 C640.497,24.933 640.580,25.384 640.580,25.958 C640.580,26.491 640.538,27.188 640.457,28.050 L643.287,23.681 C642.261,23.804 641.257,24.030 640.272,24.358 ZM645.072,26.757 C645.072,25.856 644.907,24.973 644.580,24.112 C643.718,25.507 642.754,26.922 641.687,28.357 C642.261,28.317 642.754,28.296 643.164,28.296 C644.066,28.296 644.661,28.357 644.949,28.480 C645.072,27.865 645.112,27.291 645.072,26.757 ZM644.703,29.650 C644.703,29.609 644.558,29.548 644.272,29.465 C643.903,29.383 643.533,29.342 643.164,29.342 C642.795,29.342 642.364,29.383 641.872,29.465 C641.503,29.548 641.092,29.609 640.641,29.650 L638.365,32.665 C639.020,32.747 639.595,32.809 640.088,32.849 L641.749,33.157 C642.405,33.280 642.918,33.424 643.287,33.588 C644.026,32.317 644.518,30.983 644.764,29.588 L644.703,29.650 ZM633.811,69.892 C635.205,68.333 636.375,66.734 637.319,65.092 L636.580,63.123 L638.303,60.724 L650.425,73.030 L649.502,75.676 L645.872,76.168 C644.558,78.097 642.712,80.004 640.334,81.891 C638.200,83.532 635.985,84.804 633.688,85.706 C630.816,86.855 627.843,87.388 624.766,87.306 C618.941,87.142 614.367,85.193 611.044,81.460 C608.377,78.466 606.593,74.405 605.691,69.277 C604.624,63.411 604.624,57.585 605.691,51.801 C604.624,56.437 602.901,61.011 600.522,65.523 C598.430,69.461 596.132,72.497 593.630,74.630 C590.431,77.256 586.985,78.383 583.293,78.014 C580.462,77.728 577.672,75.963 574.924,72.722 C572.709,70.179 570.596,66.734 568.587,62.385 C566.289,57.462 564.525,52.581 563.295,47.740 C560.505,64.683 556.403,76.128 550.988,82.075 C546.681,86.875 541.963,89.316 536.836,89.398 C534.292,89.439 532.179,89.008 530.498,88.106 L527.052,90.505 L524.898,89.336 L528.837,70.999 L531.790,71.430 L532.405,75.184 C533.021,75.513 533.800,75.697 534.744,75.737 C535.605,75.779 536.445,75.676 537.266,75.430 C538.291,75.102 539.276,74.548 540.220,73.768 C545.389,69.502 549.060,57.442 551.234,37.587 C552.342,27.660 552.936,18.164 553.019,9.098 L550.127,6.021 L550.434,3.252 L571.109,3.252 L571.294,6.513 C569.735,6.596 568.976,7.190 569.017,8.298 C569.387,18.800 571.602,30.122 575.663,42.264 C577.426,47.515 579.211,51.720 581.016,54.878 C582.903,58.201 584.524,59.822 585.877,59.739 C588.871,59.452 591.456,56.519 593.630,50.940 C595.394,46.469 596.871,40.418 598.061,32.788 C599.415,24.010 600.235,15.292 600.522,6.636 L597.938,6.144 L598.738,3.560 L619.536,2.329 L619.228,5.652 C616.725,6.390 615.475,6.882 615.475,7.129 C616.007,32.152 616.828,48.869 617.936,57.278 C618.674,62.611 619.638,66.610 620.828,69.277 C622.059,71.902 623.658,73.420 625.627,73.830 C627.063,74.117 628.540,73.830 630.058,72.969 C631.288,72.313 632.539,71.287 633.811,69.892 ZM521.461,81.768 C521.132,81.891 520.825,81.912 520.538,81.829 C519.471,81.624 519.020,80.968 519.184,79.860 L519.246,79.676 C519.328,79.429 519.451,79.204 519.615,78.999 C519.738,78.835 519.861,78.671 519.984,78.506 C519.984,78.383 519.963,78.260 519.923,78.137 L519.923,77.583 C519.881,77.091 519.840,76.599 519.800,76.107 C519.717,74.753 519.635,73.482 519.554,72.292 C519.348,68.723 519.205,66.261 519.123,64.908 C519.000,62.365 518.835,58.796 518.631,54.201 L518.508,51.247 L518.323,48.294 L518.077,42.202 C517.625,32.234 517.174,24.933 516.723,20.297 C516.723,20.256 516.723,20.173 516.723,20.050 L516.600,19.620 C516.559,19.210 516.559,18.861 516.600,18.574 L516.600,18.451 L516.723,18.266 C516.763,18.143 516.866,18.041 517.031,17.958 C517.154,17.918 517.277,17.897 517.400,17.897 L517.461,17.897 L517.585,17.958 C517.789,18.081 517.933,18.266 518.015,18.512 L518.138,18.881 L518.200,19.127 C518.282,19.292 518.323,19.456 518.323,19.620 L518.384,19.620 L518.446,19.927 C519.184,37.198 519.800,49.874 520.292,57.955 C520.374,59.308 520.455,60.765 520.538,62.323 L520.661,64.354 L520.784,66.323 C520.948,69.441 521.071,71.615 521.153,72.845 C521.276,74.774 521.400,76.189 521.523,77.091 C521.563,77.583 521.625,77.974 521.707,78.260 L521.707,78.383 C522.035,78.548 522.261,78.814 522.384,79.183 C522.466,79.512 522.486,79.840 522.446,80.168 L522.384,80.229 C522.220,81.050 521.912,81.563 521.461,81.768 ZM518.138,85.029 C518.589,85.439 518.569,86.342 518.077,87.736 L498.632,90.751 L497.340,86.752 C497.996,86.013 498.653,85.644 499.309,85.644 C500.253,85.644 499.453,70.138 496.910,39.126 C489.443,48.192 481.690,57.053 473.650,65.708 C466.635,73.297 460.851,79.060 456.298,82.998 C450.637,87.921 447.068,89.808 445.591,88.659 C443.376,86.978 442.247,76.414 442.207,56.970 C442.166,38.879 442.843,25.650 444.238,17.281 C444.770,14.000 444.976,11.416 444.853,9.528 C444.730,8.052 444.401,7.067 443.868,6.575 C443.253,5.959 442.535,5.652 441.715,5.652 L442.638,2.883 C442.843,2.883 443.909,2.986 445.837,3.190 C446.616,3.273 447.622,3.375 448.853,3.498 L450.452,3.621 L452.175,3.806 C458.287,4.421 461.590,4.729 462.082,4.729 C462.369,4.729 462.574,4.955 462.697,5.406 C462.779,5.775 462.779,6.227 462.697,6.759 C462.615,7.293 462.471,7.703 462.267,7.990 C462.061,8.319 461.836,8.401 461.590,8.236 C460.851,7.744 459.518,7.950 457.590,8.851 L455.806,65.646 C460.974,60.765 466.410,54.776 472.112,47.679 C476.132,42.674 480.767,36.521 486.018,29.219 C486.797,28.071 487.782,26.656 488.972,24.973 L490.387,23.004 L491.741,21.096 C493.833,18.184 495.473,15.928 496.663,14.328 C499.822,10.144 502.017,7.765 503.247,7.190 C504.314,6.739 507.226,6.513 511.985,6.513 C511.493,17.097 512.436,43.064 514.816,84.414 C516.620,84.537 517.728,84.742 518.138,85.029 ZM428.588,47.556 C420.547,54.119 409.328,56.724 394.929,55.370 L395.914,85.152 L400.283,86.506 L399.790,90.628 L379.731,90.444 L378.316,87.921 L382.254,86.998 L380.715,11.559 C379.402,9.508 378.992,7.150 379.485,4.483 C379.648,3.663 380.263,3.212 381.331,3.129 C381.659,3.089 382.356,3.067 383.423,3.067 L384.900,3.067 C385.515,3.067 386.089,3.047 386.623,3.006 L388.222,2.944 L389.822,2.821 C391.093,2.781 392.262,2.740 393.330,2.698 C396.119,2.616 398.662,2.575 400.960,2.575 C407.113,2.616 412.445,3.089 416.958,3.990 C429.388,6.452 436.320,12.236 437.756,21.343 C438.618,26.717 438.248,31.680 436.649,36.234 C435.049,40.705 432.361,44.479 428.588,47.556 ZM413.635,14.697 C410.599,13.836 407.215,13.405 403.482,13.405 C400.446,13.405 398.046,13.651 396.283,14.143 C395.257,14.389 394.601,15.928 394.314,18.758 C394.068,21.056 394.047,24.091 394.253,27.865 C394.539,32.214 394.991,36.501 395.606,40.725 C400.077,41.546 404.630,41.710 409.267,41.218 C413.368,40.808 416.671,39.844 419.173,38.326 C422.332,36.398 424.157,33.670 424.650,30.142 C425.839,22.225 422.167,17.077 413.635,14.697 ZM376.593,84.291 C375.402,84.004 374.931,83.286 375.177,82.137 L375.239,81.891 C375.321,81.645 375.444,81.420 375.608,81.214 C375.731,81.050 375.874,80.906 376.039,80.783 C376.039,80.497 376.039,80.148 376.039,79.737 C375.998,79.286 375.977,78.774 375.977,78.199 C375.936,76.805 375.895,75.451 375.854,74.138 C375.731,70.405 375.649,67.821 375.608,66.385 C375.567,64.252 375.525,60.211 375.485,54.263 C375.444,51.309 375.402,48.951 375.362,47.186 C375.362,44.479 375.321,42.018 375.239,39.802 C374.993,27.702 374.459,18.943 373.639,13.528 L373.639,13.282 L373.578,13.097 L373.578,12.851 C373.495,12.400 373.495,12.031 373.578,11.743 L373.578,11.620 L373.701,11.436 C373.782,11.272 373.905,11.170 374.070,11.128 C374.193,11.088 374.336,11.067 374.501,11.067 L374.501,11.128 L374.562,11.128 L374.624,11.190 C374.870,11.313 375.054,11.519 375.177,11.805 L375.300,12.174 L375.362,12.420 C375.402,12.626 375.444,12.811 375.485,12.974 L375.547,13.343 L375.670,13.774 L375.608,13.774 C376.428,20.338 376.879,28.317 376.962,37.710 C377.002,39.351 377.023,41.259 377.023,43.433 L377.023,46.202 L377.023,48.909 C377.064,53.299 377.105,56.704 377.146,59.124 C377.187,60.560 377.228,62.119 377.270,63.800 L377.331,65.954 L377.393,67.984 C377.474,71.307 377.536,73.605 377.577,74.876 C377.659,76.928 377.741,78.445 377.823,79.429 C377.864,79.963 377.905,80.352 377.946,80.599 L378.008,80.783 C378.336,80.989 378.562,81.275 378.685,81.645 C378.767,82.014 378.767,82.363 378.685,82.691 L378.685,82.752 C378.439,83.614 378.069,84.127 377.577,84.291 C377.208,84.373 376.879,84.373 376.593,84.291 ZM351.273,90.628 C349.631,88.619 349.119,87.408 349.734,86.998 C350.719,86.301 351.375,85.521 351.703,84.660 C350.021,80.148 346.493,71.676 341.120,59.247 C339.560,55.678 338.022,53.627 336.505,53.093 C335.971,52.930 335.356,52.909 334.659,53.032 L333.859,53.217 C333.530,53.258 333.264,53.299 333.059,53.340 C330.884,53.422 327.541,53.504 323.029,53.586 L314.538,53.893 C313.635,54.919 312.753,56.970 311.892,60.047 L311.830,60.108 L311.769,60.170 L311.707,60.293 C311.666,60.375 311.624,60.477 311.584,60.600 C311.501,60.724 311.420,60.888 311.338,61.093 C311.132,61.503 310.927,61.975 310.723,62.508 C310.476,63.206 310.209,63.965 309.923,64.785 C308.405,69.626 306.928,76.189 305.492,84.475 C307.502,85.460 308.486,86.362 308.446,87.183 L307.461,90.321 C300.856,88.393 295.257,87.593 290.663,87.921 C288.694,88.044 287.422,88.229 286.848,88.475 C285.288,86.055 284.899,84.701 285.679,84.414 C287.032,83.963 287.914,83.614 288.325,83.368 C299.113,51.084 306.046,30.449 309.123,21.466 C309.574,20.153 310.127,18.410 310.784,16.235 L311.523,13.713 C311.809,12.811 312.055,12.031 312.261,11.374 C313.368,7.928 314.435,5.713 315.461,4.729 C315.624,4.524 316.609,4.278 318.414,3.990 C320.301,3.663 322.331,3.396 324.506,3.190 C330.413,2.616 334.145,2.760 335.705,3.621 C336.935,4.360 341.652,16.235 349.857,39.249 L352.257,45.956 C353.200,48.581 353.980,50.776 354.595,52.540 C356.359,57.462 357.835,61.523 359.026,64.723 C362.102,73.092 364.235,78.281 365.425,80.291 C366.204,81.563 366.594,82.198 366.594,82.198 C366.594,82.198 367.681,81.973 369.855,81.522 C370.429,81.398 370.696,82.424 370.655,84.598 L351.273,90.628 ZM328.198,16.297 C326.475,16.338 325.039,16.441 323.891,16.605 C322.865,16.769 322.352,16.933 322.352,17.097 C322.106,18.204 321.224,21.794 319.706,27.865 C318.147,34.183 317.019,38.531 316.322,40.910 L336.136,40.110 C332.730,24.194 330.084,16.257 328.198,16.297 ZM307.707,7.990 L307.646,8.113 L307.584,8.175 L307.400,8.113 L307.584,8.236 C305.533,12.462 302.025,21.958 297.062,36.726 C295.257,42.141 293.391,47.802 291.463,53.709 C289.863,58.631 288.591,62.631 287.648,65.708 C287.279,66.857 286.642,68.887 285.740,71.799 C285.411,72.825 285.063,73.871 284.694,74.938 C284.571,75.348 284.448,75.759 284.325,76.168 C284.202,76.456 284.119,76.702 284.079,76.907 C284.202,77.071 284.304,77.214 284.387,77.337 C284.468,77.543 284.530,77.768 284.571,78.014 L284.571,78.199 C284.571,79.143 283.996,79.614 282.848,79.614 C282.519,79.574 282.212,79.491 281.925,79.368 C281.473,79.122 281.248,78.630 281.248,77.891 L281.187,77.830 C281.187,77.543 281.269,77.276 281.433,77.030 C281.638,76.784 281.925,76.599 282.294,76.476 L282.356,76.353 C282.479,76.148 282.602,75.861 282.725,75.491 C283.012,74.753 283.422,73.584 283.956,71.984 C284.284,70.959 284.838,69.175 285.617,66.631 L286.110,65.031 L286.663,63.369 C287.073,62.057 287.442,60.847 287.771,59.739 C288.057,58.919 288.283,58.222 288.448,57.647 C288.734,56.785 289.002,55.965 289.248,55.186 C289.903,53.093 290.540,51.084 291.155,49.155 C292.878,43.946 294.478,39.126 295.955,34.695 C300.179,22.143 303.441,13.241 305.738,7.990 L305.677,7.928 L305.923,7.621 L306.046,7.375 L306.169,7.190 L306.292,7.005 L306.415,6.759 L306.600,6.513 C306.723,6.308 306.928,6.185 307.215,6.144 L307.277,6.082 L307.338,6.082 C307.502,6.124 307.646,6.165 307.769,6.206 C307.892,6.288 307.974,6.411 308.015,6.575 L308.077,6.698 L308.077,6.821 C308.077,7.067 307.994,7.354 307.831,7.682 L307.707,7.990 ZM278.705,88.229 L278.336,91.182 L259.445,91.182 L258.338,87.490 L261.599,86.752 L263.999,76.045 C228.556,74.076 211.081,74.322 211.573,76.784 C212.147,79.655 212.762,81.891 213.419,83.491 C213.911,84.804 214.424,85.686 214.957,86.137 C215.531,86.670 216.024,86.670 216.434,86.137 L218.588,86.506 L218.588,90.875 L198.282,90.505 L198.282,87.244 L199.882,86.506 C200.210,83.470 199.759,80.229 198.528,76.784 L197.728,74.630 L196.928,72.538 C196.230,70.815 195.718,69.441 195.390,68.415 C195.307,68.129 195.226,67.821 195.144,67.492 L195.021,67.123 L194.959,66.877 C194.836,66.467 194.753,66.200 194.713,66.077 C194.672,65.831 194.795,65.462 195.082,64.969 C195.287,64.641 195.738,64.149 196.436,63.492 L214.280,61.462 L211.142,7.313 C210.896,5.959 211.183,4.729 212.004,3.621 L212.188,3.375 L212.373,3.129 C212.536,2.965 212.701,2.821 212.865,2.698 C213.316,2.412 214.136,2.227 215.327,2.144 C219.469,1.775 226.833,1.447 237.417,1.160 C247.016,0.955 254.277,0.873 259.199,0.914 C260.224,0.955 261.024,1.201 261.599,1.652 C261.763,1.817 261.907,2.001 262.030,2.206 L262.153,2.452 L262.214,2.637 C262.870,3.786 263.178,5.673 263.137,8.298 C263.055,19.004 262.030,36.849 260.061,61.831 C263.630,61.626 267.137,61.626 270.583,61.831 C277.515,62.200 280.756,63.288 280.305,65.092 C279.567,68.006 277.761,75.717 274.890,88.229 L278.705,88.229 ZM249.354,12.728 C249.025,12.442 248.185,12.195 246.831,11.990 L230.771,12.543 C227.653,12.708 225.910,13.015 225.541,13.466 C224.720,14.411 224.351,15.620 224.433,17.097 L225.972,60.724 L247.016,61.093 L250.154,16.420 C250.605,14.903 250.339,13.672 249.354,12.728 ZM178.621,89.420 C179.910,89.635 180.675,89.326 180.917,88.494 C181.024,88.172 181.051,86.897 180.997,84.668 C180.943,82.332 180.836,79.942 180.675,77.498 C180.192,70.813 179.533,67.524 178.701,67.631 C177.305,67.819 175.197,67.832 172.378,67.671 C171.545,67.618 170.310,67.524 168.673,67.389 L166.780,67.268 L164.967,67.148 C162.148,66.986 160.067,66.973 158.725,67.107 C157.006,67.322 156.147,67.832 156.147,68.638 C156.147,69.846 156.187,76.156 156.268,87.567 C157.502,87.756 158.214,88.010 158.402,88.333 C158.644,88.735 158.496,89.447 157.959,90.467 L144.185,90.266 L144.024,88.534 C145.044,88.588 145.608,88.292 145.715,87.648 C146.494,82.332 146.843,76.183 146.763,69.202 C146.682,63.805 146.346,57.951 145.756,51.641 C145.540,49.359 145.286,46.983 144.990,44.512 C144.883,43.600 144.775,42.633 144.668,41.613 C144.614,41.210 144.561,40.781 144.507,40.324 C144.453,40.029 144.399,39.653 144.346,39.196 C144.125,37.480 144.012,36.438 144.006,36.066 L142.453,35.611 L141.768,34.282 C145.661,34.121 150.589,33.880 156.550,33.557 C157.006,33.907 157.154,34.363 156.993,34.927 C156.832,35.491 156.160,35.759 154.979,35.732 L155.301,58.085 C170.848,58.945 178.728,58.770 178.943,57.562 C180.258,50.071 180.353,43.170 179.225,36.860 C178.178,36.592 177.520,36.323 177.251,36.054 C177.010,35.786 176.808,35.155 176.647,34.162 L190.583,32.873 L190.341,34.524 C189.025,34.927 188.394,35.236 188.448,35.450 C189.119,37.491 189.629,45.278 189.979,58.810 C190.059,61.281 190.126,64.046 190.180,67.107 C190.206,69.256 190.247,71.940 190.301,75.162 C190.408,82.036 190.488,86.359 190.542,88.131 C190.542,88.481 191.321,88.735 192.879,88.897 L193.080,90.749 L178.661,91.031 L178.621,89.420 ZM177.896,105.047 C177.332,104.778 176.902,104.335 176.607,103.718 C176.311,103.100 176.245,102.496 176.406,101.906 C176.567,101.288 176.902,100.858 177.413,100.617 C177.922,100.375 178.460,100.375 179.024,100.617 C179.587,100.885 180.017,101.328 180.312,101.946 C180.608,102.563 180.688,103.181 180.554,103.799 C180.393,104.416 180.057,104.846 179.547,105.087 C179.010,105.329 178.460,105.315 177.896,105.047 ZM148.549,134.653 C148.603,134.895 148.603,135.191 148.549,135.539 C148.495,135.889 148.402,136.157 148.267,136.345 C148.133,136.560 147.986,136.614 147.824,136.506 C147.341,136.184 146.468,136.318 145.206,136.909 L144.038,174.083 C147.422,170.888 150.979,166.968 154.712,162.323 C157.343,159.047 160.377,155.020 163.814,150.240 C164.324,149.489 164.968,148.562 165.747,147.461 L166.674,146.172 L167.560,144.924 C168.929,143.017 170.003,141.540 170.782,140.493 C172.849,137.754 174.286,136.198 175.091,135.821 C175.789,135.526 177.695,135.378 180.810,135.378 C180.488,142.306 181.106,159.302 182.663,186.367 C183.844,186.448 184.569,186.583 184.838,186.770 C185.133,187.039 185.120,187.630 184.798,188.542 L172.071,190.516 L171.225,187.898 C171.654,187.415 172.084,187.173 172.514,187.173 C173.131,187.173 172.607,177.023 170.943,156.724 C166.056,162.659 160.981,168.459 155.719,174.124 C151.127,179.091 147.341,182.863 144.361,185.441 C140.655,188.663 138.319,189.899 137.353,189.147 C135.903,188.046 135.164,181.132 135.138,168.404 C135.110,156.563 135.553,147.904 136.467,142.426 C136.815,140.279 136.950,138.587 136.869,137.352 C136.789,136.385 136.574,135.741 136.225,135.418 C135.822,135.016 135.352,134.814 134.815,134.814 L135.419,133.002 C135.553,133.002 136.251,133.069 137.514,133.203 C138.024,133.257 138.682,133.324 139.487,133.405 L140.534,133.485 L141.662,133.606 C145.663,134.009 147.824,134.210 148.147,134.210 C148.334,134.210 148.469,134.358 148.549,134.653 ZM128.901,90.628 C127.827,89.313 127.491,88.521 127.894,88.252 C128.539,87.796 128.968,87.285 129.183,86.722 C128.082,83.768 125.773,78.223 122.256,70.088 C121.235,67.752 120.228,66.409 119.235,66.060 C118.886,65.953 118.483,65.939 118.027,66.020 L117.503,66.141 C117.288,66.168 117.113,66.195 116.979,66.221 C115.556,66.275 113.368,66.329 110.414,66.382 L104.856,66.584 C104.265,67.255 103.688,68.597 103.124,70.611 L103.084,70.652 L103.044,70.692 L103.004,70.772 C102.977,70.826 102.950,70.893 102.923,70.974 C102.869,71.054 102.815,71.162 102.762,71.296 C102.627,71.565 102.493,71.874 102.359,72.222 C102.198,72.679 102.023,73.176 101.836,73.712 C100.842,76.881 99.875,81.177 98.936,86.601 C100.251,87.245 100.895,87.836 100.869,88.373 L100.225,90.427 C95.901,89.165 92.236,88.642 89.229,88.856 C87.940,88.937 87.108,89.058 86.732,89.219 C85.711,87.635 85.457,86.749 85.967,86.561 C86.853,86.265 87.430,86.037 87.699,85.876 C94.760,64.745 99.298,51.239 101.312,45.358 C101.607,44.499 101.970,43.358 102.399,41.935 L102.883,40.283 C103.070,39.693 103.231,39.183 103.366,38.753 C104.091,36.498 104.789,35.048 105.460,34.403 C105.567,34.269 106.212,34.108 107.394,33.920 C108.628,33.705 109.958,33.531 111.381,33.396 C115.248,33.021 117.691,33.114 118.711,33.678 C119.517,34.162 122.604,41.935 127.975,56.998 L129.545,61.388 C130.163,63.107 130.673,64.543 131.076,65.698 C132.230,68.920 133.197,71.578 133.976,73.672 C135.990,79.150 137.385,82.547 138.165,83.862 C138.674,84.695 138.930,85.111 138.930,85.111 C138.930,85.111 139.641,84.963 141.064,84.668 C141.440,84.587 141.614,85.258 141.588,86.681 L128.901,90.628 ZM113.798,41.975 C112.670,42.002 111.730,42.069 110.978,42.176 C110.307,42.284 109.971,42.392 109.971,42.499 C109.810,43.224 109.233,45.573 108.240,49.547 C107.219,53.682 106.481,56.529 106.024,58.085 L118.993,57.562 C116.764,47.144 115.032,41.949 113.798,41.975 ZM100.386,36.538 L100.345,36.618 L100.305,36.659 L100.184,36.618 L100.305,36.699 C98.962,39.465 96.666,45.680 93.418,55.347 C92.236,58.891 91.015,62.596 89.753,66.463 C88.706,69.685 87.873,72.303 87.256,74.317 C87.014,75.069 86.597,76.398 86.007,78.304 C85.792,78.975 85.564,79.660 85.322,80.358 C85.242,80.627 85.161,80.895 85.081,81.164 C85.000,81.352 84.946,81.513 84.920,81.647 C85.000,81.754 85.067,81.848 85.121,81.929 C85.175,82.063 85.215,82.211 85.242,82.372 L85.242,82.493 C85.242,83.111 84.866,83.419 84.114,83.419 C83.899,83.393 83.698,83.338 83.510,83.258 C83.214,83.097 83.067,82.775 83.067,82.291 L83.027,82.251 C83.027,82.063 83.080,81.889 83.188,81.727 C83.322,81.566 83.510,81.445 83.752,81.365 L83.792,81.284 C83.873,81.150 83.953,80.962 84.034,80.721 C84.221,80.237 84.490,79.472 84.839,78.425 C85.054,77.754 85.416,76.586 85.927,74.921 L86.249,73.874 L86.611,72.786 C86.879,71.927 87.121,71.135 87.336,70.410 C87.524,69.873 87.672,69.417 87.779,69.040 C87.967,68.477 88.142,67.940 88.303,67.429 C88.732,66.060 89.149,64.745 89.551,63.482 C90.679,60.073 91.726,56.917 92.693,54.018 C95.458,45.801 97.593,39.975 99.097,36.538 L99.057,36.498 L99.218,36.296 L99.298,36.135 L99.379,36.014 L99.459,35.893 L99.540,35.732 L99.661,35.571 C99.741,35.437 99.875,35.357 100.063,35.330 L100.104,35.289 L100.144,35.289 C100.251,35.316 100.345,35.343 100.426,35.370 C100.507,35.424 100.560,35.504 100.587,35.611 L100.627,35.692 L100.627,35.773 C100.627,35.934 100.573,36.122 100.466,36.336 L100.386,36.538 ZM79.197,81.164 C78.337,82.426 77.129,83.674 75.572,84.909 C74.176,85.983 72.726,86.816 71.222,87.406 C69.343,88.158 67.396,88.508 65.382,88.453 C61.569,88.347 58.576,87.071 56.401,84.627 C54.655,82.668 53.487,80.009 52.897,76.653 C52.198,72.813 52.198,69.000 52.897,65.214 C52.198,68.249 51.071,71.242 49.514,74.196 C48.144,76.773 46.640,78.761 45.003,80.157 C42.908,81.875 40.653,82.613 38.236,82.372 C36.384,82.184 34.557,81.030 32.759,78.908 C31.309,77.244 29.926,74.988 28.610,72.142 C27.106,68.920 25.952,65.725 25.147,62.556 C23.320,73.646 20.636,81.137 17.092,85.030 C14.272,88.172 11.184,89.769 7.828,89.823 C6.163,89.850 4.780,89.568 3.680,88.977 L1.424,90.548 L0.015,89.783 L2.592,77.780 L4.525,78.062 L4.928,80.519 C5.331,80.734 5.841,80.855 6.459,80.882 C7.023,80.909 7.573,80.841 8.110,80.680 C8.781,80.466 9.425,80.103 10.043,79.593 C13.426,76.801 15.829,68.906 17.253,55.911 C17.978,49.413 18.367,43.197 18.421,37.263 L16.528,35.249 L16.729,33.437 L30.262,33.437 L30.383,35.571 C29.362,35.625 28.865,36.014 28.892,36.739 C29.134,43.613 30.584,51.024 33.242,58.972 C34.396,62.409 35.564,65.161 36.746,67.228 C37.981,69.403 39.042,70.464 39.928,70.410 C41.888,70.222 43.579,68.302 45.003,64.650 C46.157,61.724 47.124,57.763 47.903,52.769 C48.789,47.023 49.325,41.317 49.514,35.652 L47.822,35.330 L48.346,33.638 L61.959,32.832 L61.758,35.007 C60.119,35.491 59.301,35.813 59.301,35.974 C59.649,52.353 60.187,63.295 60.912,68.799 C61.395,72.290 62.026,74.908 62.805,76.653 C63.610,78.371 64.657,79.365 65.946,79.633 C66.886,79.821 67.852,79.633 68.846,79.069 C69.652,78.640 70.470,77.969 71.303,77.055 C72.215,76.035 72.981,74.988 73.599,73.914 L73.115,72.625 L74.243,71.054 L82.177,79.109 L81.573,80.841 L79.197,81.164 ZM71.585,57.924 C71.102,57.951 70.551,57.898 69.934,57.763 C69.316,58.462 68.832,58.945 68.484,59.213 C68.161,59.428 67.973,59.455 67.920,59.294 C67.839,59.160 67.920,58.891 68.161,58.488 C68.457,58.059 68.846,57.629 69.329,57.199 C69.034,56.206 68.873,55.266 68.846,54.380 L68.846,54.340 C68.792,52.541 69.275,50.984 70.296,49.668 C71.074,48.648 72.189,47.829 73.639,47.211 C74.606,46.728 75.679,46.379 76.861,46.164 C77.237,46.083 77.612,46.016 77.989,45.962 L78.150,45.962 L78.311,45.962 L78.432,45.962 L78.593,45.962 L78.714,46.164 C79.116,46.889 79.344,47.775 79.398,48.822 C79.452,50.487 79.022,52.125 78.110,53.736 C76.552,56.421 74.377,57.817 71.585,57.924 ZM75.653,55.548 C76.190,55.092 76.686,54.555 77.143,53.937 C76.552,53.749 75.935,53.615 75.290,53.534 L74.444,53.454 C74.176,53.427 73.947,53.413 73.760,53.413 L72.229,55.186 C72.578,55.186 72.927,55.186 73.276,55.186 C73.625,55.186 73.961,55.199 74.283,55.226 C74.981,55.306 75.437,55.414 75.653,55.548 ZM71.585,57.199 C72.793,57.146 73.921,56.770 74.968,56.072 C74.726,56.045 74.485,56.005 74.243,55.951 C73.706,55.897 73.048,55.897 72.270,55.951 C72.028,55.951 71.786,55.951 71.545,55.951 L70.578,57.119 C70.981,57.173 71.316,57.199 71.585,57.199 ZM69.571,54.340 C69.571,55.011 69.678,55.763 69.893,56.595 L70.860,55.709 L70.860,55.548 L70.860,55.508 L70.860,55.347 L70.940,55.186 L70.940,54.863 C70.940,54.622 70.954,54.394 70.981,54.179 L70.981,53.333 C70.954,52.071 70.752,51.252 70.377,50.876 C69.813,51.870 69.544,53.025 69.571,54.340 ZM72.833,48.379 C71.939,48.931 71.258,49.576 70.776,50.308 C71.129,50.605 71.360,51.046 71.464,51.641 C71.598,52.071 71.665,52.622 71.665,53.293 C71.692,53.803 71.692,54.327 71.665,54.863 L72.874,53.333 L72.833,53.333 L72.874,52.930 L72.874,52.890 L72.874,52.769 C72.927,52.581 72.954,52.407 72.954,52.245 C72.981,51.977 72.995,51.736 72.995,51.520 L73.075,50.675 C73.129,49.627 73.048,48.862 72.833,48.379 ZM74.968,48.298 C74.968,48.137 74.968,47.963 74.968,47.775 L74.928,47.614 L74.847,47.533 L74.928,47.453 L73.881,47.855 L73.438,48.057 C73.679,48.540 73.786,49.413 73.760,50.675 L73.760,51.561 C73.706,51.829 73.679,52.098 73.679,52.366 L74.726,50.916 L74.847,50.473 C74.981,49.641 75.022,48.916 74.968,48.298 ZM75.532,47.251 L75.572,47.412 C75.679,47.628 75.733,47.923 75.733,48.298 C75.733,48.648 75.706,49.104 75.653,49.668 L77.505,46.808 C76.834,46.889 76.176,47.037 75.532,47.251 ZM78.673,48.822 C78.673,48.232 78.566,47.654 78.351,47.090 C77.787,48.003 77.156,48.930 76.458,49.869 C76.834,49.843 77.156,49.829 77.425,49.829 C78.015,49.829 78.405,49.869 78.593,49.950 C78.673,49.547 78.700,49.171 78.673,48.822 ZM78.432,50.715 C78.432,50.689 78.337,50.648 78.150,50.594 C77.908,50.541 77.667,50.514 77.425,50.514 C77.183,50.514 76.901,50.541 76.579,50.594 C76.337,50.648 76.069,50.689 75.774,50.715 L74.283,52.688 C74.713,52.743 75.089,52.783 75.411,52.809 L76.499,53.011 C76.928,53.091 77.264,53.186 77.505,53.293 C77.989,52.461 78.311,51.588 78.472,50.675 L78.432,50.715 ZM2.431,136.667 L2.512,136.385 L2.512,136.143 L2.552,136.143 L2.552,135.982 L2.592,135.781 L2.632,135.580 L2.673,135.378 C2.753,135.164 2.874,135.002 3.035,134.895 L3.116,134.855 L3.156,134.855 C3.263,134.801 3.371,134.788 3.478,134.814 C3.585,134.841 3.680,134.895 3.760,134.975 L3.841,135.096 L3.881,135.177 C3.935,135.365 3.948,135.607 3.921,135.902 L3.921,136.063 L3.921,136.184 L3.881,136.345 L3.760,136.345 L3.881,136.385 C3.559,140.171 3.532,147.139 3.800,157.288 C3.907,161.074 4.055,165.062 4.243,169.250 C4.378,172.688 4.512,175.694 4.646,178.272 C4.700,179.212 4.780,180.917 4.888,183.387 C4.941,184.220 4.982,185.106 5.009,186.045 C5.035,186.395 5.049,186.730 5.049,187.052 C5.075,187.294 5.089,187.509 5.089,187.697 C5.223,187.777 5.331,187.872 5.411,187.979 C5.573,188.113 5.693,188.247 5.774,188.381 L5.814,188.542 C5.921,188.838 5.881,189.133 5.693,189.428 C5.532,189.724 5.277,189.939 4.928,190.073 L4.888,190.073 C4.673,190.153 4.431,190.180 4.163,190.153 C3.787,190.073 3.491,189.765 3.277,189.227 L3.277,189.187 L3.237,189.187 C3.156,188.972 3.142,188.744 3.196,188.502 C3.277,188.234 3.438,188.019 3.680,187.858 L3.680,187.777 C3.706,187.590 3.720,187.321 3.720,186.972 C3.746,186.354 3.720,185.361 3.639,183.991 C3.612,183.132 3.545,181.629 3.438,179.480 L3.357,178.151 L3.277,176.701 C3.223,175.628 3.169,174.621 3.116,173.681 L3.075,172.875 L3.035,171.989 C3.008,171.318 2.981,170.700 2.955,170.136 C2.901,168.606 2.847,167.183 2.794,165.867 C2.632,162.323 2.512,159.047 2.431,156.040 C2.216,147.770 2.230,141.313 2.471,136.667 L2.431,136.667 ZM6.821,137.754 C6.848,136.627 6.915,135.902 7.023,135.580 C7.103,135.365 7.318,135.056 7.667,134.653 C8.231,134.009 8.808,133.646 9.399,133.566 C16.783,132.492 22.864,132.613 27.644,133.928 C31.698,135.083 34.598,137.016 36.343,139.728 C37.820,142.091 38.263,144.669 37.673,147.461 C37.109,150.093 35.833,152.160 33.846,153.663 C37.391,153.905 40.438,154.845 42.989,156.483 C45.351,157.987 47.137,160.001 48.346,162.524 C49.473,164.914 49.970,167.518 49.836,170.338 C49.701,173.157 48.936,175.869 47.540,178.473 C45.660,181.964 42.479,184.743 37.995,186.811 C34.182,188.610 29.792,189.737 24.824,190.194 C20.394,190.596 16.474,190.409 13.064,189.630 C9.654,188.878 7.882,187.777 7.748,186.327 C7.023,178.165 6.620,168.794 6.539,158.215 C6.512,154.295 6.525,150.321 6.579,146.293 C6.633,143.367 6.714,140.520 6.821,137.754 ZM15.722,181.575 C19.776,181.709 23.844,181.373 27.926,180.568 C31.524,179.843 34.370,178.823 36.464,177.507 C39.122,175.842 40.532,173.748 40.693,171.224 C41.122,164.780 37.592,161.558 30.101,161.558 C28.785,161.585 27.267,161.692 25.549,161.880 C24.878,161.934 24.126,162.028 23.294,162.162 L22.166,162.323 L21.119,162.444 C17.628,162.954 15.413,163.142 14.474,163.007 L15.722,181.575 ZM14.312,154.469 C16.541,154.362 18.850,153.945 21.240,153.220 C25.992,151.770 28.704,149.515 29.376,146.454 C30.208,142.642 28.087,140.588 23.012,140.292 C22.126,140.238 21.119,140.238 19.991,140.292 C19.239,140.319 18.286,140.386 17.132,140.493 C14.930,140.681 13.654,140.735 13.306,140.654 L14.312,154.469 ZM76.982,172.674 L88.662,171.345 L86.608,135.902 C86.447,135.016 86.634,134.210 87.172,133.485 L87.292,133.324 L87.413,133.163 C87.520,133.056 87.628,132.962 87.736,132.881 C88.031,132.694 88.567,132.573 89.347,132.519 C92.058,132.277 96.878,132.062 103.806,131.874 C110.089,131.740 114.841,131.687 118.063,131.713 C118.734,131.740 119.258,131.901 119.634,132.196 C119.741,132.304 119.835,132.425 119.916,132.559 L119.997,132.720 L120.037,132.841 C120.466,133.593 120.667,134.828 120.641,136.546 C120.587,143.554 119.916,155.234 118.627,171.586 C120.963,171.452 123.259,171.452 125.514,171.586 C130.052,171.828 132.173,172.540 131.878,173.721 C131.395,175.628 130.213,180.675 128.334,188.865 L130.831,188.865 L130.589,190.798 L118.224,190.798 L117.499,188.381 L119.634,187.898 L121.205,180.890 C98.006,179.601 86.568,179.762 86.890,181.373 C87.265,183.253 87.668,184.716 88.098,185.763 C88.420,186.623 88.756,187.200 89.105,187.495 C89.481,187.844 89.803,187.844 90.072,187.495 L91.481,187.737 L91.481,190.596 L78.190,190.355 L78.190,188.220 L79.237,187.737 C79.452,185.750 79.157,183.629 78.351,181.373 L77.828,179.964 L77.304,178.594 C76.847,177.467 76.512,176.567 76.297,175.896 C76.243,175.708 76.190,175.507 76.136,175.292 L76.055,175.050 L76.015,174.889 C75.935,174.621 75.881,174.446 75.854,174.365 C75.827,174.204 75.908,173.963 76.096,173.640 C76.230,173.426 76.525,173.104 76.982,172.674 ZM96.314,170.861 L110.089,171.103 L112.143,141.863 C112.438,140.870 112.264,140.064 111.619,139.446 C111.404,139.259 110.854,139.097 109.968,138.963 L99.456,139.325 C97.415,139.433 96.274,139.634 96.032,139.929 C95.495,140.547 95.253,141.339 95.307,142.306 L96.314,170.861 ZM184.798,158.738 C184.502,152.214 184.207,147.435 183.912,144.400 C183.912,144.374 183.912,144.319 183.912,144.239 L183.831,143.957 C183.804,143.689 183.804,143.460 183.831,143.272 L183.831,143.192 L183.912,143.071 C183.938,142.990 184.005,142.924 184.113,142.869 C184.194,142.843 184.274,142.829 184.355,142.829 L184.395,142.829 L184.476,142.869 C184.610,142.950 184.703,143.071 184.757,143.232 L184.838,143.474 L184.878,143.635 C184.932,143.742 184.959,143.850 184.959,143.957 L184.999,143.957 L185.039,144.158 C185.523,155.463 185.925,163.759 186.248,169.049 C186.301,169.935 186.355,170.888 186.409,171.908 L186.489,173.238 L186.570,174.526 C186.677,176.567 186.757,177.990 186.812,178.796 C186.892,180.058 186.973,180.984 187.053,181.575 C187.080,181.897 187.120,182.152 187.174,182.340 L187.174,182.420 C187.389,182.528 187.537,182.702 187.617,182.944 C187.671,183.159 187.684,183.374 187.657,183.588 L187.617,183.629 C187.509,184.166 187.308,184.502 187.013,184.636 C186.798,184.716 186.596,184.730 186.409,184.676 C185.710,184.542 185.415,184.112 185.523,183.387 L185.563,183.266 C185.616,183.105 185.697,182.958 185.805,182.823 C185.885,182.716 185.966,182.609 186.046,182.501 C186.046,182.420 186.032,182.340 186.006,182.259 L186.006,181.897 C185.979,181.575 185.952,181.252 185.925,180.930 C185.871,180.044 185.818,179.212 185.764,178.433 C185.630,176.097 185.536,174.486 185.482,173.600 C185.402,171.935 185.294,169.599 185.160,166.592 L185.080,164.659 L184.959,162.726 L184.798,158.738 ZM227.644,155.798 C227.751,155.745 227.952,155.825 228.248,156.040 C228.596,156.255 228.932,156.537 229.255,156.886 C230.006,156.671 230.705,156.537 231.349,156.483 L231.389,156.483 C232.732,156.429 233.900,156.792 234.893,157.570 C235.699,158.215 236.343,159.087 236.827,160.188 C237.202,160.967 237.471,161.839 237.632,162.806 C237.713,163.102 237.766,163.397 237.793,163.692 L237.793,163.813 L237.793,163.934 L237.833,164.014 L237.833,164.175 L237.713,164.256 C237.122,164.632 236.437,164.834 235.659,164.860 C234.423,164.914 233.188,164.592 231.953,163.894 C229.885,162.685 228.798,160.967 228.691,158.738 C228.691,158.309 228.731,157.866 228.812,157.409 C228.274,156.926 227.898,156.537 227.684,156.241 C227.549,155.973 227.536,155.825 227.644,155.798 ZM236.827,161.759 L236.706,161.799 C236.545,161.853 236.316,161.894 236.021,161.920 C235.725,161.920 235.390,161.907 235.014,161.880 C235.659,162.337 236.383,162.820 237.189,163.330 C237.081,162.793 236.961,162.269 236.827,161.759 ZM235.659,164.296 C236.142,164.296 236.585,164.203 236.988,164.014 C236.289,163.531 235.578,163.021 234.853,162.484 C234.879,162.780 234.906,163.048 234.934,163.289 C234.906,163.746 234.866,164.068 234.813,164.256 C235.108,164.310 235.390,164.323 235.659,164.296 ZM234.531,161.276 L234.692,161.276 L234.934,161.276 L235.457,161.316 C235.645,161.343 235.820,161.356 235.981,161.356 C236.115,161.356 236.249,161.330 236.383,161.276 L236.504,161.235 L236.585,161.195 L236.625,161.276 C236.545,160.980 236.437,160.685 236.303,160.390 L236.182,160.108 C235.806,160.269 235.148,160.363 234.209,160.390 C233.993,160.390 233.752,160.390 233.484,160.390 C233.295,160.363 233.107,160.336 232.920,160.309 L234.047,161.155 L234.370,161.235 L234.410,161.235 L234.531,161.276 ZM234.289,164.175 L234.249,164.135 C234.275,164.135 234.302,164.055 234.329,163.894 C234.356,163.706 234.370,163.518 234.370,163.330 C234.343,163.115 234.316,162.873 234.289,162.605 C234.262,162.417 234.222,162.216 234.168,162.001 L232.718,160.833 C232.664,161.155 232.638,161.451 232.638,161.719 L232.557,162.162 L232.517,162.605 C232.436,162.954 232.369,163.223 232.316,163.410 C232.906,163.759 233.564,164.014 234.289,164.175 ZM232.517,159.705 L232.557,159.745 L232.678,159.745 C232.785,159.745 232.906,159.745 233.041,159.745 C233.228,159.772 233.416,159.799 233.604,159.826 L234.249,159.826 C235.000,159.853 235.551,159.785 235.900,159.624 C235.470,158.926 234.987,158.363 234.450,157.933 L234.490,158.013 C234.249,158.255 233.900,158.443 233.443,158.577 C233.121,158.658 232.705,158.712 232.195,158.738 C231.818,158.765 231.430,158.752 231.027,158.698 C231.430,159.074 231.818,159.423 232.195,159.745 L232.154,159.665 L232.517,159.705 ZM231.792,163.088 C231.953,162.632 232.047,162.148 232.074,161.638 C232.074,161.423 232.087,161.195 232.114,160.953 C232.141,160.766 232.154,160.578 232.154,160.390 L230.785,159.222 C230.785,159.517 230.798,159.785 230.825,160.027 C230.798,160.349 230.785,160.631 230.785,160.873 C230.731,161.410 230.650,161.773 230.543,161.960 C230.919,162.363 231.335,162.739 231.792,163.088 ZM230.503,158.094 L230.543,158.134 L230.664,158.134 C230.771,158.161 230.892,158.161 231.027,158.134 C231.214,158.161 231.389,158.174 231.550,158.174 C231.765,158.174 231.980,158.174 232.195,158.174 C233.107,158.148 233.698,157.973 233.967,157.651 C233.215,157.222 232.356,157.033 231.389,157.087 C230.879,157.114 230.315,157.208 229.698,157.369 L230.382,158.094 L230.503,158.094 ZM230.141,161.437 C230.194,161.222 230.221,161.021 230.221,160.833 C230.248,160.376 230.248,159.840 230.221,159.222 C230.221,159.034 230.207,158.846 230.181,158.658 L229.295,157.852 C229.268,158.174 229.255,158.456 229.255,158.698 C229.308,159.665 229.603,160.578 230.141,161.437 ZM192.845,132.841 C194.295,133.485 195.490,133.834 196.430,133.888 C197.342,133.942 200.216,133.593 205.049,132.841 C205.747,134.130 205.733,134.734 205.009,134.653 C204.256,134.573 203.652,135.070 203.196,136.143 C204.324,148.495 204.793,154.979 204.606,155.597 C204.498,155.865 204.954,155.718 205.975,155.154 C207.076,154.509 208.271,153.663 209.560,152.616 C212.862,149.824 215.722,146.817 218.138,143.594 C220.662,139.863 223.052,137.325 225.308,135.982 C226.838,135.096 228.221,134.546 229.456,134.331 L229.818,133.082 C230.677,132.814 231.121,132.787 231.148,133.002 C231.335,134.693 231.899,136.479 232.839,138.359 C232.973,138.654 233.148,138.990 233.363,139.365 L233.604,139.809 L233.806,140.211 C234.128,140.802 234.316,141.218 234.370,141.460 C234.450,141.809 233.927,142.185 232.799,142.588 L232.356,141.903 C230.610,142.118 229.147,142.924 227.966,144.319 C227.348,145.018 226.140,146.589 224.341,149.032 C222.542,151.126 220.112,153.583 217.051,156.402 C220.783,157.610 223.656,159.920 225.670,163.330 C226.395,164.592 227.187,166.297 228.046,168.445 L228.610,169.854 L229.174,171.264 C229.630,172.472 230.020,173.466 230.342,174.244 C231.738,177.601 233.564,179.548 235.820,180.084 C236.947,180.353 237.940,180.286 238.800,179.883 C238.773,179.373 238.813,179.064 238.921,178.957 C239.055,178.769 239.511,178.621 240.290,178.514 L240.290,178.594 C240.290,178.675 240.303,178.769 240.331,178.876 C240.331,179.037 240.344,179.185 240.371,179.319 C240.424,179.722 240.478,180.139 240.532,180.568 C240.585,181.078 240.653,181.589 240.733,182.098 C240.921,183.414 241.122,184.569 241.337,185.562 C241.579,186.824 241.847,187.777 242.143,188.422 C242.223,188.610 242.022,188.798 241.539,188.985 C241.109,189.174 240.774,189.241 240.532,189.187 C240.344,189.133 240.142,189.040 239.928,188.905 C239.632,188.744 239.377,188.556 239.163,188.341 C233.766,190.301 229.187,188.610 225.428,183.266 C224.113,181.387 222.877,179.024 221.723,176.178 C221.320,175.158 220.904,174.017 220.474,172.754 C220.340,172.351 220.179,171.855 219.991,171.264 L219.750,170.579 L219.548,169.975 C218.877,167.961 217.588,166.243 215.682,164.820 C213.802,163.424 211.869,162.712 209.882,162.685 C208.378,163.867 206.552,164.673 204.404,165.102 L205.452,186.891 C206.713,186.918 207.506,187.039 207.828,187.254 C207.935,187.308 208.042,187.469 208.150,187.737 C208.257,187.979 208.311,188.234 208.311,188.502 C208.365,189.227 208.083,189.590 207.465,189.590 C205.532,189.563 201.075,189.845 194.094,190.435 C193.798,190.301 193.637,189.831 193.610,189.026 C193.610,188.462 194.053,188.194 194.940,188.220 C193.892,158.524 193.597,141.151 194.053,136.103 C194.134,135.325 193.583,134.532 192.402,133.727 L192.845,132.841 ZM253.274,135.056 C253.408,134.975 253.556,134.962 253.717,135.016 C253.851,135.043 253.959,135.123 254.039,135.257 C254.093,135.392 254.120,135.526 254.120,135.660 C254.093,135.821 253.999,135.956 253.838,136.063 C248.924,139.097 245.809,144.561 244.494,152.455 C243.366,159.249 243.728,165.666 245.581,171.707 C247.165,176.809 249.514,181.172 252.629,184.797 C256.227,189.012 260.376,191.576 265.075,192.489 C269.478,193.348 273.694,193.348 277.721,192.489 C282.474,191.496 286.004,189.415 288.314,186.247 C288.233,186.032 288.193,185.817 288.193,185.602 C288.193,185.199 288.314,184.851 288.556,184.555 C288.797,184.233 289.092,184.072 289.442,184.072 C289.790,184.072 290.086,184.233 290.328,184.555 C290.596,184.851 290.730,185.199 290.730,185.602 C290.730,186.032 290.596,186.395 290.328,186.690 C290.086,186.985 289.790,187.133 289.442,187.133 C289.361,187.133 289.253,187.106 289.119,187.052 C286.864,190.060 283.534,192.153 279.131,193.335 C275.345,194.328 271.344,194.544 267.129,193.980 C262.296,193.335 257.972,191.321 254.160,187.938 C250.589,184.770 247.837,180.796 245.903,176.017 C243.916,171.076 242.909,165.867 242.883,160.390 C242.829,154.778 243.822,149.569 245.863,144.762 C247.796,140.171 250.266,136.936 253.274,135.056 ZM290.287,177.467 C290.180,178.004 290.006,178.581 289.764,179.198 C289.119,180.944 288.179,182.555 286.945,184.031 C283.159,188.597 277.520,190.851 270.029,190.798 C265.115,190.771 260.751,189.174 256.939,186.005 C253.448,183.079 250.777,179.132 248.924,174.164 C247.098,169.331 246.306,164.230 246.548,158.859 C246.789,153.301 248.105,148.240 250.495,143.675 C252.428,139.970 255.274,137.191 259.033,135.338 C262.362,133.700 266.055,132.908 270.109,132.962 C273.868,132.989 277.238,133.714 280.218,135.137 C283.252,136.560 285.159,138.345 285.938,140.493 C287.146,142.454 288.072,144.776 288.717,147.461 C288.824,147.998 289.039,148.374 289.361,148.589 C289.603,148.777 289.898,148.857 290.247,148.830 C290.676,148.830 291.066,148.723 291.415,148.508 L291.415,151.166 L278.245,153.825 L278.567,151.368 C278.862,151.448 279.157,151.422 279.453,151.287 C279.990,151.046 280.218,150.441 280.138,149.475 C280.299,147.864 279.909,146.320 278.970,144.843 C278.164,143.528 276.996,142.561 275.466,141.943 C273.559,141.138 271.129,140.883 268.176,141.178 C265.088,141.474 262.564,142.803 260.604,145.165 C258.805,147.314 257.583,150.106 256.939,153.543 C256.321,156.792 256.281,160.202 256.818,163.773 C257.328,167.344 258.322,170.513 259.799,173.278 C261.275,176.017 263.101,178.057 265.276,179.400 C267.155,180.555 269.183,181.105 271.358,181.051 C273.264,181.025 275.023,180.555 276.634,179.641 C278.164,178.755 279.184,177.682 279.695,176.419 C279.909,175.910 279.990,175.533 279.937,175.292 C279.882,175.104 279.748,175.010 279.534,175.010 C279.292,175.010 279.010,175.090 278.688,175.251 L278.325,173.479 L291.576,172.432 C291.818,172.754 291.992,173.090 292.100,173.439 C292.314,174.191 292.100,174.701 291.455,174.969 C291.294,175.050 291.066,175.332 290.771,175.815 C290.502,176.272 290.368,176.540 290.368,176.621 C290.394,176.755 290.368,177.037 290.287,177.467 ZM298.233,135.418 C297.830,135.016 297.360,134.814 296.823,134.814 L297.427,133.002 C297.562,133.002 298.259,133.069 299.522,133.203 C300.032,133.257 300.690,133.324 301.495,133.405 L302.543,133.485 L303.670,133.606 C307.671,134.009 309.832,134.210 310.155,134.210 C310.342,134.210 310.477,134.358 310.557,134.653 C310.611,134.895 310.611,135.191 310.557,135.539 C310.503,135.889 310.410,136.157 310.275,136.345 C310.141,136.560 309.994,136.614 309.832,136.506 C309.349,136.184 308.476,136.318 307.215,136.909 L306.047,174.083 C309.430,170.888 312.987,166.968 316.720,162.323 C319.351,159.047 322.385,155.020 325.822,150.240 C326.332,149.489 326.976,148.562 327.755,147.461 L328.682,146.172 L329.568,144.924 C330.937,143.017 332.011,141.540 332.790,140.493 C334.857,137.754 336.294,136.198 337.099,135.821 C337.797,135.526 339.703,135.378 342.818,135.378 C342.496,142.306 343.114,159.302 344.671,186.367 C345.852,186.448 346.577,186.583 346.846,186.770 C347.141,187.039 347.128,187.630 346.806,188.542 L334.079,190.516 L333.233,187.898 C333.662,187.415 334.092,187.173 334.522,187.173 C335.139,187.173 334.615,177.023 332.951,156.724 C328.064,162.659 322.989,168.459 317.727,174.124 C313.135,179.091 309.349,182.863 306.369,185.441 C302.663,188.663 300.327,189.899 299.361,189.147 C297.911,188.046 297.172,181.132 297.146,168.404 C297.118,156.563 297.562,147.904 298.475,142.426 C298.823,140.279 298.958,138.587 298.877,137.352 C298.797,136.385 298.582,135.741 298.233,135.418 ZM346.806,158.738 C346.510,152.214 346.215,147.435 345.920,144.400 C345.920,144.374 345.920,144.319 345.920,144.239 L345.839,143.957 C345.812,143.689 345.812,143.460 345.839,143.272 L345.839,143.192 L345.920,143.071 C345.946,142.990 346.013,142.924 346.121,142.869 C346.202,142.843 346.282,142.829 346.363,142.829 L346.403,142.829 L346.484,142.869 C346.618,142.950 346.711,143.071 346.765,143.232 L346.846,143.474 L346.886,143.635 C346.940,143.742 346.967,143.850 346.967,143.957 L347.007,143.957 L347.047,144.158 C347.531,155.463 347.933,163.759 348.256,169.049 C348.309,169.935 348.363,170.888 348.417,171.908 L348.497,173.238 L348.578,174.526 C348.685,176.567 348.765,177.990 348.820,178.796 C348.900,180.058 348.981,180.984 349.061,181.575 C349.088,181.897 349.128,182.152 349.182,182.340 L349.182,182.420 C349.397,182.528 349.545,182.702 349.625,182.944 C349.679,183.159 349.692,183.374 349.665,183.588 L349.625,183.629 C349.517,184.166 349.316,184.502 349.021,184.636 C348.806,184.716 348.604,184.730 348.417,184.676 C347.718,184.542 347.423,184.112 347.531,183.387 L347.571,183.266 C347.624,183.105 347.705,182.958 347.813,182.823 C347.893,182.716 347.974,182.609 348.054,182.501 C348.054,182.420 348.040,182.340 348.014,182.259 L348.014,181.897 C347.987,181.575 347.960,181.252 347.933,180.930 C347.879,180.044 347.826,179.212 347.772,178.433 C347.638,176.097 347.544,174.486 347.490,173.600 C347.410,171.935 347.302,169.599 347.168,166.592 L347.088,164.659 L346.967,162.726 L346.806,158.738 ZM367.201,133.244 C367.523,133.754 367.469,134.371 367.040,135.096 C366.959,135.231 366.785,135.284 366.516,135.257 L365.791,135.137 C365.173,135.083 364.905,135.526 364.986,136.466 C365.576,144.762 365.630,157.114 365.147,173.519 C359.938,173.761 357.374,173.466 357.454,172.633 C358.447,162.055 358.340,149.462 357.132,134.855 L356.125,134.975 C355.829,134.922 355.628,134.519 355.521,133.767 C355.441,133.177 359.333,133.002 367.201,133.244 ZM360.394,181.655 C363.536,181.655 365.107,183.011 365.107,185.723 C365.107,188.865 363.751,190.435 361.039,190.435 C359.696,190.435 358.488,189.979 357.414,189.066 C356.286,188.099 355.722,186.985 355.722,185.723 C355.722,183.011 357.279,181.655 360.394,181.655 Z"/>
</svg>