<?xml version="1.0" encoding="utf-8"?>
<!-- Generator: Adobe Illustrator 23.0.3, SVG Export Plug-In . SVG Version: 6.00 Build 0)  -->
<svg version="1.1" id="Layer_1" xmlns="http://www.w3.org/2000/svg" xmlns:xlink="http://www.w3.org/1999/xlink" x="0px" y="0px"
	 viewBox="0 0 600 600" style="enable-background:new 0 0 600 600;" xml:space="preserve">
<style type="text/css">
	.st0{fill:#7BA529;}
	.st1{fill:#98BA3C;}
	.st2{fill:#A8C63E;}
	.st3{fill:#89AB29;}
	.st4{fill:#ACD244;}
	.st5{opacity:0.3;}
	.st6{fill:#FFF6E6;}
	.st7{fill:#6F8738;}
	.st8{fill:#FFC931;}
	.st9{fill:#FB852F;}
	.st10{fill:#F77023;}
	.st11{fill:#FFB32F;}
	.st12{fill:#F06520;}
	.st13{fill:#FFC543;}
	.st14{opacity:0.2;}
	.st15{fill:#8C5518;}
	.st16{fill:#90B83A;}
	.st17{fill:#859F26;}
	.st18{opacity:0.6;}
	.st19{fill:#F46F23;}
	.st20{fill:#AD3225;}
	.st21{fill:#D1D3D4;}
	.st22{fill:#BCBEC0;}
	.st23{fill:#E6E7E8;}
	.st24{fill:#FFFFFF;}
	.st25{fill:#F1F2F2;}
	.st26{fill:#1C75BC;}
	.st27{fill:#C14D1A;}
	.st28{fill:#8C5C38;}
	.st29{fill:#8CB238;}
	.st30{fill:#779B1F;}
	.st31{fill:#68890E;}
</style>
<g>
	<g>
		<path class="st0" d="M280.14,378.04c0,0,0.05,0.07,0.15,0.21c0.11,0.16,0.33,0.47,0.5,0.74c0.39,0.6,0.92,1.44,1.52,2.52
			c0.62,1.08,1.3,2.39,2.05,3.91c0.74,1.52,1.5,3.25,2.29,5.15c0.37,0.96,0.75,1.95,1.15,2.98c0.36,1.04,0.75,2.11,1.12,3.22
			c0.34,1.12,0.72,2.25,1.06,3.43c0.32,1.18,0.67,2.38,0.98,3.61c0.29,1.23,0.59,2.48,0.89,3.75c0.26,1.27,0.52,2.56,0.78,3.86
			c0.21,1.3,0.43,2.62,0.65,3.94c0.22,1.39,0.36,2.6,0.55,3.91c0.33,2.58,0.66,5.28,0.9,7.84c0.27,2.58,0.47,5.12,0.64,7.58
			c0.34,4.92,0.53,9.51,0.61,13.45c0.08,3.94,0.06,7.22,0.01,9.53c-0.03,1.16-0.06,2.06-0.07,2.68c-0.03,0.63-0.04,0.97-0.04,0.97
			c-0.06,1.47-1.3,2.61-2.77,2.55c-1.41-0.06-2.52-1.21-2.55-2.6l0-0.07c0,0-0.01-0.31-0.02-0.89c-0.02-0.6-0.05-1.47-0.08-2.59
			c-0.09-2.24-0.26-5.44-0.57-9.28c-0.31-3.84-0.75-8.31-1.37-13.07c-0.31-2.38-0.65-4.84-1.06-7.33c-0.39-2.51-0.83-4.95-1.31-7.5
			c-0.25-1.25-0.49-2.61-0.76-3.76c-0.28-1.22-0.56-2.43-0.84-3.63c-0.32-1.19-0.64-2.37-0.95-3.53c-0.35-1.15-0.7-2.29-1.04-3.41
			c-0.36-1.11-0.75-2.19-1.11-3.25c-0.38-1.06-0.79-2.07-1.17-3.06c-0.39-0.99-0.81-1.93-1.2-2.85c-0.42-0.9-0.82-1.78-1.2-2.61
			c-0.81-1.65-1.59-3.14-2.31-4.42c-0.73-1.28-1.39-2.37-1.96-3.23c-0.56-0.87-1.02-1.51-1.33-1.91c-0.28-0.37-0.44-0.56-0.44-0.56
			l-0.08-0.1c-1.77-2.27-1.36-5.55,0.92-7.32c2.27-1.77,5.55-1.36,7.32,0.92C280.03,377.89,280.09,377.98,280.14,378.04z"/>
	</g>
	<g>
		<path class="st1" d="M331.37,385c0,0-0.13,0.22-0.39,0.63c-0.27,0.45-0.67,1.16-1.16,2.12c-0.49,0.95-1.05,2.15-1.67,3.55
			c-0.31,0.7-0.61,1.46-0.94,2.26c-0.3,0.81-0.63,1.67-0.96,2.56c-0.3,0.91-0.62,1.85-0.95,2.83c-0.29,0.99-0.62,2.01-0.92,3.07
			c-0.59,2.13-1.15,4.4-1.65,6.77c-0.23,1.19-0.46,2.4-0.69,3.63c-0.19,1.24-0.39,2.49-0.59,3.75c-0.15,1.27-0.3,2.55-0.46,3.84
			c-0.14,1.22-0.24,2.65-0.36,3.96c-0.22,2.68-0.4,5.24-0.53,7.88c-0.15,2.61-0.23,5.18-0.28,7.68c-0.11,4.99-0.08,9.65,0.03,13.64
			c0.11,3.99,0.28,7.32,0.44,9.64c0.09,1.16,0.15,2.06,0.2,2.68c0.05,0.6,0.08,0.92,0.08,0.92l0,0.06c0.13,1.52-0.99,2.86-2.51,2.99
			c-1.46,0.13-2.75-0.91-2.97-2.34c0,0-0.05-0.35-0.15-1c-0.08-0.64-0.21-1.57-0.37-2.76c-0.3-2.37-0.68-5.76-1.03-9.83
			c-0.35-4.07-0.67-8.83-0.86-13.94c-0.09-2.56-0.17-5.2-0.18-7.89c-0.04-2.67,0-5.49,0.06-8.18c0.04-1.37,0.06-2.64,0.13-4.09
			c0.08-1.39,0.15-2.77,0.23-4.14c0.13-1.37,0.25-2.73,0.37-4.07c0.17-1.34,0.33-2.67,0.5-3.97c0.38-2.6,0.82-5.11,1.32-7.48
			c0.25-1.19,0.54-2.33,0.79-3.45c0.29-1.11,0.58-2.18,0.85-3.21c0.31-1.02,0.61-2,0.89-2.93c0.32-0.93,0.6-1.81,0.9-2.63
			c0.6-1.65,1.16-3.08,1.68-4.26c0.51-1.18,0.96-2.11,1.29-2.77c0.15-0.31,0.34-0.64,0.43-0.82c0.09-0.16,0.13-0.24,0.13-0.24
			c1.44-2.62,4.73-3.57,7.35-2.12c2.62,1.44,3.57,4.73,2.12,7.35c-0.04,0.08-0.09,0.15-0.13,0.22L331.37,385z"/>
	</g>
	<g>
		<path class="st2" d="M297.81,470.86c0,0,0.17,2.57-5.65,2.57c-5.82,0-3.08-2.39-12.15-0.68c-9.07,1.71-25.33,2.91-42.95,0.34
			c-17.63-2.57-31.86-14.8-27.89-21.39c8.04-13.35,19.68,5.13,42.95,10.1c23.27,4.96,38.68-8.56,38.68-8.56l5.14-0.51L297.81,470.86
			z"/>
	</g>
	<g>
		<path class="st3" d="M209.77,454.2c0-0.01,0.01,0.11,0.05,0.27c0.04,0.16,0.1,0.39,0.22,0.72c0.19,0.64,0.57,1.57,1.2,2.64
			c0.16,0.26,0.33,0.54,0.51,0.84c0.17,0.29,0.43,0.56,0.64,0.86c0.42,0.61,1,1.19,1.58,1.83c0.62,0.6,1.31,1.22,2.06,1.85
			c0.4,0.29,0.82,0.57,1.22,0.89c0.21,0.16,0.41,0.31,0.62,0.47c0.22,0.15,0.46,0.28,0.69,0.42c0.95,0.54,1.87,1.2,2.97,1.68
			c1.07,0.53,2.15,1.1,3.37,1.52c1.2,0.45,2.4,0.97,3.72,1.31c0.65,0.2,1.3,0.39,1.96,0.59l1,0.3l1.03,0.24
			c1.38,0.31,2.79,0.62,4.21,0.94c1.44,0.24,2.91,0.48,4.38,0.72l1.11,0.18l0.28,0.05l0.26,0.03l0.57,0.07
			c0.76,0.09,1.52,0.18,2.28,0.27c1.53,0.18,3.06,0.39,4.57,0.5c3.03,0.29,6.08,0.5,9.09,0.62c3,0.08,5.97,0.1,8.82-0.1
			c2.86-0.16,5.59-0.53,8.17-1.02c2.59-0.46,5.01-1.12,7.42-1.34c1.2-0.06,2.4-0.05,3.48,0.22c1.03,0.23,2.01,0.45,2.93,0.66
			c0.46,0.13,0.9,0.16,1.31,0.2c0.42,0.04,0.82,0.09,1.21,0.13c0.78,0.03,1.51-0.02,2.15-0.05c1.28-0.17,2.26-0.44,2.85-0.74
			c0.63-0.28,0.84-0.49,0.83-0.47c0.24-0.2,0.59-0.16,0.79,0.08c0.2,0.24,0.16,0.59-0.08,0.79c0-0.01-0.11,0.09-0.29,0.19
			c-0.18,0.1-0.45,0.27-0.81,0.4c-0.71,0.34-1.8,0.59-3.2,0.78c-0.7,0.04-1.47,0.08-2.31,0.05c-0.42-0.04-0.86-0.08-1.32-0.12
			c-0.46-0.04-0.93-0.08-1.38-0.19c-0.46-0.09-0.94-0.19-1.42-0.29c-0.25-0.05-0.51-0.11-0.77-0.16c-0.24-0.04-0.48-0.09-0.73-0.13
			c-0.98-0.21-2.03-0.17-3.13-0.08c-2.2,0.29-4.62,1.03-7.23,1.6c-2.61,0.6-5.41,1.08-8.32,1.37c-2.91,0.35-5.93,0.47-9,0.54
			c-3.07,0.03-6.18-0.02-9.3-0.21c-1.57-0.06-3.1-0.2-4.63-0.32c-0.77-0.06-1.53-0.12-2.29-0.19l-0.57-0.05l-0.31-0.03l-0.29-0.04
			l-1.15-0.14c-1.53-0.2-3.05-0.39-4.55-0.58c-1.49-0.3-2.96-0.59-4.41-0.89l-1.08-0.22l-1.06-0.3c-0.7-0.2-1.4-0.39-2.09-0.58
			c-1.39-0.35-2.7-0.9-3.98-1.38c-1.3-0.44-2.5-1.06-3.68-1.63c-1.2-0.52-2.25-1.25-3.29-1.91c-0.26-0.17-0.52-0.32-0.76-0.5
			c-0.24-0.19-0.47-0.38-0.7-0.56c-0.47-0.36-0.9-0.74-1.33-1.11c-0.42-0.37-0.79-0.8-1.16-1.18c-0.36-0.4-0.75-0.74-1.03-1.18
			c-1.24-1.62-2.07-3.22-2.53-4.62c-0.23-0.7-0.36-1.35-0.47-1.9c-0.06-0.57-0.13-1.04-0.12-1.44c0-0.39,0.02-0.71,0.05-0.92
			c0.02-0.21,0.05-0.29,0.04-0.3l0.03-0.09c0.09-0.3,0.4-0.47,0.7-0.38C209.6,453.77,209.75,453.98,209.77,454.2z"/>
	</g>
	<g>
		<path class="st4" d="M313.04,451.18l6.67-0.26c0,0,1.5,15.92,15.4,19.51c7.96,2.05,10.27-4.11,21.31-0.51
			c11.04,3.59,11.68,13.45-8.47,16.17c-9.5,1.28-19.77-3.59-24.39-11.04c-3.8-6.12-9.75-0.26-9.75-7.44
			C313.81,460.42,313.04,451.18,313.04,451.18z"/>
	</g>
	<g class="st5">
		<path class="st6" d="M353.55,468.96c-2.91-0.95-6.21-0.14-9.02,1.01c-3.09,1.26-6.61,3.86-4.81,7.55
			c1.85,3.8,7.42,2.05,10.45,1.19c2.72-0.78,7.56-2.35,7.82-5.85C358.17,470.39,356.18,469.24,353.55,468.96z"/>
	</g>
	<g class="st5">
		<path class="st6" d="M221.24,450.06c-1.67-1.87-3.93-2.4-6.36-2.04c-2.04,0.3-4.6,2.08-4.08,4.42c0.02,0.07,0.07,0.11,0.1,0.17
			c-0.4,1.08,0.91,2.21,1.94,1.87c2.49-0.83,4.87-2.27,7.54-2.35C221.47,452.11,221.94,450.85,221.24,450.06z"/>
	</g>
	<g>
		<path class="st3" d="M314.47,469.8c0.01,0.02,0,0.01,0.03,0.08c0.03,0.06,0.09,0.17,0.2,0.29c0.21,0.25,0.62,0.6,1.27,0.86
			c0.65,0.27,1.53,0.44,2.57,0.46c0.27,0,0.55,0,0.84,0c0.34,0.02,0.67,0.04,1.01,0.12c0.69,0.14,1.45,0.56,1.96,1.12
			c1.04,1.11,1.72,2.31,2.74,3.39c1,1.09,2.18,2.1,3.52,3.01c0.32,0.23,0.7,0.47,1,0.66c0.37,0.22,0.73,0.44,1.1,0.67
			c0.75,0.42,1.43,0.8,2.21,1.16c1.52,0.73,3.11,1.35,4.73,1.8c1.62,0.47,3.27,0.78,4.91,0.97c1.64,0.17,3.27,0.19,4.85,0.13
			c0.79-0.07,1.57-0.1,2.32-0.22c0.76-0.07,1.5-0.19,2.23-0.32c1.43-0.27,2.83-0.56,4.05-0.92c1.2-0.35,2.34-0.71,3.27-1.13
			c0.96-0.39,1.75-0.81,2.38-1.18c1.27-0.75,1.85-1.36,1.81-1.31c0.18-0.28,0.55-0.36,0.83-0.18c0.28,0.18,0.36,0.55,0.18,0.83
			c-0.02,0.03-0.14,0.26-0.41,0.63c-0.26,0.38-0.69,0.89-1.31,1.47c-0.61,0.58-1.42,1.2-2.39,1.83c-0.99,0.61-2.12,1.22-3.45,1.75
			c-1.3,0.54-2.72,1.01-4.29,1.39c-1.56,0.4-3.25,0.68-5.02,0.82c-1.77,0.13-3.62,0.09-5.48-0.14c-1.86-0.24-3.72-0.72-5.5-1.36
			c-1.78-0.64-3.48-1.49-5.04-2.47c-0.78-0.46-1.57-1.03-2.27-1.54c-0.34-0.26-0.68-0.53-1.02-0.79c-0.38-0.31-0.7-0.56-1.03-0.86
			c-1.31-1.14-2.5-2.37-3.47-3.65c-0.99-1.25-1.7-2.64-2.44-3.55c-0.38-0.44-0.79-0.69-1.29-0.82c-0.25-0.07-0.51-0.1-0.75-0.13
			c-0.29-0.01-0.57-0.03-0.85-0.04c-1.14-0.05-2.15-0.24-2.95-0.57c-0.8-0.32-1.39-0.75-1.72-1.13c-0.17-0.19-0.29-0.35-0.36-0.48
			c-0.08-0.12-0.12-0.24-0.11-0.22c-0.12-0.31,0.03-0.66,0.34-0.78C314,469.34,314.35,469.5,314.47,469.8z"/>
	</g>
	<g>
		<path class="st6" d="M216.95,449.45c-0.21-0.76-1.13-1.41-1.93-1.1c-0.26,0.1-0.51,0.2-0.77,0.3c-0.84,0.32-1.41,1.09-1.15,2.03
			c0.28,1.01,1.51,1.55,2.42,0.98c0.24-0.15,0.47-0.29,0.71-0.44C216.83,450.84,217.14,450.14,216.95,449.45z"/>
	</g>
	<g>
		<path class="st7" d="M288.49,454.51c-1.14-1.44-1.53-3.3-2.64-4.74c-0.89-1.15-1.9-2.2-3.08-3.07c-1.96-1.45-5.29-3.44-7.65-1.59
			c-1.99,1.57-1.06,3.14,0.76,4.34c1.14,0.75,2.45,1.21,3.68,1.78c1.2,0.56,2.38,1.17,3.54,1.81c-1.55-0.2-3.14-0.23-4.46-0.24
			c-2.04-0.02-6.13,0.08-6.61,2.73c-1.19,6.53,14.01,2.14,16.3,0.24c0.27-0.23,0.26-0.54,0.11-0.78
			C288.57,454.9,288.63,454.69,288.49,454.51z M279.76,450.2c-1.48-0.72-7.53-3.23-3.12-4.78c2.55-0.9,5.92,2.02,7.56,3.63
			c1.62,1.59,2.05,3.96,3.53,5.58c0,0-0.01,0-0.01,0c-0.02-0.02-0.03-0.04-0.05-0.05c-0.3-0.21-0.62-0.4-0.96-0.57
			C284.43,452.68,282.15,451.36,279.76,450.2z M275.73,457.67c-1.32-0.09-3.72-1.48-1.87-2.77c1.79-1.24,4.84-0.93,6.88-0.81
			c1.81,0.11,4.4,0.22,6.09,1.18c-1.73,1.33-4.64,1.75-6.62,2.12C278.74,457.67,277.23,457.77,275.73,457.67z"/>
	</g>
	<g>
		<path class="st7" d="M329.91,450.06c-1.51-2.06-5.13-0.45-6.82,0.43c-1.32,0.69-4.34,2.48-4.65,4.38c-0.07,0-0.16,0.01-0.22,0.02
			c-0.39,0.03-0.56,0.32-0.53,0.6c-0.18,0.11-0.29,0.34-0.17,0.62c1.21,2.71,3.68,5.05,6.22,6.48c1.51,0.85,5.04,1.46,5.64-0.96
			c0.53-2.14-2.26-3.56-3.78-4.36c-1.2-0.63-2.65-1.33-4.12-1.81C325.74,454.71,332.18,453.16,329.91,450.06z M327.88,460.25
			c1,1.03-0.21,1.87-1.28,1.96c-1.27,0.11-2.56-0.77-3.55-1.45c-1.62-1.11-3.6-2.87-4.49-4.72
			C321.71,456.46,325.7,458,327.88,460.25z M319.48,454.78c1.85-2.91,9.78-7,10.11-3.53C329.81,453.51,322.67,454.47,319.48,454.78z
			"/>
	</g>
</g>
<g>
	<g>
		<path class="st8" d="M318.04,395c65.94-5.07,136.74-58.31,97.54-168.07c-21.52-60.26-112.67-72.89-175.57-46.89
			c-57.7,23.85-82.53,79.16-69.78,130.18C187.32,378.59,259.51,399.5,318.04,395z"/>
	</g>
	<g>
		<g>
			<path class="st7" d="M296.94,174.45c2.82-4.63,3.67-10.26,4.4-15.54c0.39-2.8,0.66-5.64,0.62-8.47
				c-0.14-9.62,3.51-3.68,5.28-8.09c3.04-7.57-7.66-8.63-12.57-8.7c-3.4-0.04-17.96,2.86-13.64,9.51c0.75,1.16,1.25,1.88,2.7,2.26
				c4.78,1.27,6.69,3.57,8.23,8.16c2.09,6.23,0.31,13.71-2.68,19.31c-0.35,0.65-0.09,1.65,0.63,1.95c2.01,0.82,3.6,1.23,5.77,1.19
				C296.68,176.01,297.06,175.2,296.94,174.45z"/>
		</g>
		<g>
			<path class="st9" d="M420.7,259.7c0.08-0.05,0.16-0.07,0.23-0.13c1.54-1.21,1.33-3.45,0.94-5.18c-0.41-1.83-1.33-3.89-3.13-4.72
				c-0.11-0.05-0.21-0.07-0.32-0.09c0.63-0.37,1.1-1.02,1.12-1.92c0.06-4.13-1.18-12.44-6.54-13.01c1.55-1.79,0.53-4.88-0.77-6.48
				c-1.23-1.51-3.15-3.09-5.1-3.47c0,0-0.01,0-0.02,0c-2.08-3.41-4.35-6.7-6.83-9.83c-4.01-5.06-8.05-9.6-12.1-13.67
				c0.07-1.51-0.42-3.15-0.91-4.39c-1.03-2.6-2.8-5.14-5.13-6.73c-1.98-1.34-4.94-2.12-7.27-1.16c0.02-0.21,0.04-0.41,0.03-0.62
				c-0.13-1.58-1.34-2.97-2.62-3.79c-0.78-0.5-1.53-0.92-2.47-1.05c-0.54-0.07-1.05-0.07-1.58,0.07c-0.11,0.03-0.21,0.06-0.31,0.1
				c0.67-0.25-0.11,0-0.36,0.09c-0.14,0.05-0.28,0.11-0.42,0.19c-6.55-4.28-13-7.55-19.24-10.04c-1.12-2.28-4.48-4.17-6.41-4.42
				c-1.52-0.2-3.38-0.03-4.92,0.61c-23.64-6.48-42.72-2.95-50.02-4.42c-16.9-3.4-35.88-5.01-56.04,6.45
				c-1.63-0.76-3.79-0.68-5.37-0.02c-1.5,0.62-2.67,1.72-3.44,3.14c-0.41,0.74-0.57,1.87-0.41,2.9c-0.01,0-0.01-0.01-0.02-0.01
				c-4.91-2.46-10.27,1.16-11.96,5.96c-0.37,1.05-0.35,2.49,0.7,3.2c0.21,0.14,0.43,0.28,0.65,0.41
				c-8.55,8.65-17.26,20.13-26.05,35.2c-16.79,28.77-20.55,59.38-12.89,86.51c-2.17,0.45-3.15,3.15-2.12,5.13
				c0.93,1.79,2.76,2.66,4.64,2.55c1.72,4.64,3.8,9.15,6.21,13.51c-0.49,0.96-0.6,2-0.25,3.08c0.38,1.19,1.41,1.88,2.54,2.24
				c0.29,0.09,0.61,0.1,0.92,0.07c0.04,0.07,0.09,0.14,0.13,0.21c-0.47,0.39-0.85,0.86-1.06,1.42c-0.81,2.14-0.01,4.39,1.27,6.16
				c1.34,1.85,3.44,3.42,5.73,3.82c0.78,0.14,1.62,0.08,2.41-0.13c0.01,0.01,0.03,0.03,0.04,0.05c-2.29,6.48,8.11,15.81,15.07,15.42
				c0.27,2.1,1.75,3.84,3.98,4.25c0.83,0.15,1.67-0.02,2.46-0.33c4.95,3.41,10.28,6.53,15.98,9.31c0.01,0.63,0.1,1.28,0.28,1.77
				c0.31,0.81,1.5,1.5,2.28,1.83c1.33,0.56,2.58,0.06,3.58-0.79c17.38,7.43,37.83,11.9,61.1,12.42c17.64,0.4,33.3-1.58,47.07-5.43
				c1.6,1.57,4.18,1.95,6.15,0.82c1.17-0.67,2.13-2.1,2.24-3.49c0.51-0.18,1.02-0.37,1.53-0.55c0.55,0.45,1.18,0.8,1.8,1
				c1.8,0.59,3.8,0.61,5.56-0.16c1.71-0.75,2.87-2.01,3.41-3.79c0.15-0.49,0.16-1.11,0.06-1.69
				C412.78,354.5,429.63,303.83,420.7,259.7z"/>
		</g>
		<g>
			<path class="st10" d="M204.15,342.08c25.74,25.12,60.37,36.16,95.84,37.02c26.77,0.65,53.55-3.2,78.84-12.15
				c2.42-0.86,4.87-1.77,7.3-2.74c25.19-21.08,36.94-51.69,36.86-81.91c-0.97-4.3-2.13-8.55-3.54-12.73
				c-10.69-31.55-40.37-61.55-67.28-80.16c-45.02-31.14-44.27-19.13-58.52-19.88c15.43,7.3,27.39,3.75,63.5,41.74
				c18.63,19.59,34.84,49.5,28.7,77.73c-6.74,30.95-35.61,47.51-65.56,48.46c-28.34,0.89-58.64-6.21-84.69-17.29
				c-24.48-10.41-49.45-29.5-55.81-56.76c-2.74-11.72-2.13-22.74,0.78-33.07c-7.94,15.84-12.04,32.08-12.57,47.88
				C175.03,301.85,186.76,325.11,204.15,342.08z"/>
		</g>
		<g>
			<path class="st11" d="M198.27,207.35c-22.9,22.47-22.26,53.16-16.22,65.88c6.04,12.72,28.46,22.1,28.46,22.1
				s15.23,19.12,55.27,21.94c40.04,2.81,65.04-26.51,65.04-26.51s26.61-2.95,17.64-62.2c-8.97-59.25-65.85-56.05-89.91-51.98
				C234.49,180.66,210.35,195.5,198.27,207.35z"/>
		</g>
		<g>
			<path class="st11" d="M350.55,208.57c-0.79-0.03-1.72,0.34-1.79,1.27c-0.3,3.33-0.02,7.27,1.36,10.46
				c0.49,2.13,1.24,4.19,2.73,5.82c0.88,0.96,2.8,0.46,3.24-0.71C357.94,220.54,357.85,208.87,350.55,208.57z"/>
		</g>
		<g>
			<path class="st11" d="M348.23,201.29c-0.25-0.67-0.83-1.08-1.39-1.46c-0.66-0.45-1.39-0.81-2.18-0.78
				c-0.08-0.01-0.16-0.01-0.24-0.03c-0.46-0.08-0.97,0.24-1.03,0.72c-0.01,0.12-0.02,0.23-0.02,0.35c-0.13,0.74,0.15,1.38,0.44,2.01
				c-0.12,0.89,0.46,2.01,1.31,2.29c1.07,0.35,2.58,0.19,3.02-1.08C348.36,202.65,348.48,201.98,348.23,201.29z"/>
		</g>
		<g>
			<path class="st11" d="M259.33,325.35c-0.42-1.35-1.29-2.34-2.42-3.07c-5.17-5.29-19.28-6.03-23.91-3.14
				c-4.42,2.77-1.8,8.37,1.44,10.69c4.96,3.54,12.21,4.98,18.19,4.32C257.5,333.61,260.89,330.34,259.33,325.35z"/>
		</g>
		<g>
			<path class="st11" d="M273.28,324.95c-0.22-0.71-0.76-1.33-1.37-1.72c-0.22-0.14-0.46-0.24-0.72-0.31
				c-1.13-0.65-2.44-0.98-3.75-0.78c-2.25,0.35-3.62,2.21-4.02,4.34c-0.18,0.97,0.5,1.66,1.35,1.92c2.55,0.78,6.98,1.33,8.31-1.59
				C273.5,326.3,273.52,325.58,273.28,324.95z"/>
		</g>
		<g>
			<path class="st9" d="M182.97,281.27c-0.4-0.43-0.86-0.81-1.33-1.12c-0.56-0.38-1.19-0.71-1.87-0.83
				c-0.3-0.05-0.59-0.02-0.88,0.04c-0.71-0.61-2.15-0.46-2.67,0.33c-0.02,0.04-0.04,0.07-0.06,0.11c-0.51,0.39-0.86,1-1.03,1.62
				c-0.74,2.78,0.21,5.32,2.05,6.96c1.33,1.5,3.16,2.64,5.14,3.11c1.05,0.24,2.08-0.43,2.55-1.33
				C186.64,286.77,185.48,283.32,182.97,281.27z"/>
		</g>
		<g>
			<g>
				<path class="st12" d="M373.9,361.66c-2.63-4.47-8.83-2.32-12.08-0.16c-3.78,2.51-8.63,7.26-9.22,12.02
					c-0.15,1.23,0.59,2.48,1.88,2.68c6.83,1.01,14.58-2.58,18.71-8.05c0.58-0.76,1.05-1.7,1.27-2.65
					C374.82,364.3,374.7,363.02,373.9,361.66z"/>
			</g>
			<g>
				<path class="st12" d="M383.36,359.94c0.05-0.15,0.1-0.3,0.14-0.45c0,0.01,0,0.01,0,0.02c0.38-0.98-0.35-2.04-1.43-1.96
					c-0.04,0-0.08,0.01-0.12,0.01c0.35,0.02,0.27,0.01-0.24-0.01c-0.27,0-0.53,0.09-0.78,0.17c-0.08,0.02-0.17,0.05-0.25,0.06
					c-0.54-0.01-1.07,0.13-1.58,0.45c-1.57,0.97-1.45,3.86,0.39,4.5c1.01,0.35,1.72,0.28,2.65-0.23c0.49-0.27,0.76-0.74,0.94-1.24
					C383.29,360.84,383.4,360.39,383.36,359.94z"/>
			</g>
			<g>
				<path class="st12" d="M349.59,369.88c0.35-2.02,0.14-4.13-0.75-5.87c-1.94-3.79-6.07-3.77-9.06-1.2
					c-3.79,3.26-5.31,8.36-3.75,13.12c1.38,4.23,5.85,5.54,9.34,2.93C348.11,376.81,349.4,373.35,349.59,369.88z"/>
			</g>
			<g>
				<path class="st12" d="M356.99,353.9c-1.33-0.04-2.88-0.22-4.04,0.6c-1.16,0.82-1.34,2.41-1.58,3.7
					c-0.15,0.81,0.32,1.45,0.96,1.73c0.41,0.69,1.18,1.05,2.05,0.76c1.06-0.36,2.1-0.84,2.91-1.63c0.73-0.72,1.02-1.88,1.33-2.81
					C359.05,354.96,358.32,353.93,356.99,353.9z"/>
			</g>
			<g>
				<path class="st12" d="M411.82,246.59c-1.17-1.14-2.57-2.03-4.23-2.55c-1.04-0.33-2.28,0.49-2.7,1.4
					c-3.04,6.66,0.5,17.43,7.47,20.29c1.19,0.49,2.53,0.07,3.12-1.12C417.83,259.84,416.64,249.93,411.82,246.59z"/>
			</g>
			<g>
				<path class="st12" d="M408.77,236.89c-0.1-0.2-0.21-0.4-0.32-0.6c-0.55-0.61-0.62-0.67-0.18-0.2c-0.35-0.39-0.62-0.7-1.13-0.89
					c-0.94-0.35-2.24-0.3-2.87,0.63c-0.53,0.78-0.66,1.34-0.66,2.26c0,0.91,0.74,1.78,1.52,2.16c0.03,0.01,0.05,0.02,0.07,0.03
					c0.81,0.39,1.91,0.33,2.63-0.23c0.21-0.16,0.38-0.35,0.54-0.55c-0.02,0.03-0.03,0.07-0.05,0.1
					C408.94,238.89,409.11,237.77,408.77,236.89z"/>
			</g>
			<g>
				<path class="st12" d="M399.54,336.84c-0.56-3.77-4.22-4.69-7.38-3.52c-3.19,1.19-6.41,3.82-8.46,6.49
					c-0.64,0.83-1.38,2.17-1.82,3.57c-0.38,0.75-0.71,1.52-0.93,2.29c-0.96,3.37,2.22,5.62,5.18,5.66c3.23,0.04,6.62-1.58,8.97-3.72
					C397.98,345.01,400.13,340.82,399.54,336.84z"/>
			</g>
			<g>
				<path class="st12" d="M378.9,351.14c-0.36-1.52-1.35-2.78-2.89-3.17c-0.13-0.03-0.27-0.05-0.41-0.07
					c-0.81-0.53-1.98-0.39-2.88-0.15c-2.53,0.67-3.67,3.91-2.07,5.99c1.86,2.42,5.1,1.89,7.34,0.34
					C379,353.38,379.16,352.26,378.9,351.14z"/>
			</g>
		</g>
		<g>
			<path class="st9" d="M203.76,299.14c-0.04-0.05-0.1-0.11-0.15-0.17c-1.21-2.6-4.11-4.18-7-2.46c-2.99,1.78-3.33,5.92-1,8.32
				c2.35,2.41,9.18,4.39,9.91-0.53C205.79,302.55,204.92,300.44,203.76,299.14z"/>
		</g>
		<g>
			<g>
				<path class="st13" d="M231.6,197.22c0.22-4.07-2.87-6-6.6-6.03c-2.04-0.02-4.75,0.74-6.21,2.38
					c-5.54,2.65-10.77,9.75-3.96,14.05C221.82,212.04,231.19,204.76,231.6,197.22z"/>
			</g>
			<g>
				<path class="st13" d="M229.27,183.03c-4.49-0.78-5.7,6.19-1.21,6.97C232.56,190.78,233.77,183.81,229.27,183.03z"/>
			</g>
			<g>
				<path class="st13" d="M250.16,187.08c-0.4-3.24-4.9-3.81-7.43-3.69c-2.8,0.13-5.54,1.76-7.21,3.97
					c-1.35,1.79-2.04,4.38-0.59,6.31c0.11,0.15,0.24,0.29,0.36,0.42c0.23,0.64,0.78,1.16,1.46,1.26c0.56,0.08,1.11,0.09,1.67,0.08
					c1.75,0.17,3.68-0.25,5.08-0.79c1.16-0.45,2.28-1.15,3.15-2.05C248.52,191.34,250.45,189.4,250.16,187.08z"/>
			</g>
			<g>
				<path class="st13" d="M205.1,207.55c-2.1-0.36-2.66,2.89-0.56,3.25C206.64,211.16,207.2,207.91,205.1,207.55z"/>
			</g>
			<g>
				<path class="st13" d="M247.33,199.71c-1.12-2.21-4.31-2.02-6.33-1.54c-1.27,0.3-2.5,0.74-3.58,1.35
					c-2.53,0.87-4.84,2.4-5.93,4.32c-1.07,1.88-0.14,4.31,1.72,5.21c2.11,1.03,5.06-0.12,7.05-0.91
					C242.97,207.06,249.22,203.46,247.33,199.71z"/>
			</g>
		</g>
	</g>
	<g>
		<g class="st14">
			<path class="st15" d="M310.54,167.28c9.52,2.72,28.35,19.66,61.53,52.52c54.48,53.97,54.08,33.31,36.52,4.23
				c-17.56-29.08-54.58-46.74-65.31-50.56C332.54,169.66,310.54,167.28,310.54,167.28z"/>
		</g>
		<g>
			<path class="st16" d="M302.66,139.93c-5.31,5.04,15.5,6.24,23.61,21.33c8.11,15.08,21.22,47.15,57.71,63.5
				c36.49,16.35,66.12,20.83,75.25,22c9.13,1.17-0.36-21.92-12.06-41.87c-11.7-19.95-51.19-53.64-90.61-59.18
				C317.13,140.17,302.66,139.93,302.66,139.93z"/>
		</g>
		<g>
			<path class="st4" d="M362.57,189.75c9.99,9.14,19.08,20.76,18,33.39c-23.78-11.76-37.05-30.28-45.55-45.33
				C341,171.23,357.97,185.55,362.57,189.75z"/>
		</g>
		<g>
			<path class="st3" d="M425.33,200.24c-37.35-25.39-79.2-41.03-119.72-60.18c5.96,0.33,21.49,1.51,50.95,5.65
				c39.42,5.54,78.91,39.22,90.61,59.18c4.29,7.32,8.28,15.05,11.17,21.86C448.06,217.05,437,208.17,425.33,200.24z"/>
		</g>
		<g>
			<path class="st17" d="M351.17,144.96c-0.71,0.28-1.42,0.6-2.12,0.97c-3.33,1.75-4.22,7.31-0.49,9.27
				c8.42,4.43,34.31,13.03,39.92,0.59c4.64,2.22,9.16,4.69,13.52,7.35c-1.99,0.67-3.82,1.71-5.24,3.31
				c-1.65,1.86-2.61,5.24-0.35,7.18c3.46,2.97,8.16,4.58,12.7,3.14c2.41-0.76,5.07-2.15,6.83-4.16c2.42,1.83,4.76,3.69,6.99,5.57
				c-0.17-0.01-0.34-0.02-0.51-0.03c-9.52-0.08-9.5,9.59-2.43,13.65c4.06,2.33,15.37,7.93,25.02,9.73c0.8,1.15,1.52,2.28,2.15,3.36
				c4.29,7.32,8.28,15.05,11.17,21.86c-10.27-9.69-21.33-18.57-33-26.5c-37.35-25.39-79.2-41.03-119.72-60.18
				C311.2,140.37,325.18,141.43,351.17,144.96z"/>
		</g>
		<g>
			<path class="st4" d="M383.88,212.41c2.21,3.68,10.64,16,15.79,9.03c2.76-3.74,1.41-8.11-0.77-11.78
				c-1.53-2.57-3.93-5.99-6.92-7.25c-1.35-1.24-2.83-2.19-4.3-2.72c-2.71-0.97-5.07,0.12-5.91,2.91
				C380.75,206,382.15,209.52,383.88,212.41z"/>
		</g>
		<g>
			<path class="st4" d="M406.75,220.03c1.26,2.96,5.26,4.85,8.09,2.74c2.23-1.67,2.15-4.94,0.74-7.1c-1.32-2.02-4.04-2.98-5.88-1.87
				c-1.16,0.11-2.13,0.53-2.8,1.67C406.11,216.82,406.15,218.6,406.75,220.03z"/>
		</g>
		<g>
			<path class="st4" d="M424.95,216.9c0.27-0.84,1.14-1.04,1.9-0.86c4.06,0.95,7.07,3.67,8.95,7.1c3.18,3.32,5.53,7.41,4.9,11.93
				c-0.16,1.13-1.11,1.97-2.27,1.86c-4.37-0.4-7.63-5.15-9.81-8.47C426.59,225.4,423.72,220.74,424.95,216.9z"/>
		</g>
		<g>
			<path class="st16" d="M305.16,140.15c-6.58-2.29,0.93-2.57,5.21-11.55c4.28-8.98,23.63-28.14,82.24-32.79
				c58.61-4.66,39.19,4.2,35.32,7.62c-3.88,3.42-18.44,22.43-66.34,31.41C313.7,143.82,305.16,140.15,305.16,140.15z"/>
		</g>
		<g>
			<path class="st17" d="M310.37,128.6c2.98-6.24,13.24-17.39,38.88-25.17c-5.29,3.03-12.93,8.13-11.28,14.24
				c1.56,5.8,7.76,7.14,13.04,7.53c15.07,1.11,30.71-1.76,45.1-6.01c8.8-2.6,17.9-5.84,26.19-10.33c-8.13,7.25-25.31,19.36-60.71,26
				c-47.9,8.98-56.44,5.31-56.44,5.31C298.58,137.86,306.09,137.59,310.37,128.6z"/>
		</g>
	</g>
	<g class="st5">
		<path class="st6" d="M372.81,216.42c13.72,9.61,60.49,24.76,76.53,25.89c16.04,1.13,12.31-5.61,7.56-12.65
			c-4.75-7.04-16-15.48-16-15.48s16.88,16.32-10.69,13.79c-27.57-2.53-54.59-16.32-66.4-26.45
			C351.99,191.38,347.49,198.7,372.81,216.42z"/>
	</g>
	<g>
		<path class="st6" d="M442.31,239.21c-16.05-2.47-13.22-7.32-4.22-6.47C447.09,233.59,449.62,240.34,442.31,239.21z"/>
	</g>
	<g class="st5">
		<path class="st6" d="M280.13,172.82c29.42,18.39-25.01,107.4-70.62,86.8C147.19,231.48,242.57,149.35,280.13,172.82z"/>
	</g>
	<g class="st5">
		<path class="st6" d="M405.92,348.63c-14,19.84-47.08,35.31-22.07-10.3C408.86,292.73,423.57,323.62,405.92,348.63z"/>
	</g>
	<g class="st18">
		<path class="st6" d="M402.78,351.62c-7.29,8.38-10.71,2.09-2.59-7.43C408.31,334.67,408.31,345.27,402.78,351.62z"/>
	</g>
</g>
<g>
	<g>
		<path class="st19" d="M297.08,263.61c43.18,2.86,67.6,3.78,69.72,4.86c2.13,1.09,10.64,36.84-42.21,49.58
			c-52.86,12.73-83.69-15.28-90.56-30.17c-6.87-14.89-9.09-27.13,13.33-26.17C269.77,262.65,297.08,263.61,297.08,263.61z"/>
	</g>
	<g>
		<path class="st20" d="M362.23,276.97c3.14,7.26,2.2,22.03-29.28,32.5c-31.49,10.47-75.5,2.18-90.24-16.78
			c-14.74-18.96-4.13-25.33,12.16-25.61c16.29-0.28,79.75,2.44,90.64,2.78C356.4,270.19,360.43,272.8,362.23,276.97z"/>
	</g>
	<g>
		<path class="st21" d="M297.48,266.54c35.53,1.27,56.25-1.28,53.85,5.41c-2.4,6.68,4.4,12.66-6.4,13.89
			c-10.81,1.23-63.37,3.52-76.02,3.02c-12.65-0.5-13.59-4.82-14.52-11.59c-0.94-6.77-5.94-10.57,5.31-11.76
			C270.95,264.32,297.48,266.54,297.48,266.54z"/>
	</g>
	<g>
		<path class="st22" d="M351.33,271.95c2.4-6.69-18.33-4.14-53.85-5.41c0,0-26.53-2.22-37.78-1.03c-11.25,1.19-6.25,4.99-5.31,11.76
			c0.07,0.53,0.15,1.04,0.23,1.54c30.53-12.22,62.35-3.35,92.35-0.59c1.17,0.11,2.75,0.84,4.27,1.97
			C351.04,277.84,350.25,274.97,351.33,271.95z"/>
	</g>
	<g>
		<path class="st23" d="M290.19,316.67c19.52,0.91,44.19-3.28,56.43-10.4c12.24-7.12,4.33-10.74,2.97-15.32
			c-1.36-4.58-5.68-3.64-21.45-1.75c-15.77,1.89-47.6,4.08-51.96,3.01c-4.36-1.07-8.43-2.78-15.78-2.79
			c-7.35-0.01-4.62,4.25-7.22,8.25c-2.6,3.99-0.35,8.65,13.5,13.05C280.53,315.11,290.19,316.67,290.19,316.67z"/>
	</g>
	<g>
		<path class="st23" d="M297.58,277.12c-4.49-0.79-11.45,0.04-16.17,0.37c-6.51,0.45-13.55,1-19.81,1.97
			c-0.38,0.06-0.44,0.22-0.3,0.34c-0.37,0.15-0.5,0.32-0.4,0.53c0.83,1.74,0.99,3.57,3.49,5.02c2.52,1.46,7.58,1.74,11.74,1.72
			c4.93-0.02,10.08-0.72,14.96-1.13c2.9-0.24,6.56-0.66,8.24-1.83C302.15,282.17,303.26,278.11,297.58,277.12z"/>
	</g>
	<g>
		<path class="st24" d="M296.54,295.2c-3.81-0.67-7.69-0.03-11.5,0.4c-7.57,0.85-14.9,0.95-22.44-0.08
			c-2.38-0.55-4.76,0.24-4.89,3.25c-0.15,3.46,4.88,5.09,7.33,6.14c5.44,2.32,11.72,2.76,17.54,3.1c4.34,0.25,8.64,0.59,12.85-0.8
			C301.11,305.34,304.04,296.52,296.54,295.2z"/>
	</g>
	<g>
		<path class="st24" d="M327.46,297.29c-4.28-2.64-9.98-2.28-14.92-2.37c-0.08-0.05-0.17-0.08-0.29-0.09
			c-0.24-0.01-0.51,0.02-0.76,0.06c-0.27-0.01-0.54-0.02-0.8-0.03c-0.31-0.02-0.5,0.18-0.54,0.41c-2.56,1.05-4.83,3.81-2.32,6.13
			c3.75,3.46,11.99,2.38,16.48,1.34C326.92,302.14,331.26,299.64,327.46,297.29z"/>
	</g>
	<g>
		<path class="st25" d="M361.14,256.29c-0.42-0.78-1.1-1.26-1.91-1.56c1.15-15.16-14.26-24.55-27.74-25.17
			c-7.04-0.33-13.55,2.35-18.65,7.15c-3.46,3.25-6.22,9.93-4.62,14.75c-0.06,0.28,0.05,0.59,0.41,0.77
			c2.65,1.33,6.53,0.55,9.43,0.71c5.52,0.3,11.03,0.84,16.54,1.35c5.11,0.47,10.22,1.03,15.33,1.42c1.79,0.13,7.42-0.51,9.06,1.06
			c0.01,0.18,0.09,0.35,0.26,0.48c0.06,0.04,0.12,0.09,0.18,0.14C360.21,258.12,361.71,257.38,361.14,256.29z"/>
	</g>
	<g>
		<path class="st25" d="M293.86,249.34c2.17-15.27-12.85-25.87-26.26-27.99c-15.68-2.48-35.5,6.94-32.63,24.95
			c-1.43,0.11-2.83,0.38-4.2,0.92c-1.02,0.4-0.65,1.92,0.36,2.03l0.22,0.02c0.36,0.04,0.64-0.09,0.83-0.3
			c1.05-0.39,2.14-0.62,3.25-0.73c0.39,0.55,1.27,0.44,1.55-0.1c2.26-0.05,4.58,0.2,6.76,0.31c5.24,0.25,10.48-0.18,15.73,0.25
			c11.21,0.9,22.48,0.91,33.67,2.04C293.98,250.83,294.26,249.86,293.86,249.34z"/>
	</g>
	<g>
		<path class="st23" d="M361.14,256.29c-0.42-0.78-1.1-1.26-1.91-1.56c0.58-7.67-3.07-13.85-8.56-18.18
			c-0.42,7.99-9.95,10.52-16.88,11.02c-8.74,0.62-17.57,0.31-24.76-5.13c-1.23,2.96-1.72,6.28-0.81,9
			c-0.06,0.28,0.05,0.59,0.41,0.77c2.65,1.33,6.53,0.55,9.43,0.71c5.52,0.3,11.03,0.84,16.54,1.35c5.11,0.47,10.22,1.03,15.33,1.42
			c1.79,0.13,7.42-0.51,9.06,1.06c0.01,0.18,0.09,0.35,0.26,0.48c0.06,0.04,0.12,0.09,0.18,0.14
			C360.21,258.12,361.71,257.38,361.14,256.29z"/>
	</g>
	<g>
		<path class="st23" d="M293.86,249.34c1.42-9.96-4.48-17.93-12.48-22.86c-0.39,3.65-2.56,7.13-7.13,9.7
			c-10.05,5.65-24.98,5.39-35.63,1.61c-0.87-0.31-1.83-0.75-2.83-1.29c-1.04,2.9-1.4,6.17-0.82,9.79c-1.43,0.11-2.83,0.38-4.2,0.92
			c-1.02,0.4-0.65,1.92,0.36,2.03l0.22,0.02c0.36,0.04,0.64-0.09,0.83-0.3c1.05-0.39,2.14-0.62,3.25-0.73
			c0.39,0.55,1.27,0.44,1.55-0.1c2.26-0.05,4.58,0.2,6.76,0.31c5.24,0.25,10.48-0.18,15.73,0.25c11.21,0.9,22.48,0.91,33.67,2.04
			C293.98,250.83,294.26,249.86,293.86,249.34z"/>
	</g>
	<g>
		<path class="st26" d="M272.34,247.95c3.49,0,7.08,0.11,10.51,0.86c1.96-8.97-9.57-16.64-16.26-9.08c-1.68,1.9-3.48,5.69-2.04,8.09
			C267.09,247.46,269.89,247.96,272.34,247.95z"/>
	</g>
	<g>
		<path class="st26" d="M322.02,251.03c0,0.66,0.43,1.5,1.22,1.46c5.12-0.2,10.23,1.34,15.29,1.92c0.35,0.04,0.63-0.06,0.86-0.2
			c0.46,0.22,1.16,0.02,1.29-0.65C343.02,241.19,321.97,239.03,322.02,251.03z"/>
	</g>
	<g>
		<path class="st27" d="M361.14,256.29c-0.42-0.78-1.1-1.26-1.91-1.56c1.15-15.16-14.26-24.55-27.74-25.17
			c-7.04-0.33-13.55,2.35-18.65,7.15c-3.46,3.25-6.22,9.93-4.62,14.75c-0.06,0.28,0.05,0.59,0.41,0.77
			c2.65,1.33,6.53,0.55,9.43,0.71c5.52,0.3,11.03,0.84,16.54,1.35c5.11,0.47,10.22,1.03,15.33,1.42c1.79,0.13,7.42-0.51,9.06,1.06
			c0.01,0.18,0.09,0.35,0.26,0.48c0.06,0.04,0.12,0.09,0.18,0.14C360.21,258.12,361.71,257.38,361.14,256.29z M354.84,254.18
			c-4.24-0.09-8.41-0.4-12.64-0.79c-5.87-0.54-11.74-1.11-17.61-1.59c-2.79-0.23-5.58-0.4-8.38-0.56c-2.25-0.13-4.46,0.16-6.68-0.27
			c-1.24-4.87,1.54-10.61,5.01-13.72c4.97-4.45,11.2-6.27,17.77-5.99c12.29,0.52,26.26,9.53,25.44,23.1
			C356.74,254.21,355.7,254.2,354.84,254.18z"/>
	</g>
	<g>
		<path class="st27" d="M293.86,249.34c2.17-15.27-12.85-25.87-26.26-27.99c-15.68-2.48-35.5,6.94-32.63,24.95
			c-1.43,0.11-2.83,0.38-4.2,0.92c-1.02,0.4-0.65,1.92,0.36,2.03l0.22,0.02c0.36,0.04,0.64-0.09,0.83-0.3
			c1.05-0.39,2.14-0.62,3.25-0.73c0.39,0.55,1.27,0.44,1.55-0.1c2.26-0.05,4.58,0.2,6.76,0.31c5.24,0.25,10.48-0.18,15.73,0.25
			c11.21,0.9,22.48,0.91,33.67,2.04C293.98,250.83,294.26,249.86,293.86,249.34z M258.39,247c-5.42-0.44-10.86,0.08-16.27-0.4
			c-1.75-0.16-3.54-0.33-5.31-0.35c-1.3-8.56,3.03-16.41,10.73-20.52c5.99-3.2,13.3-3.75,19.92-2.84c6.59,0.91,13.04,3.77,17.9,8.33
			c5.14,4.82,6.75,10.96,6.86,17.71C280.98,247.75,269.65,247.91,258.39,247z"/>
	</g>
	<g>
		<path class="st24" d="M271.09,240.74c0.16-1.1-0.36-2.11-1.01-2.97c-1.28-1.72-3.23-2.63-5.35-2.53
			c-1.46,0.07-2.23,1.28-2.09,2.64c0.28,2.64,3.86,6.53,6.73,5.76C271.06,243.19,271.44,242.02,271.09,240.74z"/>
	</g>
	<g>
		<path class="st24" d="M325.65,245.25c-0.15-0.21-0.3-0.4-0.45-0.57c-1.26-1.43-3.2-2.66-5.17-2.44c-1.94,0.21-2.6,2.33-1.83,3.88
			c1.19,2.42,7.78,7.4,8.83,2.46C327.27,247.42,326.64,246.23,325.65,245.25z"/>
	</g>
	<g>
		<path class="st28" d="M255.79,212.78c-1.14-2.5-6.44-1.43-8.3-0.88c-4.39,1.28-8.26,5.02-9.38,9.45
			c-0.07,0.29,0.29,0.53,0.48,0.26c0.11-0.15,0.22-0.3,0.33-0.45c0.18,0.16,0.44,0.23,0.69,0.09c1.87-1.09,3.16-2.74,5.18-3.7
			c2.08-0.98,4.21-1.1,6.44-1.2C253.23,216.26,257.12,215.69,255.79,212.78z"/>
	</g>
	<g>
		<path class="st28" d="M348.8,230.32c-1.86-4.59-8.98-12.71-14.66-8.9c-2.04,1.37,0.28,2.85,1.62,3.39
			c1.33,0.54,2.76,0.86,4.13,1.32c2.65,0.9,4.92,2.67,7.23,4.19c0.24,0.16,0.59,0.05,0.73-0.17c0.09,0.16,0.2,0.31,0.29,0.47
			C348.37,231.05,348.98,230.77,348.8,230.32z"/>
	</g>
</g>
<g>
	<g>
		<path class="st1" d="M415.91,288.57c0,0,0.05,0.25,0.14,0.72c0.11,0.51,0.3,1.31,0.59,2.34c0.28,1.03,0.69,2.29,1.19,3.73
			c0.25,0.72,0.55,1.48,0.85,2.29c0.33,0.8,0.68,1.65,1.04,2.53c0.39,0.87,0.8,1.78,1.23,2.72c0.46,0.93,0.91,1.9,1.42,2.88
			c1.01,1.96,2.15,4,3.4,6.08c0.64,1.03,1.3,2.07,1.96,3.13c0.7,1.04,1.41,2.09,2.12,3.15c0.75,1.04,1.51,2.08,2.28,3.13
			c0.73,0.99,1.62,2.1,2.43,3.15c1.67,2.11,3.27,4.12,4.97,6.13c1.67,2.01,3.36,3.95,5.01,5.82c3.31,3.73,6.5,7.13,9.3,9.98
			c2.79,2.86,5.19,5.17,6.88,6.77c0.85,0.79,1.51,1.41,1.97,1.83c0.45,0.41,0.69,0.62,0.69,0.62l0.05,0.04
			c1.13,1.02,1.22,2.77,0.2,3.9c-0.98,1.09-2.64,1.2-3.77,0.3c0,0-0.27-0.22-0.79-0.63c-0.5-0.41-1.22-1.01-2.15-1.77
			c-1.83-1.54-4.42-3.76-7.45-6.5c-3.03-2.75-6.5-6.02-10.11-9.64c-1.81-1.81-3.66-3.7-5.5-5.66c-1.84-1.93-3.73-4.02-5.52-6.04
			c-0.9-1.04-1.75-1.97-2.69-3.09c-0.89-1.07-1.77-2.13-2.65-3.19c-0.84-1.09-1.67-2.17-2.5-3.24c-0.79-1.1-1.57-2.18-2.33-3.25
			c-1.49-2.17-2.87-4.31-4.12-6.39c-0.62-1.04-1.19-2.08-1.76-3.07c-0.54-1.01-1.06-1.99-1.56-2.93c-0.47-0.96-0.92-1.88-1.34-2.76
			c-0.4-0.89-0.79-1.73-1.13-2.54c-0.68-1.62-1.24-3.05-1.67-4.27c-0.43-1.21-0.73-2.2-0.94-2.91c-0.1-0.32-0.19-0.7-0.24-0.9
			c-0.04-0.17-0.07-0.26-0.07-0.26c-0.72-2.9,1.04-5.83,3.94-6.55c2.9-0.72,5.83,1.04,6.55,3.94c0.02,0.08,0.04,0.17,0.06,0.25
			L415.91,288.57z"/>
	</g>
	<g>
		<path class="st29" d="M453.2,350.04c-4.2,2.83-1.28,9.75,0.77,13.48c2.05,3.72-2.18,6.03-5.13,7.96
			c-2.95,1.92-1.28,10.01,6.03,9.11c7.32-0.9,7.06-10.78,5.39-13.6c-1.67-2.83,0.9-6.16,7.44-2.18c6.55,3.98,39.02,14.89,43.9,1.8
			c4.88-13.09-7.7-12.32-11.81-8.34c-4.11,3.98-13.35,2.18-13.35,2.18s20.02-2.7,20.28-12.71c0.26-10.01-8.99-12.83-12.96-3.46
			c-3.98,9.37-13.6,9.5-13.6,9.5s17.67-10.18,9.37-19.76c-3.34-3.85-8.86,0.9-8.73,7.57c0.13,6.67-3.59,10.27-10.27,9.75
			C463.85,350.81,459.88,345.55,453.2,350.04z"/>
	</g>
	<g>
		<path class="st0" d="M498.91,358.97c-4.41,3.04-12.47,1.47-12.47,1.47s20.02-2.7,20.28-12.71c0.01-0.39,0-0.76-0.02-1.12
			c-0.6-0.82-1.27-1.59-1.99-2.31c-1.06-0.59-2.27-0.97-3.4-1.22c-2.75-0.61-5.15-0.56-7.42,0.88c-0.05,0.1-0.1,0.2-0.14,0.31
			c-3.98,9.37-13.6,9.5-13.6,9.5s12.55-7.24,11.51-15.25c-1.48-0.82-5.41,0.52-6.54,1.3c-1.62,1.12-3.22,2.54-4.48,4.18
			c-0.74,5.11-4.31,7.78-10.13,7.33c-0.18-0.01-0.34-0.04-0.52-0.06c6.49,4.87,11.54,11.95,11.8,18.94
			c11.79,3.28,26.62,4.91,29.79-3.6c0.51-1.36,0.82-2.57,0.97-3.64C509.81,358.54,503.8,357.2,498.91,358.97z"/>
	</g>
</g>
<g>
	<g>
		<path class="st1" d="M181.57,234.94c0,0-0.09-0.03-0.26-0.09c-0.2-0.07-0.49-0.17-0.87-0.31c-0.7-0.26-1.66-0.64-2.86-1.16
			c-1.2-0.51-2.61-1.18-4.21-1.96c-1.59-0.8-3.35-1.73-5.23-2.81c-3.76-2.15-7.99-4.87-12.31-8.04c-2.16-1.58-4.34-3.28-6.5-5.06
			c-0.54-0.45-1.07-0.9-1.61-1.35l-0.81-0.68l-0.54-0.46l-0.38-0.35c-0.08-0.07-0.37-0.36-0.56-0.57c-0.2-0.22-0.43-0.46-0.58-0.67
			c-0.34-0.43-0.65-0.88-0.93-1.39c-0.56-0.99-0.97-2.12-1.16-3.26c-0.37-2.3,0.07-4.4,0.71-6.08c0.65-1.71,1.49-3.14,2.39-4.43
			c1.8-2.58,3.8-4.65,5.79-6.54c4-3.74,7.99-6.69,11.46-9.13c3.48-2.42,6.45-4.29,8.56-5.57c1.06-0.63,1.89-1.13,2.46-1.46
			c0.59-0.34,0.9-0.52,0.9-0.52c1.32-0.76,3.01-0.3,3.77,1.02c0.73,1.27,0.33,2.89-0.88,3.68l-0.06,0.04c0,0-0.28,0.18-0.79,0.52
			c-0.53,0.36-1.3,0.88-2.28,1.54c-1.95,1.35-4.73,3.32-7.92,5.82c-3.18,2.5-6.82,5.55-10.19,9.09c-1.67,1.77-3.28,3.69-4.48,5.66
			c-0.6,0.98-1.09,1.97-1.35,2.86c-0.28,0.9-0.29,1.61-0.17,2.05c0.07,0.22,0.16,0.4,0.29,0.6c0.07,0.1,0.15,0.2,0.25,0.31
			c0.05,0.07,0.08,0.07,0.11,0.1c0.05,0.04-0.01,0.02,0.17,0.16l0.4,0.33l0.05,0.04c-0.05-0.04,0.15,0.13-0.11-0.09l0.02,0.02
			l0.1,0.07l0.2,0.15l0.81,0.59c0.54,0.39,1.07,0.79,1.6,1.18c2.15,1.54,4.29,3.01,6.4,4.36c4.22,2.71,8.3,4.97,11.85,6.71
			c1.78,0.87,3.43,1.61,4.89,2.24c1.47,0.61,2.75,1.11,3.8,1.49c1.05,0.38,1.87,0.64,2.4,0.8c0.5,0.14,0.76,0.21,0.76,0.21
			l0.12,0.03c2.87,0.81,4.55,3.8,3.74,6.67c-0.81,2.88-3.8,4.55-6.67,3.74C181.76,235,181.65,234.97,181.57,234.94z"/>
	</g>
	<g>
		<path class="st29" d="M209.5,143.03c-0.99-4.94-8.84-9.61-15.1-7.75c-6.25,1.86-11.55,11.43-11.55,11.43s-0.55-7.13,4.83-12.69
			c5.38-5.56,14.49-9.99,8.03-14.84c-6.46-4.85-19.44,7.13-20.42,16.5c-0.97,9.36-1.11,12.35-1.11,12.35s-3.56-3.03-2.56-16.62
			c0.99-13.59-11.6-12.95-12.75-1.68c-1.16,11.27,4.54,20.81,4.54,20.81s-2.57,18.05,3.88,22.9c6.46,4.85,8.85,1.54,8.85,1.54
			s3.14,8.14,9.05,5.86c5.91-2.28,4.76-9.54,15.38-10.52c10.63-0.98,12.11-7.6,10.51-9.37c-1.6-1.77-4.61-4.82-9.07-1.64
			c-0.2,0.14-0.39,0.26-0.58,0.37c-0.91,1.48-2.4,2.74-3.89,3.56c-2.76,1.51-8.68,1.9-9.24-2.3c-0.87-2.38-2.17-7.66,1.57-11.26
			c9.23-8.88,10.52,0.16,12.16,3.93c1.64,3.77,6.48,5.39,10.98,0.9C217.51,150.02,210.48,147.97,209.5,143.03z"/>
	</g>
	<g>
		<path class="st30" d="M168.26,162.59c1.69-1.55,4.32-1.9,6.72-1.1c2.3,0.77,3.44,2.95,4.17,5.25c2.36-1.98,5.09-3.27,8.41-3.14
			c0.81,0.03,1.58-0.02,2.32-0.14c-0.82-0.53-1.42-1.34-1.57-2.53c-0.87-2.38-2.17-7.66,1.57-11.26c3.28-3.16,5.56-4.04,7.2-3.71
			c-1.64-3.51-3.67-6.32-6.79-8.38c-4.29,3.46-7.43,9.11-7.43,9.11s-0.43-5.85,3.48-11.08c-0.4-0.15-0.81-0.29-1.24-0.43
			c-2.84-0.88-6.22-1.48-9.47-1.3c-0.15,0.6-0.26,1.2-0.32,1.78c-0.97,9.36-1.11,12.35-1.11,12.35s-2.96-2.56-2.71-13.39
			c-1.97,0.65-3.74,1.73-5.15,3.4c-2.66,3.17-3.66,7.38-3.4,11.6c0.3,0.58,0.49,0.9,0.49,0.9s-0.09,0.62-0.19,1.66
			C163.94,156.1,165.71,159.85,168.26,162.59z"/>
	</g>
	<g>
		<path class="st31" d="M205.89,157.91c-4.67-0.23-6.73,4.68-11.02,5.72c-3.35,0.82-14.39-2.46-16.08,2.57
			c-1.02-2.68-3.27-4.81-6.21-5.31c-1.97-0.34-4.53,0.14-4.36,2.57c0.02,0.22,0.33,0.22,0.34,0c0.12-3.21,4.26-2.02,5.86-1.28
			c2.34,1.09,3.79,3.57,4.17,6.02c0.07,0.42,0.7,0.29,0.71-0.1c0.17-6.11,11.31-3.14,14.84-3.38c2.71-0.19,4.72-1.84,6.63-3.6
			c1.76-1.62,3.36-2.55,5.83-2.14c2.04,0.34,3.86,1.83,4.48,3.79c0.03,0.09,0.16,0.07,0.16-0.02
			C211.4,160.17,208.27,158.02,205.89,157.91z"/>
	</g>
	<g>
		<path class="st31" d="M185.46,147.58c-2.71-1.61-6.54-1.53-9.56-1.07c-2.83,0.43-7.48,0.87-9.52,3.11
			c-0.16,0.18-0.01,0.54,0.26,0.44c2.56-0.96,4.93-1.89,7.62-2.45c3.89-0.8,7.2-0.21,11.03,0.37
			C185.53,148.02,185.7,147.72,185.46,147.58z"/>
	</g>
</g>
</svg>
