<?xml version="1.0" encoding="utf-8"?>
<!-- Generator: Adobe Illustrator 23.0.3, SVG Export Plug-In . SVG Version: 6.00 Build 0)  -->
<svg version="1.1" id="Layer_4" xmlns="http://www.w3.org/2000/svg" xmlns:xlink="http://www.w3.org/1999/xlink" x="0px" y="0px"
	 viewBox="0 0 600 600" style="enable-background:new 0 0 600 600;" xml:space="preserve">
<style type="text/css">
	.st0{fill:#CEE591;}
	.st1{fill:#C1D194;}
	.st2{fill:#D0E291;}
	.st3{opacity:0.3;fill:#FAFAFA;}
	.st4{fill:#FAFAFA;}
	.st5{fill:#FFC931;}
	.st6{fill:#6F8738;}
	.st7{fill:#FB852F;}
	.st8{fill:#F77023;}
	.st9{fill:#FFB32F;}
	.st10{fill:#F06520;}
	.st11{fill:#FFC543;}
	.st12{opacity:0.3;fill:#FFF6E6;}
	.st13{opacity:0.6;fill:#FFF6E6;}
	.st14{fill:#90B83A;}
	.st15{fill:#ACD244;}
	.st16{fill:#89AB29;}
	.st17{fill:#859F26;}
	.st18{fill:#FFF6E6;}
	.st19{opacity:0.2;fill:#8C5518;}
	.st20{fill:#98BA3C;}
	.st21{fill:#8CB238;}
	.st22{fill:#7BA529;}
	.st23{opacity:0.4;fill:#AFE24D;}
	.st24{fill:#AFE24D;}
	.st25{fill:#CFE3A3;}
	.st26{fill:#A8C63E;}
	.st27{fill:#8DB52A;}
	.st28{fill:#D65B56;}
	.st29{fill:#AD3225;}
	.st30{fill:#9B1A10;}
	.st31{fill:#F1F2F2;}
	.st32{fill:#E6E7E8;}
	.st33{fill:#E27B0C;}
	.st34{fill:#8C5C38;}
	.st35{fill:#8DC63F;}
	.st36{fill:#FFFFFF;}
	.st37{fill:#D1D3D4;}
	.st38{fill:#E0E0E0;}
	.st39{fill:#CE2D25;}
	.st40{fill:#E53833;}
	.st41{fill:#C4221E;}
	.st42{fill:#EF9B20;}
	.st43{fill:#EF6F6F;}
</style>
<path class="st0" d="M208.99,271.99c0,0-0.05,0.15-0.14,0.44c-0.08,0.24-0.2,0.56-0.35,0.93c-0.31,0.75-0.77,1.75-1.45,2.91
	c-1.34,2.32-3.55,5.31-6.68,8.2c-3.12,2.9-7.15,5.69-11.69,7.96c-2.27,1.15-4.67,2.16-7.13,3.06c-2.46,0.89-5,1.7-7.53,2.32
	c-1.24,0.3-2.69,0.64-3.96,0.86c-1.31,0.25-2.62,0.44-3.93,0.6c-2.61,0.31-5.2,0.45-7.69,0.44c-4.99-0.02-9.61-0.66-13.47-1.54
	c-3.87-0.87-6.99-1.97-9.15-2.85c-2.16-0.88-3.35-1.55-3.44-1.59c-1.35-0.7-1.88-2.37-1.18-3.72c0.7-1.35,2.37-1.88,3.72-1.18
	c-0.09-0.04,0.95,0.45,2.9,1.1c1.95,0.65,4.83,1.45,8.34,2c3.51,0.55,7.67,0.85,12.08,0.57c2.2-0.14,4.47-0.41,6.73-0.84
	c1.13-0.21,2.27-0.45,3.4-0.75c1.17-0.29,2.15-0.59,3.33-0.95c2.29-0.73,4.49-1.6,6.62-2.52c2.12-0.93,4.14-1.95,6-3.05
	c3.73-2.19,6.82-4.68,9.05-7.05c2.25-2.37,3.63-4.61,4.38-6.13c0.38-0.76,0.6-1.35,0.71-1.7c0.06-0.18,0.09-0.29,0.1-0.33
	c0.02-0.05-0.02,0.03-0.01,0.03c0.01-0.02,0.01-0.04,0.01-0.04l0-0.01c0.67-2.91,3.57-4.73,6.48-4.06c2.91,0.67,4.73,3.57,4.06,6.48
	C209.07,271.72,209.03,271.86,208.99,271.99z"/>
<g>
	<path class="st1" d="M333.96,375.64c4.14,6.28,8.77,12.64,13.73,18.45c2.76,3.36,5.6,6.62,8.49,9.71c2.88,3.12,5.83,6.07,8.8,8.84
		c2.96,2.83,5.98,5.31,8.96,7.72c1.5,1.1,2.99,2.32,4.47,3.3c0.74,0.5,1.48,1.07,2.21,1.53l2.19,1.39c0.77,0.53,1.51,0.87,2.26,1.31
		c0.75,0.42,1.5,0.89,2.23,1.18l1.91,0.96c0.63,0.33,1.23,0.52,1.84,0.8c1.24,0.6,2.37,0.91,3.51,1.35l0.43,0.16l0.4,0.1l0.8,0.21
		l0.8,0.24l0.4,0.13c0.13,0.03,0.25,0.04,0.37,0.06c0.49,0.08,0.98,0.18,1.47,0.3c0.25,0.07,0.49,0.12,0.71,0.12l0.34,0.03
		l0.08,0.01h-0.02l-0.04,0l-0.18,0.01l-0.09,0.01c-0.03,0,0.01,0,0.01,0.01l0.13,0.03c0.09,0.02,0.18,0.04,0.28,0.04
		c0.19,0,0.37-0.05,0.57-0.11c0.18-0.08,0.35-0.21,0.49-0.36c0.08-0.08,0.11-0.16,0.21-0.26c-0.01,0.04,0.14-0.27,0.25-0.47
		l0.33-0.74c0.22-0.51,0.45-1.05,0.67-1.64c1.83-4.71,3.36-11.44,4.28-18.69c0.43-3.43,1.68-6.19,2.92-6
		c1.2,0.19,1.94,3.14,1.59,6.52c-0.79,7.51-2.2,14.6-4.07,19.9c-0.23,0.67-0.47,1.28-0.7,1.88l-0.35,0.87
		c-0.12,0.25-0.27,0.6-0.29,0.64c-0.19,0.39-0.33,0.76-0.54,1.12c-0.42,0.71-0.93,1.39-1.59,1.92c-0.66,0.52-1.42,0.93-2.25,1.14
		c-0.41,0.11-0.84,0.17-1.27,0.18l-0.64,0.02c-0.13,0.01-0.17,0-0.2,0l-0.12-0.01l-0.56-0.03c-0.28,0-0.57-0.05-0.87-0.12
		c-0.59-0.11-1.19-0.21-1.79-0.29c-0.3-0.02-0.61-0.1-0.92-0.19l-0.95-0.24l-0.95-0.22l-0.48-0.11l-0.5-0.17
		c-1.33-0.46-2.65-0.79-4.05-1.42c-0.7-0.29-1.38-0.5-2.1-0.84c-0.71-0.33-1.43-0.66-2-1.29c-0.83-0.28-1.68-0.72-2.54-1.11
		c-0.85-0.41-1.71-0.73-2.58-1.22l-2.41-1.43c-0.81-0.47-1.61-1.05-2.42-1.57c-1.63-1-3.24-2.24-4.87-3.37
		c-3.23-2.45-6.49-4.99-9.66-7.86c-3.19-2.82-6.34-5.81-9.42-8.97c-3.09-3.13-6.12-6.43-8.91-9.96
		c-5.32-5.84-10.44-12.12-15.13-18.42c-2.03-2.76-1.88-6.15,0.44-7.07c1.8-1.76,4.71-0.97,6.65,1.68
		C333.8,375.42,333.88,375.54,333.96,375.64z"/>
	<path class="st2" d="M406.42,381.83c0,0-0.09-1.05,0.46-2.12c0.55-1.08,1.73-2.19,4.31-2.36c5.16-0.39,2.97,3.89,10.85,0.47
		c3.93-1.73,9.45-3.44,15.97-4.32c6.52-0.87,14.09-0.89,22.08,1.3c7.99,2.16,15.51,9.81,20.09,19.29c2.29,4.72,3.85,9.89,4.45,14.87
		c0.61,4.98,0.25,9.78-1.13,13.62c-2.84,7.81-5.55,10.75-7.81,10.46c-2.29-0.27-4.26-3.68-6.66-8.15c-2.38-4.49-5.23-10.03-8.84-15
		c-3.61-4.99-7.96-9.41-13.06-11.99c-5.11-2.58-9.84-2.75-14.06-1.8c-4.21,0.97-7.92,3.08-11.04,5.33
		c-3.12,2.26-5.65,4.68-7.42,6.48c-1.77,1.81-2.78,3.04-2.78,3.04l-4.62,0.29c0,0,0.11-1.73,0.18-4.41
		c0.08-2.67,0.09-6.33-0.01-10.04c-0.11-3.71-0.33-7.47-0.55-10.28C406.62,383.68,406.42,381.83,406.42,381.83z"/>
	<path class="st3" d="M472.36,424.93c0.81,4.51,2.51,6.17,4.8,5.69c1.91-0.37,4.92-4.38,5.13-10.01c0.01-0.17-0.03-0.28-0.04-0.42
		c0.65-2.54-0.26-5.29-1.25-4.57c-2.37,1.72-4.87,4.81-7.25,4.68C472.78,420.24,472,423.03,472.36,424.93z"/>
	<g>
		<path class="st1" d="M485.66,417.85c0-0.02,0.03-0.2,0.11-0.7c0.07-0.51,0.17-1.28,0.26-2.2c0.09-0.94,0.14-2.07,0.18-3.42
			c0-1.31,0-2.85-0.11-4.48c-0.21-3.28-0.79-7.01-1.83-10.71c-0.23-1-0.57-1.77-0.88-2.69c-0.33-0.86-0.64-1.84-1.02-2.67
			c-0.38-0.81-0.77-1.66-1.2-2.47c-0.41-0.85-0.85-1.66-1.33-2.34c-0.94-1.43-1.92-3.04-3.02-4.14c-1.08-1.23-2.21-2.54-3.4-3.45
			c-2.37-2.18-4.93-3.68-7.58-4.96c-1.33-0.53-2.67-1.07-4.04-1.62c-1.36-0.3-2.74-0.6-4.13-0.91c-1.4-0.36-2.8-0.42-4.16-0.57
			c-1.38-0.14-2.76-0.3-4.16-0.29c-2.8-0.14-5.55,0.09-8.26,0.42c-2.7,0.4-5.35,0.85-7.87,1.7c-2.53,0.75-4.94,1.79-7.17,3.01
			c-2.24,1.17-4.3,2.61-6.22,3.21c-0.96,0.22-1.89,0.34-2.78,0.03c-0.22-0.06-0.44-0.13-0.66-0.19c-0.24-0.08-0.47-0.15-0.7-0.23
			c-0.44-0.14-0.88-0.28-1.29-0.42c-0.83-0.3-1.68-0.23-2.42-0.35c-0.75,0-1.43,0.11-2.04,0.21c-1.21,0.39-2.16,0.86-2.75,1.44
			c-0.31,0.24-0.53,0.52-0.68,0.69c-0.15,0.18-0.25,0.34-0.24,0.33c-0.19,0.33-0.2,0.91,0,1.29c0.19,0.38,0.51,0.43,0.71,0.09
			c-0.01,0.03,0.17-0.32,0.7-0.8c0.5-0.53,1.35-1.01,2.47-1.36c0.57-0.09,1.21-0.19,1.9-0.19c0.35,0.05,0.71,0.1,1.08,0.16
			c0.38,0.05,0.76,0.08,1.18,0.28c0.83,0.31,1.72,0.64,2.66,0.99c0.98,0.42,2.04,0.39,3.1,0.23c2.12-0.49,4.21-1.76,6.45-2.72
			c2.23-1,4.62-1.83,7.13-2.3c2.5-0.54,5.13-0.7,7.79-0.73c2.68,0.03,5.41,0.26,8.13,0.68c1.35,0.14,2.74,0.47,4.11,0.75
			c1.39,0.32,2.73,0.52,4.06,1.02c1.33,0.44,2.65,0.87,3.96,1.3c1.29,0.61,2.56,1.22,3.82,1.81c0.63,0.26,1.24,0.64,1.84,1.07
			c0.6,0.41,1.19,0.81,1.78,1.21c1.19,0.69,2.29,1.78,3.37,2.74c1.1,0.88,2.08,2.12,3.04,3.27c0.98,1.06,1.81,2.5,2.64,3.71
			c0.43,0.59,0.8,1.28,1.15,2c0.35,0.71,0.71,1.35,1.06,2.01c0.63,1.41,1.21,2.84,1.71,4.22c0.46,1.45,0.93,2.8,1.22,4.23
			c0.37,1.34,0.58,2.73,0.79,3.99c0.38,2.53,0.53,4.74,0.56,6.27c0.06,1.53,0.01,2.3,0.01,2.36c-0.01,0.75,0.22,1.24,0.52,1.08
			C485.38,418.67,485.56,418.29,485.66,417.85z"/>
	</g>
	<path class="st4" d="M475.9,426.95c-0.08,1.81,0.43,3.5,1.27,2.87l0.8-0.6c0.86-0.64,1.67-2.43,1.75-4.68
		c0.1-2.43-0.86-3.82-1.82-2.61l-0.76,0.95C476.48,423.69,475.99,425.29,475.9,426.95z"/>
	<path class="st1" d="M414.23,408.3c-0.1-0.41-0.07-0.92,0.2-1.27c1.15-1.46,5.19-3.85,8.73-4.59c3.52-0.74,6.66,0.39,5.66,6.22
		c-0.86,4.7-4.54,4.4-6.32,4.17c-1.16-0.15-2.56-0.36-3.89-0.85c0.91,1.18,1.81,2.31,2.75,3.39c0.94,1.09,2,2.04,2.8,3.45
		c1.29,2.26,1.62,5.12-0.67,7.28c-1.36,1.25-2.57,0.88-3.6-0.08c-1.02-0.96-1.89-2.53-2.53-3.81c-0.77-1.54-1.36-3.31-1.87-5.25
		c-0.63-2.4-0.61-5.43-1.4-7.87C414,408.79,414.09,408.46,414.23,408.3z M415.59,410.05c-0.27-0.3-0.53-0.63-0.76-1.01
		c-0.02-0.03-0.02-0.06-0.03-0.08l-0.01,0c1.06,2.79,0.96,6.65,1.97,9.37c1.07,2.76,3.01,7.91,5.52,7c2.18-0.83,2.17-2.61,1.42-4.29
		c-0.73-1.69-2.19-3.28-2.75-3.96C419.13,414.87,417.38,412.45,415.59,410.05z M421.82,404.86c-1.81,0.51-4.42,1.08-6.14,3.13
		c1.36,1.71,3.62,2.13,5.21,2.48c1.79,0.38,4.43,1.22,6.22-0.81c1.84-2.13-0.11-4.8-1.27-5.02
		C424.51,404.38,423.16,404.47,421.82,404.86z"/>
</g>
<g>
	<g>
		<path class="st5" d="M281.25,404.89c64.12,16.19,148.19-11.74,145.97-128.27c-1.22-63.98-83.6-104.97-151.51-100.35
			c-62.29,4.24-103.44,48.76-107.59,101.19C162.56,347.73,224.34,390.53,281.25,404.89z"/>
		<path class="st6" d="M323.63,187.5c1.11,1.87,2.29,3,4.05,4.28c0.63,0.46,1.61,0.15,1.98-0.49c3.18-5.49,8.59-10.95,14.99-12.46
			c4.72-1.11,7.67-0.7,11.28,2.69c1.09,1.03,1.96,1.07,3.34,1.1c7.92,0.16,2.72-13.74,0.89-16.6c-2.65-4.14-9.19-12.67-14.02-6.1
			c-2.81,3.83,4.16,3.8-4.09,8.75c-2.42,1.46-4.7,3.19-6.87,4.99c-4.1,3.4-8.44,7.1-10.89,11.93
			C323.59,185.89,323.11,186.64,323.63,187.5z"/>
		<path class="st7" d="M421.65,309.32c0.09-0.02,0.17-0.02,0.26-0.05c1.84-0.66,2.36-2.85,2.54-4.61c0.2-1.86-0.03-4.12-1.47-5.47
			c-0.09-0.08-0.18-0.13-0.27-0.19c0.71-0.15,1.37-0.61,1.67-1.46c1.37-3.9,2.85-12.17-2.05-14.41c2.04-1.2,2.06-4.46,1.33-6.39
			c-0.68-1.82-2.01-3.93-3.73-4.91c0,0-0.01,0-0.02-0.01c-0.88-3.9-1.99-7.74-3.34-11.49c-2.19-6.08-4.58-11.66-7.12-16.81
			c0.54-1.41,0.61-3.12,0.54-4.45c-0.15-2.79-1.02-5.77-2.72-8.01c-1.45-1.9-4-3.59-6.52-3.42c0.08-0.19,0.17-0.38,0.22-0.58
			c0.38-1.54-0.33-3.24-1.28-4.42c-0.58-0.72-1.16-1.36-2-1.78c-0.49-0.24-0.98-0.4-1.52-0.44c-0.11-0.01-0.22-0.01-0.32-0.01
			c0.71-0.03-0.1-0.03-0.37-0.03c-0.15,0-0.3,0.02-0.45,0.04c-4.85-6.14-9.92-11.3-15.04-15.64c-0.34-2.52-2.92-5.38-4.66-6.23
			c-1.38-0.68-3.2-1.11-4.86-0.98c-20.35-13.67-39.55-16.4-46.01-20.12c-14.94-8.6-32.42-16.17-55.18-11.73
			c-1.31-1.24-3.38-1.85-5.08-1.73c-1.62,0.11-3.08,0.78-4.26,1.88c-0.62,0.58-1.14,1.59-1.31,2.62c0-0.01-0.01-0.01-0.02-0.02
			c-3.87-3.9-10.1-2.17-13.24,1.84c-0.69,0.88-1.13,2.25-0.36,3.25c0.16,0.21,0.32,0.4,0.49,0.6c-10.86,5.48-22.77,13.58-35.9,25.07
			c-25.08,21.93-38.39,49.75-39.76,77.9c-2.2-0.27-3.99,1.99-3.64,4.19c0.32,1.99,1.78,3.4,3.59,3.89
			c0.16,4.94,0.69,9.88,1.59,14.79c-0.77,0.76-1.2,1.71-1.22,2.84c-0.02,1.25,0.73,2.24,1.69,2.93c0.25,0.18,0.55,0.29,0.85,0.36
			c0.02,0.08,0.04,0.16,0.06,0.24c-0.57,0.22-1.08,0.54-1.46,1.01c-1.45,1.77-1.41,4.15-0.75,6.24c0.68,2.19,2.17,4.34,4.21,5.44
			c0.69,0.38,1.51,0.6,2.32,0.64c0.01,0.02,0.02,0.04,0.02,0.06c-4.24,5.42,2.65,17.57,9.38,19.41c-0.41,2.07,0.44,4.2,2.42,5.3
			c0.74,0.41,1.59,0.51,2.44,0.48c3.61,4.81,7.67,9.46,12.18,13.92c-0.19,0.6-0.31,1.25-0.29,1.76c0.03,0.87,0.95,1.9,1.58,2.46
			c1.09,0.95,2.43,0.88,3.64,0.39c14.11,12.58,32.08,23.32,53.97,31.23c16.6,5.99,32.07,9.11,46.35,9.84c1.01,2,3.34,3.18,5.57,2.74
			c1.32-0.26,2.68-1.32,3.23-2.59c0.54-0.01,1.09-0.02,1.62-0.04c0.38,0.6,0.87,1.14,1.39,1.52c1.52,1.13,3.41,1.79,5.33,1.62
			c1.86-0.17,3.36-0.99,4.44-2.51c0.3-0.42,0.5-1,0.59-1.58C383.95,396.67,416.07,354,421.65,309.32z"/>
		<path class="st8" d="M190.14,318.48c16.4,32,45.72,53.49,79.07,65.6c25.17,9.14,51.78,14.02,78.61,13.58
			c2.57-0.04,5.18-0.13,7.8-0.27c30.58-11.96,51.48-37.24,61.02-65.91c0.45-4.39,0.71-8.79,0.7-13.19
			c-0.09-33.31-18.67-71.2-38.25-97.41c-32.76-43.85-35.87-32.23-49.15-37.48c12.3,11.84,24.77,12.27,46.91,59.78
			c11.42,24.51,17.27,58.02,2.46,82.82c-16.24,27.2-48.88,33.7-77.58,25.07c-27.15-8.18-53.61-24.56-74.77-43.35
			c-19.89-17.66-37.49-43.71-34.83-71.57c1.14-11.98,5.22-22.23,11.27-31.1c-12.57,12.49-21.63,26.58-27.16,41.38
			C175.34,271.06,179.06,296.85,190.14,318.48z"/>
		<path class="st9" d="M227.46,188.88c-28.87,14.01-38.02,43.3-36.35,57.29c1.68,13.98,19.94,30.01,19.94,30.01
			s8.35,22.98,45.41,38.4c37.06,15.42,70.1-4.43,70.1-4.43s26.17,5.68,36.52-53.35c10.36-59.02-44.57-74.1-68.68-77.9
			C270.29,175.11,242.68,181.49,227.46,188.88z"/>
		<path class="st9" d="M371.42,238.52c-0.74-0.28-1.74-0.22-2.1,0.63c-1.34,3.06-2.33,6.88-2.04,10.35
			c-0.22,2.17-0.16,4.37,0.74,6.39c0.53,1.19,2.51,1.33,3.3,0.36C374.62,252.22,378.25,241.12,371.42,238.52z"/>
		<path class="st9" d="M371.54,230.88c-0.03-0.72-0.44-1.28-0.85-1.83c-0.48-0.63-1.06-1.21-1.82-1.43
			c-0.07-0.03-0.14-0.06-0.21-0.1c-0.41-0.22-0.99-0.08-1.2,0.36c-0.05,0.1-0.09,0.21-0.13,0.32c-0.35,0.66-0.3,1.36-0.22,2.04
			c-0.4,0.8-0.21,2.06,0.51,2.59c0.9,0.67,2.39,1,3.2-0.07C371.24,232.21,371.57,231.61,371.54,230.88z"/>
		<path class="st9" d="M247.77,320.18c0.03-1.41-0.48-2.63-1.31-3.68c-3.22-6.66-16.36-11.86-21.67-10.59
			c-5.07,1.21-4.38,7.36-2.04,10.59c3.58,4.93,9.99,8.61,15.87,9.89C243.41,327.43,247.66,325.41,247.77,320.18z"/>
		<path class="st9" d="M261.13,324.24c0.02-0.74-0.29-1.5-0.75-2.07c-0.16-0.2-0.36-0.37-0.58-0.52c-0.86-0.98-2-1.7-3.31-1.93
			c-2.25-0.38-4.14,0.94-5.2,2.83c-0.48,0.87-0.06,1.73,0.67,2.25c2.17,1.55,6.19,3.48,8.39,1.14
			C260.9,325.6,261.16,324.92,261.13,324.24z"/>
		<path class="st7" d="M189.42,254.08c-0.25-0.53-0.55-1.04-0.9-1.49c-0.41-0.54-0.9-1.05-1.51-1.38c-0.26-0.14-0.55-0.21-0.85-0.24
			c-0.48-0.81-1.89-1.12-2.63-0.54c-0.03,0.03-0.06,0.06-0.1,0.09c-0.61,0.21-1.14,0.67-1.49,1.21c-1.59,2.4-1.5,5.11-0.27,7.25
			c0.78,1.85,2.16,3.51,3.88,4.58c0.92,0.56,2.11,0.26,2.84-0.45C191.15,260.46,191.15,256.83,189.42,254.08z"/>
		<g>
			<path class="st10" d="M344.82,391.08c-1.08-5.07-7.63-5.01-11.4-4c-4.38,1.18-10.5,4.14-12.56,8.46
				c-0.53,1.12-0.23,2.54,0.94,3.14c6.16,3.13,14.64,2.2,20.3-1.68c0.79-0.54,1.53-1.28,2.05-2.11
				C344.85,393.87,345.14,392.62,344.82,391.08z"/>
			<path class="st10" d="M354.33,392.46c0.1-0.13,0.19-0.25,0.27-0.38c-0.01,0.01,0,0.01-0.01,0.02c0.67-0.81,0.32-2.05-0.73-2.31
				c-0.04-0.01-0.08-0.02-0.12-0.03c0.33,0.13,0.25,0.1-0.23-0.08c-0.26-0.08-0.53-0.08-0.8-0.09c-0.09-0.01-0.17-0.01-0.25-0.02
				c-0.51-0.18-1.06-0.22-1.64-0.08c-1.8,0.43-2.61,3.2-1.06,4.39c0.84,0.66,1.54,0.81,2.59,0.62c0.54-0.1,0.95-0.46,1.29-0.88
				C353.99,393.29,354.22,392.9,354.33,392.46z"/>
			<path class="st10" d="M319.15,391.13c0.97-1.8,1.45-3.87,1.16-5.81c-0.63-4.21-4.55-5.51-8.21-4.02
				c-4.63,1.89-7.69,6.24-7.73,11.25c-0.04,4.44,3.78,7.12,7.92,5.75C315.54,397.23,317.87,394.36,319.15,391.13z"/>
			<path class="st10" d="M331.26,378.33c-1.25-0.46-2.66-1.12-4.02-0.71c-1.36,0.41-2.04,1.86-2.67,3c-0.4,0.72-0.16,1.48,0.36,1.94
				c0.17,0.78,0.79,1.38,1.7,1.37c1.12-0.01,2.26-0.13,3.28-0.62c0.92-0.45,1.56-1.45,2.16-2.24
				C332.88,380,332.51,378.79,331.26,378.33z"/>
			<path class="st10" d="M417.41,294.07c-0.74-1.45-1.78-2.75-3.19-3.77c-0.88-0.64-2.32-0.26-3.01,0.47
				c-5,5.34-5.07,16.68,0.62,21.61c0.98,0.84,2.38,0.87,3.31-0.07C418.89,308.54,420.91,298.77,417.41,294.07z"/>
			<path class="st10" d="M417.6,283.9c-0.03-0.22-0.07-0.45-0.11-0.67c-0.33-0.75-0.37-0.83-0.11-0.25
				c-0.21-0.48-0.37-0.86-0.79-1.2c-0.78-0.63-2.03-1-2.92-0.32c-0.75,0.57-1.05,1.06-1.34,1.94c-0.29,0.86,0.13,1.93,0.75,2.53
				c0.02,0.02,0.04,0.04,0.06,0.05c0.65,0.63,1.7,0.92,2.57,0.62c0.25-0.09,0.47-0.21,0.68-0.35c-0.03,0.03-0.05,0.06-0.08,0.08
				C417.13,285.85,417.64,284.84,417.6,283.9z"/>
			<path class="st10" d="M377.03,375.71c0.67-3.75-2.51-5.79-5.88-5.68c-3.4,0.11-7.29,1.58-10.08,3.46c-0.88,0.58-2,1.62-2.86,2.81
				c-0.6,0.59-1.15,1.21-1.61,1.88c-1.99,2.89,0.31,6.04,3.11,7.02c3.05,1.07,6.78,0.61,9.68-0.67
				C372.95,382.96,376.32,379.67,377.03,375.71z"/>
			<path class="st10" d="M352.91,382.69c0.15-1.56-0.39-3.06-1.73-3.92c-0.12-0.08-0.24-0.14-0.37-0.2c-0.6-0.76-1.75-1-2.68-1.06
				c-2.61-0.17-4.72,2.54-3.87,5.02c1,2.89,4.24,3.41,6.85,2.66C352.3,384.85,352.8,383.84,352.91,382.69z"/>
		</g>
		<path class="st7" d="M203.44,277.65c-0.02-0.06-0.06-0.14-0.09-0.21c-0.32-2.85-2.57-5.27-5.85-4.56c-3.4,0.74-5.04,4.56-3.6,7.57
			c1.46,3.03,7.3,7.08,9.56,2.66C204.27,281.52,204.12,279.24,203.44,277.65z"/>
		<g>
			<path class="st11" d="M262.28,189.89c1.5-3.79-0.81-6.6-4.34-7.82c-1.93-0.66-4.74-0.81-6.65,0.28
				c-6.1,0.75-13.31,5.82-8.23,12.06C248.29,200.82,259.49,196.91,262.28,189.89z"/>
			<path class="st11" d="M264.59,175.7c-4.01-2.17-7.38,4.05-3.37,6.22C265.24,184.09,268.6,177.86,264.59,175.7z"/>
			<path class="st11" d="M283.1,186.19c0.65-3.2-3.43-5.17-5.87-5.86c-2.69-0.77-5.81-0.1-8.1,1.47c-1.85,1.27-3.33,3.5-2.57,5.79
				c0.06,0.18,0.13,0.35,0.21,0.51c0.01,0.68,0.37,1.35,0.98,1.66c0.5,0.25,1.03,0.44,1.56,0.6c1.6,0.72,3.56,0.93,5.07,0.87
				c1.25-0.05,2.53-0.37,3.64-0.94C280.19,189.7,282.64,188.47,283.1,186.19z"/>
			<path class="st11" d="M233.88,191.24c-1.87-1.01-3.44,1.89-1.57,2.9C234.18,195.16,235.74,192.26,233.88,191.24z"/>
			<path class="st11" d="M276.39,197.26c-0.36-2.45-3.44-3.29-5.51-3.48c-1.3-0.12-2.61-0.1-3.83,0.14c-2.67,0.02-5.35,0.73-7,2.2
				c-1.61,1.44-1.5,4.04-0.03,5.49c1.67,1.65,4.83,1.5,6.98,1.39C269.93,202.84,277,201.41,276.39,197.26z"/>
		</g>
		<path class="st12" d="M316.06,182.22c22.04,26.8-57.9,93.85-94.58,59.8C171.36,195.49,287.92,148,316.06,182.22z"/>
		<path class="st12" d="M379.32,388.92c-19.59,14.35-55.87,18.48-17.64-16.79C399.91,336.86,404.02,370.83,379.32,388.92z"/>
		<path class="st13" d="M375.4,390.76c-9.58,5.62-10.81-1.43-0.09-7.87C386.04,376.45,382.66,386.49,375.4,390.76z"/>
	</g>
	<g>
		<path class="st14" d="M360.55,179.72c-1.8,3.54,9.05,0.38,15.93,6.62c6.88,6.24,19.39,20.25,41,21.98
			c21.61,1.74,37.56-1.34,42.44-2.4c4.88-1.06-4.16-11.13-13.76-19.21c-9.59-8.07-35.88-18.13-57.03-13.81
			C367.98,177.22,360.55,179.72,360.55,179.72z"/>
		<path class="st15" d="M400.19,194.31c6.76,2.86,13.52,7.15,15.25,13.8c-14.28-1.7-24.42-8.75-31.5-14.9
			C385.81,188.76,397.08,193,400.19,194.31z"/>
		<path class="st16" d="M434.16,188.29c-23.69-6.2-47.91-6.6-72.09-9.04c3.11-0.91,11.25-3.12,27.05-6.35
			c21.15-4.32,47.44,5.73,57.03,13.81c3.52,2.96,6.96,6.19,9.67,9.14C448.82,192.76,441.56,190.23,434.16,188.29z"/>
		<path class="st17" d="M386.25,173.49c-0.31,0.27-0.62,0.57-0.91,0.88c-1.39,1.5-0.83,4.5,1.43,4.83
			c5.11,0.74,19.89,0.44,20.51-6.94c2.77,0.29,5.53,0.74,8.24,1.3c-0.89,0.7-1.64,1.57-2.08,2.64c-0.51,1.25-0.38,3.15,1.12,3.73
			c2.3,0.89,5,0.86,7.06-0.7c1.09-0.83,2.2-2.02,2.74-3.36c1.57,0.5,3.1,1.02,4.58,1.58c-0.09,0.03-0.18,0.05-0.27,0.08
			c-4.88,1.68-3.12,6.62,1.23,7.41c2.5,0.45,9.29,1.27,14.55,0.44c0.62,0.45,1.19,0.89,1.71,1.33c3.52,2.96,6.96,6.19,9.67,9.14
			c-7-3.09-14.27-5.62-21.67-7.56c-23.69-6.2-47.91-6.6-72.09-9.04C364.99,178.39,372.33,176.4,386.25,173.49z"/>
		<path class="st15" d="M415.19,202.02c1.79,1.48,8.34,6.25,9.71,1.75c0.73-2.41-0.75-4.4-2.53-5.88c-1.25-1.04-3.1-2.35-4.85-2.45
			c-0.92-0.39-1.84-0.61-2.69-0.61c-1.56,0-2.57,0.98-2.5,2.56C412.43,199.32,413.78,200.86,415.19,202.02z"/>
		<path class="st15" d="M428.26,201.77c1.18,1.28,3.57,1.53,4.63-0.07c0.84-1.26,0.2-2.91-0.91-3.76c-1.04-0.79-2.6-0.79-3.35,0.11
			c-0.58,0.27-1,0.66-1.13,1.36C427.35,200.25,427.69,201.15,428.26,201.77z"/>
		<path class="st15" d="M436.99,196.88c-0.01-0.47,0.4-0.74,0.81-0.78c2.25-0.25,4.28,0.59,5.86,2.01c2.22,1.12,4.17,2.78,4.67,5.21
			c0.12,0.6-0.21,1.21-0.82,1.36c-2.31,0.59-4.84-1.25-6.55-2.55C439.37,200.92,437.06,199.06,436.99,196.88z"/>
		<path class="st14" d="M361.86,179.38c-3.78,0.02,0.01-1.48,0.57-6.85c0.56-5.37,6.98-18.66,36.08-31.67
			c29.1-13.01,20.79-4.96,19.43-2.51c-1.36,2.45-5.36,14.8-28.21,28.08C366.89,179.71,361.86,179.38,361.86,179.38z"/>
		<path class="st17" d="M362.43,172.53c0.39-3.73,3.61-11.29,15.3-19.91c-2.15,2.51-5.13,6.5-3.18,9.32
			c1.85,2.68,5.26,2.24,8.03,1.48c7.9-2.16,15.37-6.47,21.95-11.25c4.02-2.92,8.08-6.23,11.51-10.03
			c-2.84,5.18-9.42,14.48-26.31,24.29c-22.85,13.27-27.87,12.95-27.87,12.95C358.08,179.4,361.87,177.9,362.43,172.53z"/>
		<path class="st12" d="M410.26,206.08c8.75,2.42,35.4,1.68,43.8-0.65c8.4-2.33,5.27-5.1,1.57-7.84c-3.7-2.74-10.98-5.01-10.98-5.01
			s11.58,5.28-2.96,8.98c-14.55,3.71-30.85,1.56-38.72-1.48C395.08,197.06,394.11,201.62,410.26,206.08z"/>
		<path class="st18" d="M449.9,205.13c-8.65,1.65-8.08-1.34-3.33-2.54C451.33,201.39,453.84,204.38,449.9,205.13z"/>
	</g>
</g>
<path class="st19" d="M386.5,301.75c-5.75,2.75-3.5,9.75,6.75,17s17.25,27.5,17.25,27.5s6.99-6.01-2-24
	C401.5,308.25,393.64,298.34,386.5,301.75z"/>
<g>
	<path class="st20" d="M394.82,302.18c0,0,0.04,0.04,0.12,0.13c0.1,0.1,0.26,0.26,0.46,0.46c0.42,0.41,1.08,1.03,1.97,1.8
		c1.77,1.54,4.44,3.67,7.89,5.93c3.44,2.26,7.66,4.64,12.41,6.72c4.75,2.08,10.02,3.87,15.44,5.07l0.51,0.12l0.47,0.1l1.07,0.22
		c0.73,0.16,1.39,0.27,2.05,0.39c1.31,0.24,2.71,0.45,4.06,0.61c2.72,0.34,5.42,0.55,8.05,0.63c5.25,0.17,10.18-0.15,14.37-0.67
		c4.19-0.53,7.65-1.25,10.03-1.85c1.19-0.3,2.11-0.56,2.72-0.74c0.58-0.18,0.89-0.28,0.89-0.28l0.17-0.05
		c1.45-0.45,3,0.35,3.45,1.81c0.44,1.39-0.3,2.88-1.64,3.4c0,0-0.38,0.14-1.09,0.42c-0.68,0.25-1.67,0.6-2.93,0.99
		c-2.53,0.79-6.16,1.79-10.6,2.62c-4.44,0.83-9.69,1.49-15.37,1.65c-2.84,0.08-5.78,0.04-8.77-0.15c-1.51-0.09-2.98-0.22-4.53-0.41
		c-0.78-0.09-1.56-0.18-2.25-0.29l-1.08-0.15l-0.6-0.09l-0.56-0.1c-6.02-1-11.94-2.66-17.31-4.68c-5.38-2.02-10.21-4.41-14.2-6.74
		c-4-2.33-7.16-4.58-9.34-6.27c-1.09-0.85-1.93-1.56-2.52-2.07c-0.3-0.27-0.53-0.47-0.68-0.61c-0.17-0.16-0.26-0.25-0.26-0.25l0,0
		c-2.17-2.05-2.28-5.47-0.23-7.64c2.05-2.17,5.47-2.28,7.64-0.23C394.67,302.02,394.75,302.1,394.82,302.18z"/>
	<path class="st21" d="M467.15,325.57c-0.23,5.05,7.07,6.84,11.28,7.41c4.21,0.57,3.54,5.35,3.33,8.86c-0.21,3.52,7.28,7,10.91,0.58
		c3.64-6.41-4.45-12.09-7.71-12.43c-3.26-0.34-4.41-4.39,2.68-7.28c7.09-2.89,35.21-22.46,27.6-34.18
		c-7.61-11.72-14.49-1.16-13.74,4.51c0.75,5.67-6.2,12.02-6.2,12.02s9.77-17.69,1.88-23.86c-7.89-6.17-15.66-0.43-10.51,8.35
		c5.15,8.78-0.48,16.58-0.48,16.58s2.35-20.26-10.29-19.3c-5.08,0.39-4.56,7.65,0.88,11.52c5.44,3.87,6.11,9,1.72,14.06
		C474.12,317.47,467.52,317.53,467.15,325.57z"/>
	<path class="st22" d="M501.56,294.17c-0.19,5.35-6.25,10.89-6.25,10.89s9.77-17.69,1.88-23.86c-0.3-0.24-0.61-0.45-0.91-0.66
		c-1.02,0-2.03,0.08-3.04,0.22c-1.1,0.5-2.13,1.24-3.01,2c-2.13,1.85-3.52,3.8-3.71,6.48c0.06,0.1,0.1,0.2,0.16,0.3
		c5.15,8.78-0.48,16.58-0.48,16.58s1.66-14.39-5.39-18.33c-1.54,0.7-2.8,4.65-2.85,6.02c-0.07,1.97,0.13,4.1,0.69,6.09
		c3.66,3.64,3.68,8.1-0.14,12.5c-0.12,0.14-0.24,0.25-0.36,0.38c7.78-2.31,16.47-2.15,22.24,1.8c9.66-7.52,19.8-18.45,14.86-26.07
		c-0.79-1.22-1.57-2.18-2.34-2.95C507.71,285.17,503.04,289.2,501.56,294.17z"/>
	<path class="st23" d="M389,301.25c-5.25,2.25-3,10.25,11.5,16.25s12.25-1.75,3.25-6.75S393.03,299.52,389,301.25z"/>
	<path class="st24" d="M391,301.75c-5.57-0.72-5.22,7.21-1.5,6.75C393.5,308,392.7,301.97,391,301.75z"/>
</g>
<g>
	<path class="st25" d="M141.61,292.56c1.23,4.91-5.58,8.1-9.6,9.49c-4.02,1.39-2.42,5.94-1.52,9.35c0.9,3.41-5.75,8.29-10.58,2.73
		c-4.83-5.57,1.98-12.73,5.11-13.71c3.13-0.98,3.46-5.18-4.07-6.61c-7.52-1.43-38.95-15.07-33.8-28.06
		c5.15-12.99,13.97-3.99,14.36,1.71c0.39,5.71,8.45,10.56,8.45,10.56S96.9,262.61,103.41,255c6.51-7.61,15.27-3.52,11.95,6.11
		c-3.32,9.62,3.74,16.16,3.74,16.16s-6.31-19.4,6.28-20.95c5.06-0.62,5.98,6.6,1.41,11.47c-4.57,4.87-4.21,10.03,1.09,14.12
		C133.18,286,139.66,284.75,141.61,292.56z"/>
	<path class="st1" d="M101.68,268.57c1.24,5.21,8.28,9.44,8.28,9.44S96.9,262.61,103.41,255c0.25-0.29,0.51-0.56,0.76-0.82
		c1-0.2,2.01-0.33,3.03-0.38c1.18,0.28,2.34,0.8,3.34,1.37c2.46,1.39,4.2,3.04,4.92,5.62c-0.04,0.11-0.06,0.21-0.1,0.33
		c-3.32,9.62,3.74,16.16,3.74,16.16s-4.47-13.78,1.66-19.04c1.65,0.38,3.67,4.01,3.99,5.34c0.46,1.92,0.69,4.05,0.52,6.1
		c-2.87,4.29-2.01,8.67,2.61,12.23c0.14,0.11,0.28,0.2,0.43,0.3c-8.08-0.73-16.58,1.14-21.45,6.16
		c-10.95-5.46-23.06-14.18-19.71-22.62c0.54-1.35,1.11-2.45,1.71-3.36C93.87,260.96,99.25,263.99,101.68,268.57z"/>
</g>
<g>
	<path class="st19" d="M328.06,380.67c9.5,1.75,15,9.5,2,10.75s-21.25-0.5-25.25,7.25c-2.36,4.58,3,7,3,7l-11.89-1.87
		c0,0-9.86-12.38,7.64-18.13C317.91,380.96,328.06,380.67,328.06,380.67z"/>
	<g>
		<path class="st22" d="M323.03,387.26c-14.84-2.08-60.88-8.96-67.02,10.04c-1.49,9.46,3.83,19.31,8.59,27.1
			c1.39,2.27,9.74,10.92,9.6,13.78c3.36,4.27,3.37,10.74-7.63-2.37c-13.5-16.11-36.81-48.61-9-57.88
			c17.16-5.8,44.78-1.12,62.58,0.62C333.31,379.83,342.91,389.88,323.03,387.26z"/>
		<path class="st26" d="M282.75,445.29c0,0,0.3,0.25,0.17,0.93c-0.13,0.68-0.71,1.76-2.4,3.5c-3.38,3.48-2.89,0.74-7.43,6.9
			c-2.26,3.08-5.57,7.22-9.75,11.76c-4.18,4.54-9.25,9.47-15.26,13.86c-6,4.4-13.28,6.5-19.32,6.4c-6.03-0.08-10.79-2.36-11.6-5.98
			c-1.6-7.35,2.59-8.73,9.1-9.63c3.28-0.47,7.16-0.83,11.3-1.75c4.14-0.91,8.52-2.35,12.83-4.82c4.3-2.47,7.61-5.43,10.24-8.39
			c2.62-2.97,4.55-5.92,6.02-8.54c2.9-5.22,3.92-9.04,3.92-9.04l3.08-2.99C276.6,440.25,279.74,442.96,282.75,445.29z"/>
		<path class="st12" d="M223.98,475.08c-2.2-0.54-4.01,0.21-5.38,1.74c-1.16,1.27-1.73,4.02,0.09,5.55
			c0.06,0.05,0.12,0.05,0.17,0.08c0.43,1.05,1.99,1.21,2.43,0.4c1.05-1.95,1.71-4.32,3.39-5.77
			C225.37,476.47,224.91,475.3,223.98,475.08z"/>
		<g>
			<path class="st16" d="M218.05,484.61c0.02,0.02,0.25,0.25,0.81,0.61c0.54,0.39,1.38,0.89,2.47,1.37
				c0.56,0.23,1.16,0.48,1.84,0.65c0.66,0.23,1.4,0.35,2.18,0.49c0.78,0.1,1.62,0.17,2.49,0.21c0.44-0.01,0.88-0.04,1.34-0.04
				c0.46,0.01,0.93-0.01,1.4-0.09c0.94-0.14,1.94-0.2,2.92-0.48c1-0.24,2.04-0.45,3.05-0.86c1.02-0.37,2.08-0.7,3.1-1.24
				c0.52-0.24,1.04-0.49,1.57-0.73c0.53-0.24,1.06-0.5,1.56-0.81c1.02-0.6,2.06-1.21,3.11-1.83c1.01-0.69,2.03-1.39,3.06-2.1
				c1.04-0.69,2-1.48,3.03-2.27c1.01-0.79,2.04-1.57,2.99-2.4c1.95-1.62,3.86-3.31,5.68-5.03c1.8-1.74,3.53-3.5,5.09-5.29
				c1.58-1.78,2.99-3.59,4.26-5.35c1.29-1.76,2.4-3.51,3.72-5.02c0.68-0.74,1.4-1.43,2.16-1.93c0.72-0.5,1.4-0.97,2.04-1.41
				c0.33-0.21,0.6-0.45,0.87-0.68c0.27-0.23,0.52-0.45,0.77-0.66c0.47-0.45,0.88-0.89,1.25-1.29c0.68-0.83,1.14-1.52,1.36-2
				c0.13-0.24,0.2-0.42,0.24-0.53c0.04-0.11,0.05-0.16,0.05-0.16c0.06-0.23,0.28-0.42,0.5-0.43c0.22-0.01,0.35,0.16,0.29,0.38
				c0,0-0.03,0.11-0.09,0.26c-0.06,0.15-0.15,0.38-0.31,0.65c-0.28,0.56-0.82,1.3-1.55,2.21c-0.39,0.43-0.83,0.9-1.33,1.39
				c-0.53,0.45-1.09,1.02-1.71,1.47c-0.31,0.23-0.63,0.47-0.97,0.71c-0.17,0.13-0.35,0.26-0.53,0.39c-0.16,0.12-0.32,0.24-0.49,0.37
				c-0.67,0.48-1.28,1.11-1.88,1.81c-1.16,1.44-2.22,3.21-3.46,5.05c-1.24,1.83-2.61,3.75-4.14,5.63c-1.49,1.93-3.17,3.8-4.87,5.71
				c-1.72,1.89-3.49,3.79-5.4,5.55c-0.93,0.92-1.9,1.76-2.86,2.6c-0.96,0.83-1.92,1.71-2.95,2.49c-1.02,0.79-2.03,1.57-3.03,2.35
				c-1.07,0.68-2.14,1.36-3.18,2.03c-2.15,1.25-4.31,2.37-6.55,3.12c-1.08,0.45-2.21,0.72-3.31,0.99c-1.08,0.33-2.21,0.41-3.28,0.53
				c-0.53,0.08-1.07,0.09-1.61,0.07c-0.53,0-1.05-0.03-1.56-0.05c-0.51-0.03-1.02-0.14-1.51-0.21c-0.49-0.09-0.97-0.12-1.43-0.29
				c-1.85-0.5-3.44-1.26-4.65-2.07c-0.61-0.4-1.11-0.83-1.54-1.2c-0.41-0.41-0.76-0.74-1.01-1.05c-0.25-0.3-0.45-0.56-0.57-0.74
				c-0.13-0.17-0.16-0.25-0.17-0.25c-0.14-0.29-0.05-0.6,0.21-0.7C217.7,484.44,217.9,484.49,218.05,484.61z"/>
		</g>
		<path class="st18" d="M220.82,476.84c-0.6-0.47-1.59-0.5-1.93,0.16l-0.32,0.63c-0.35,0.68-0.25,1.59,0.5,2.17
			c0.81,0.63,1.95,0.39,2.18-0.52l0.19-0.71C221.59,477.97,221.36,477.28,220.82,476.84z"/>
		<path class="st6" d="M269.84,442.68c0.21,0.05,0.35,0.2,0.28,0.47c-0.31,1.12-2.34,4.33-4.56,6.78c-2.21,2.44-4.69,4.08-5.92,1.86
			c-1-1.8,1.61-4.03,2.93-5.09c0.86-0.69,1.89-1.52,2.98-2.23c-1.03,0.26-2.07,0.54-3.11,0.85c-1.06,0.32-2.13,0.75-3.21,0.9
			c-1.73,0.25-3.11-0.21-2.48-2.15c0.74-2.28,3.83-2.77,5.75-2.97c1.16-0.12,2.28-0.06,3.36,0.12c1.36,0.21,2.43,1.01,3.8,1.17
			C269.83,442.41,269.89,442.55,269.84,442.68z M268.3,443.08c0.29-0.09,0.58-0.17,0.87-0.21c0.02,0,0.03,0,0.05,0l0.01-0.01
			c-1.67-0.08-3.01-1.14-4.76-1.19c-1.78-0.03-5.29,0-6.58,1.81c-2.21,3.17,2.94,1.54,4.2,1.15
			C264.17,444.04,266.24,443.57,268.3,443.08z M265.73,448.41c1.07-1.28,2.72-3.09,3.22-4.74c-1.51,0.4-3.22,1.72-4.43,2.62
			c-1.36,1.03-3.47,2.47-4.01,4.14c-0.55,1.73,1.65,1.24,2.53,0.57C264.02,450.25,264.92,449.37,265.73,448.41z"/>
	</g>
	<path class="st27" d="M248.81,383.17c9.42-11.42,65.25-7.58,70.58-3.25c4.05,3.29-28.58,0.5-46.08,2s-23.25,7.75-21.5,19
		s-0.5,13-4.5,5.25S244.65,388.22,248.81,383.17z"/>
	<path class="st24" d="M251.06,381.55c-3.46,2.19-6.63,10.88-4.13,12.25s2.75-2.88,4.75-6.88s5.75-3.5,5.13-6.13
		S252.29,380.77,251.06,381.55z"/>
</g>
<g>
	<path class="st28" d="M337.17,277.09c0,0-36.91-10.07-73.93-18c-37.02-7.93-44.07-11.28-49.71-7.23
		c-5.64,4.05,5.46,15.16-3.17,27.5c-8.64,12.34-4.7,33.4,35.08,42.49c32.44,7.4,58.58,5.15,73.33-6.7
		C343.81,295.05,337.17,277.09,337.17,277.09z"/>
	<path class="st29" d="M335.04,276.76c0,0-35.56-9.65-73.77-18.25c-38.21-8.59-51.26-10-48.08-0.48
		c3.17,9.52,13.93,17.81,2.82,24.86c-11.11,7.05-6.88,22.92,32.97,32.79c39.84,9.87,71.75-1.59,79.15-14.81
		C335.53,287.64,335.04,276.76,335.04,276.76z"/>
	<path class="st30" d="M318.78,292.23c0,12.27-12.98,22.21-29,22.21c-16.02,0-29-9.95-29-22.21c0-12.27,12.98-22.21,29-22.21
		C305.79,270.01,318.78,279.96,318.78,292.23z"/>
	<path class="st31" d="M332.66,262.27c-0.34-0.96-1.01-1.62-1.82-2.1c3.03-17.04-12.1-30.32-26.22-33.33
		c-7.38-1.57-14.56,0.36-20.5,4.95c-4.42,4.6-7.63,9.31-6.29,16.93c2.63,1.95,6.81,1.72,9.85,2.39c5.78,1.29,11.52,2.83,17.26,4.35
		c5.32,1.4,10.64,2.91,15.98,4.22c1.87,0.46,7.88,0.68,9.42,2.75c-0.01,0.2,0.05,0.42,0.22,0.59c0.06,0.06,0.12,0.12,0.18,0.19
		C331.46,264.19,333.14,263.61,332.66,262.27z"/>
	<path class="st31" d="M262.95,243.17c2.69-9.1-0.81-19.29-6.71-25.94c-4.63-4.7-10.33-8.44-16.17-9.77
		c-5.83-1.33-11.79-0.23-16.92,4.75c-6.89,6.29-6.43,15.84-10.13,23.82c11.83,0.49,24.14,4.12,36.71,6.68
		c4.09,0.88,8.19,1.61,12.34,1.96C262.89,244.87,263.29,243.81,262.95,243.17z"/>
	<path class="st32" d="M332.66,262.27c-0.34-0.96-1.01-1.62-1.82-2.1c1.53-8.61-1.58-16.26-6.85-22.12
		c-1.39,9.02-11.73,10.27-19.1,9.65c-4.64-0.39-9.28-1.05-13.62-2.53c-4.34-1.49-8.39-3.8-11.85-7.5c-1,3.16-3.41,6.69-1.59,11.04
		c2.63,1.95,6.81,1.72,9.85,2.39c5.78,1.29,11.52,2.83,17.26,4.35c5.32,1.4,10.64,2.91,15.98,4.22c1.87,0.46,7.88,0.68,9.42,2.75
		c-0.01,0.2,0.05,0.42,0.22,0.59c0.06,0.06,0.12,0.12,0.18,0.19C331.46,264.19,333.14,263.61,332.66,262.27z"/>
	<path class="st32" d="M262.95,243.17c2.53-10.15-2.08-21.25-9.9-27.64c0.14,7.45-7.06,11.65-12.67,13.5
		c-8.64,1.2-16.79-0.87-22.69-7.53c-0.17,5.36-1.31,10.85-4.67,14.52c11.83,0.49,24.14,4.12,36.71,6.68
		c4.09,0.88,8.19,1.61,12.34,1.96C262.89,244.87,263.29,243.81,262.95,243.17z"/>
	<path class="st33" d="M332.66,262.27c-0.34-0.96-1.01-1.62-1.82-2.1c3.03-17.04-12.1-30.32-26.22-33.33
		c-7.38-1.57-14.56,0.36-20.5,4.95c-4.42,4.6-7.63,9.31-6.29,16.93c2.63,1.95,6.81,1.72,9.85,2.39c5.78,1.29,11.52,2.83,17.26,4.35
		c5.32,1.4,10.64,2.91,15.98,4.22c1.87,0.46,7.88,0.68,9.42,2.75c-0.01,0.2,0.05,0.42,0.22,0.59c0.06,0.06,0.12,0.12,0.18,0.19
		C331.46,264.19,333.14,263.61,332.66,262.27z M326.28,258.81c-4.46-0.83-8.81-1.89-13.23-3.05c-6.12-1.61-12.23-3.25-18.36-4.8
		c-2.91-0.74-5.83-1.4-8.76-2.06c-2.36-0.53-4.72-0.58-7.01-1.44c-0.72-5.74,2.89-11.8,6.92-14.75c5.77-4.21,12.55-5.22,19.44-3.78
		c12.88,2.69,26.53,15.3,24.04,30.58C328.27,259.16,327.17,258.97,326.28,258.81z"/>
	<path class="st33" d="M262.95,243.17c2.69-9.1-0.81-19.29-6.71-25.94c-4.63-4.7-10.33-8.44-16.17-9.77
		c-5.83-1.33-11.79-0.23-16.92,4.75c-6.89,6.29-6.43,15.84-10.13,23.82c11.83,0.49,24.14,4.12,36.71,6.68
		c4.09,0.88,8.19,1.61,12.34,1.96C262.89,244.87,263.29,243.81,262.95,243.17z M232.85,236.48c-5.85-0.21-14.1,0.97-15.71-7.38
		c-0.37-4.77,1.11-9,3.62-12.43c2.54-3.42,6.07-6.05,9.75-7.63c12.16-3.82,24.45,6.22,29.06,17.32c2.55,3.92,4.61,11.1,0.28,14.9
		c-4.48,2.76-9.11-1.94-13.88-2.03C241.37,238.4,236.97,237.59,232.85,236.48z"/>
	<path class="st34" d="M233.35,197.14c-1.19-4.06-3.7-2.54-6.35-2.06c-3.4,1.68-7.44,5.58-6.81,10.75c3.31-2.7,4.7-6.12,9.65-5.04
		C231.36,200.91,234.38,200.67,233.35,197.14z"/>
	<path class="st34" d="M322.77,230.66c-1.42-5.54-7.95-15.98-14.39-12.61c-2.31,1.21-0.04,3.28,1.3,4.13
		c1.34,0.85,2.81,1.45,4.2,2.2c2.69,1.48,4.87,3.87,7.12,6c0.23,0.22,0.61,0.15,0.79-0.07c0.08,0.2,0.17,0.39,0.24,0.59
		C322.22,231.41,322.9,231.2,322.77,230.66z"/>
	<path class="st35" d="M322.3,242.42c0,5.01-4.54,9.08-10.14,9.08c-5.6,0-10.13-4.06-10.13-9.08c0-5.01,4.54-9.08,10.13-9.08
		C317.76,233.35,322.3,237.41,322.3,242.42z"/>
	<path class="st35" d="M258.31,227.44c0,5.01-4.54,9.08-10.14,9.08c-5.6,0-10.14-4.06-10.14-9.08c0-5.01,4.54-9.08,10.14-9.08
		C253.77,218.36,258.31,222.43,258.31,227.44z"/>
	<path class="st36" d="M306.98,237.69c-0.13-0.26-0.26-0.51-0.4-0.73c-1.15-1.84-3.05-3.57-5.15-3.65c-2.07-0.09-3.01,2.21-2.39,4.1
		c0.96,2.95,7.32,9.73,9.01,4.3C308.44,240.44,307.92,238.98,306.98,237.69z"/>
	<path class="st36" d="M243.52,220.24c-0.13-0.26-0.26-0.51-0.4-0.73c-1.15-1.84-3.06-3.57-5.16-3.65c-2.07-0.09-3.01,2.21-2.39,4.1
		c0.96,2.95,7.32,9.73,9.01,4.3C244.98,222.98,244.45,221.52,243.52,220.24z"/>
	<path class="st37" d="M324.68,274.11c0,0-22.7-6.21-54.83-13.49c-23.98-5.43-37.37-8.02-37.37-8.02s-4.76,16.75,27.85,24.15
		C292.95,284.16,324.68,274.11,324.68,274.11z"/>
	<path class="st38" d="M280.27,269.63c-4.21-3.69-9.83-5.63-15.16-7.08c-4.93-1.35-9.92-2.26-14.94-3.19
		c-4.01-0.74-13.02-3-17.28-0.39c1.75,5.54,7.85,13.35,27.44,17.8c7.52,1.71,15,2.48,22.05,2.67
		C283.75,276.08,283.64,272.59,280.27,269.63z"/>
	<path class="st39" d="M275.24,295.22c7.64,5.62,19.92-5.47,31.03,0.18c11.11,5.64,2.29,27.15-40.72,22.57
		c-43.02-4.58-38.08-22.74-25.74-27.85C252.14,285,263.25,286.41,275.24,295.22z"/>
	<path class="st40" d="M242.62,291.17c-0.65-4.15-11.28,4.94-9.17,10.93c2.12,5.99,17.28,12.52,21.33,8.81
		c4.05-3.7-10.05-5.29-13.4-9.7C238.04,296.81,243.02,293.67,242.62,291.17z"/>
	<path class="st40" d="M258.14,310.91c-2.96,2.07,5.82,6.35,7.05,1.41C266.42,307.39,259.61,309.88,258.14,310.91z"/>
	<path class="st41" d="M305.56,309.94c-4.81,5.68-27.21,9.76-27.77,5.03c-0.53-4.5,16.39-3.97,20.71-8.46
		C306.94,297.73,313.23,300.88,305.56,309.94z"/>
	<path class="st42" d="M337.17,277.09c0,0-79.42-21.89-101.82-26.24c-27.9-5.42-30.36-2.49-29.31-0.04
		c1.11,2.59,5.77,5.46,5.77,5.46s-0.53-3.11,2.64-3.11c12.63,0,22.15,1.12,63.33,10.51c26.39,6.01,57.12,14.02,57.12,14.02
		L337.17,277.09z"/>
	<path class="st43" d="M247.03,318.14c-0.88,3.53,12.69,6.17,28.91,6.52c17.45,0.38,20.98-2.64,20.8-4.76
		c-0.18-2.12-6.7,0.88-21.33,0.18C260.78,319.38,247.78,315.15,247.03,318.14z"/>
	<path class="st43" d="M306.61,317.61c2.12,2.29-5.99,5.47-6.87,2.12C299.02,316.98,305.5,316.41,306.61,317.61z"/>
</g>
</svg>
