<?xml version="1.0" encoding="UTF-8"?>
<!DOCTYPE svg PUBLIC "-//W3C//DTD SVG 1.1//EN" "http://www.w3.org/Graphics/SVG/1.1/DTD/svg11.dtd">
<!-- Creator: CorelDRAW 2019 (64-Bit) -->
<svg xmlns="http://www.w3.org/2000/svg" xml:space="preserve" width="177px" height="236px" version="1.1" shape-rendering="geometricPrecision" text-rendering="geometricPrecision" image-rendering="optimizeQuality" fill-rule="evenodd" clip-rule="evenodd"
viewBox="0 0 177 236"
 xmlns:xlink="http://www.w3.org/1999/xlink"
 xmlns:xodm="http://www.corel.com/coreldraw/odm/2003">
 <g id="Слой_x0020_1">
  <metadata id="CorelCorpID_0Corel-Layer"/>
  <path fill="#FEFEFE" fill-rule="nonzero" d="M48.53 132.07l0 23.08 94.27 0 0 22.08 -94.27 0 0 59.66 -31.31 0 0 -59.5 -16.15 0 0 -22.24 16.15 0 0 -23.08 -16.15 0 0 -27.03 16.15 0 0 -104.15 73.88 0c21.15,0 37.14,2.14 47.96,6.43 10.93,4.17 19.67,11.64 26.21,22.35 6.53,10.77 9.83,22.64 9.83,35.6 0,13.08 -2.42,23.95 -7.25,32.52 -4.84,8.57 -11.21,15.44 -19.23,20.49 -7.96,5.11 -17.14,8.68 -27.47,10.72 -10.38,2.03 -21.04,3.07 -32.08,3.07l-40.54 0zm40.49 -27.03c7.14,0 14.01,-0.55 20.54,-1.7 6.54,-1.1 12.25,-3.18 17.2,-6.21 4.89,-2.96 8.79,-7.03 11.7,-12.14 2.91,-5.11 4.34,-11.7 4.34,-19.72 0,-6.97 -1.32,-12.91 -3.96,-17.74 -2.58,-4.84 -6.2,-8.74 -10.71,-11.81 -4.56,-3.08 -9.89,-5.28 -15.99,-6.7 -6.09,-1.38 -12.68,-2.09 -19.77,-2.09l-43.84 0 0 78.11 40.49 0z"/>
 </g>
</svg>
