<?xml version="1.0" encoding="utf-8"?>
<!-- Generator: Adobe Illustrator 23.0.3, SVG Export Plug-In . SVG Version: 6.00 Build 0)  -->
<svg version="1.1" id="Layer_1" xmlns="http://www.w3.org/2000/svg" xmlns:xlink="http://www.w3.org/1999/xlink" x="0px" y="0px"
	 viewBox="0 190 612 380" style="enable-background:new 0 0 612 792;" xml:space="preserve">
<style type="text/css">
	.st0{fill:#005C76;}
	.st1{fill:#FFFFFF;}
	.st2{fill:#A8D7EA;}
</style>
<g>
	<path class="st0" d="M561.27,378.85c1.77,0,3.2-1.43,3.2-3.2v-30.2c0,0,0,0,0.01-0.01c0.57-0.55,1.16-1.09,1.75-1.63
		c0.19-0.18,0.39-0.35,0.58-0.52c0.52-0.47,1.04-0.93,1.58-1.38c0.31-0.26,0.62-0.5,0.93-0.75c0.71-0.57,1.43-1.13,2.18-1.66
		c0.51-0.37,1.02-0.74,1.55-1.09c0.36-0.24,0.74-0.46,1.12-0.69c0.54-0.33,1.09-0.65,1.65-0.96c0.38-0.21,0.76-0.4,1.15-0.6
		c0.63-0.32,1.29-0.61,1.95-0.89c0.35-0.15,0.69-0.3,1.04-0.44c1.04-0.4,2.11-0.77,3.23-1.07c0,0,0.04-0.02,0.11-0.05
		c0,0,0.01,0,0.01,0c0.07-0.03,0.17-0.07,0.29-0.13c0.02-0.01,0.05-0.02,0.07-0.03c0.12-0.05,0.25-0.11,0.4-0.19
		c0.04-0.02,0.07-0.03,0.11-0.05c0.17-0.08,0.35-0.17,0.55-0.26c0.03-0.02,0.06-0.03,0.09-0.04c0.22-0.11,0.46-0.22,0.72-0.35
		c0.02-0.01,0.04-0.02,0.07-0.03c1.73-0.85,4.17-2.12,6.54-3.56c0,0,0.01-0.01,0.01-0.01c6.77-4.13,12.99-9.72,0.6-11.42
		c-19.23-4.9-30.78-4.15-47.61-16.22c-14.15-10.14-32.27-17.6-50.41-13.5c-19.41,4.39-25.09,13.98-46.04,4.88
		c-16.12-7.01-28.31-21.45-47.24-19.62c-19.98,1.93-25.49,17.65-48.93,14.74c-9.53-1.18-16.32-7.02-24.82-8.31
		c-12.68-1.93-18.55,10.38-29.45,10.01c-13.83-0.47-37.78-27.63-50.78-36.06c-16.9-10.97-33.92-21.44-54.22-22.96
		c-29.1-2.18-33.64,24.11-59.33,29.11c-12.18,2.37-24.81-0.59-36.5-2c-10.73-1.3-24.92,1.01-33.65,7.82
		c-8.08,6.31-2.04,17.64-4.66,26.05c-0.85,2.72-2.32,5.07-4,7.31c-2.64,3.53-5.8,6.76-8.06,10.55c-0.11,0.18-0.21,0.36-0.31,0.54
		c-0.47,0.83-0.91,1.67-1.27,2.56c-2.86,7.03-3.04,15.29-8.49,21.25c-10.7,11.7-14.55,5.34-17.23,21.3
		c-3.46,20.59,15.25,28.5,9.83,50.4c-4.29,17.32-6.7,23.41-4.95,41.23c1.19,12.18-4.87,34.35,1.15,44.75
		c3.04,5.25,10.48,3.79,13.99,8.89c4.14,6,4.83,15.33,7.37,22.15c11.39,30.5,43.12,62.82,43,9.47c-0.03-15.37-1.36-29.2-2.04-43.46
		c-1.03-21.81,18.3-15.88,29.6-31.86c8.73-12.34,4.85-31.65,16.99-42.07c9.04-7.76,31.34-20.73,43.44-23.43
		c18.45-4.12,39,1.28,57.38-1.65c15.37-2.45,28.48-5.94,44.55-3.23c17.44,2.93,32.48,9.57,50.86,9.74
		c6.78,0.07,14.67-1.24,21.29,0.01c8.97,1.69,16.35,8.52,24.61,10.77c1.26,0.35,2.47,0.59,3.66,0.79c0.35,0.06,0.7,0.13,1.04,0.17
		c0.9,0.12,1.78,0.2,2.65,0.25c0.63,0.04,1.26,0.06,1.87,0.06v29.87c0,1.77,1.43,3.2,3.2,3.2c1.77,0,3.2-1.43,3.2-3.2v-30.5
		c0.24-0.05,0.46-0.13,0.7-0.19c0.77-0.19,1.53-0.38,2.27-0.62c0.9-0.29,1.78-0.62,2.64-0.97c0.01-0.01,0.03-0.01,0.04-0.02v14.58
		c0,1.77,1.43,3.2,3.2,3.2c1.77,0,3.2-1.43,3.2-3.2v-17.77c0.01-0.01,0.02-0.01,0.04-0.02c2.39-1.4,4.74-2.94,7.11-4.53
		c0.1-0.06,0.19-0.12,0.29-0.19v81.49c0,1.77,1.43,3.2,3.2,3.2c1.77,0,3.2-1.43,3.2-3.2v-85.65c0.92-0.57,1.87-1.13,2.82-1.68
		c0.18-0.1,0.37-0.2,0.56-0.31c0.8-0.45,1.62-0.89,2.45-1.31c0.45-0.23,0.92-0.44,1.39-0.65c0.61-0.29,1.21-0.59,1.84-0.85
		c1.13-0.47,2.28-0.92,3.47-1.31c9.13-3.03,18.45-2.44,28.23-2.88c16.12-0.74,12.83-2.88,24.08-10.24c1.1-0.72,2.18-1.36,3.24-1.96
		c0.27-0.15,0.54-0.3,0.81-0.45c0.99-0.54,1.96-1.04,2.93-1.49c0.07-0.03,0.15-0.08,0.22-0.11c1.04-0.48,2.06-0.89,3.08-1.28
		c0.24-0.09,0.49-0.18,0.73-0.27c0.91-0.33,1.81-0.63,2.7-0.89c0.11-0.04,0.23-0.07,0.34-0.11c1-0.29,1.99-0.53,2.98-0.75
		c0.22-0.05,0.45-0.09,0.67-0.14c0.87-0.18,1.73-0.34,2.59-0.48c0.14-0.02,0.27-0.05,0.41-0.07c0.99-0.15,1.97-0.28,2.96-0.38
		c0.2-0.02,0.4-0.04,0.6-0.06c0.86-0.09,1.72-0.16,2.58-0.22c0.16-0.01,0.31-0.02,0.47-0.03c1-0.07,2-0.12,3-0.17
		c0.21-0.01,0.41-0.02,0.62-0.02c0.83-0.04,1.67-0.07,2.51-0.1c1.09-0.04,2.19-0.07,3.3-0.11v15.04c0,1.77,1.43,3.2,3.2,3.2
		c1.77,0,3.2-1.43,3.2-3.2v-15.36c1.48-0.1,2.98-0.22,4.52-0.39c0.05-0.01,0.09-0.01,0.14-0.01v52.43c0,1.77,1.43,3.2,3.2,3.2
		c1.77,0,3.2-1.43,3.2-3.2v-53.38c0.53-0.1,1.05-0.17,1.6-0.28c0.93-0.19,1.81-0.44,2.67-0.71c0.74-0.22,1.44-0.49,2.14-0.76v88.41
		c0,1.77,1.43,3.2,3.2,3.2c1.77,0,3.2-1.43,3.2-3.2v-91.84c2.81-1.93,5.37-4.2,7.86-6.61v23.91
		C558.07,377.42,559.5,378.85,561.27,378.85z"/>
	<g>
		<path class="st1" d="M16.35,434.57c-1.74-17.82,0.66-23.91,4.95-41.23c5.42-21.9-13.29-29.81-9.83-50.4
			c2.68-15.96,6.53-9.6,17.23-21.3c5.45-5.96,5.62-14.21,8.49-21.25c3.19-7.85,11.1-12.85,13.64-20.96
			c2.63-8.4-3.41-19.74,4.66-26.05c8.73-6.82,22.92-9.12,33.65-7.82c11.69,1.41,24.32,4.37,36.5,2
			c25.69-5.01,30.23-31.3,59.33-29.11c20.3,1.52,37.31,11.99,54.22,22.96c13,8.43,36.95,35.59,50.78,36.06
			c10.9,0.37,16.76-11.94,29.45-10.01c8.5,1.29,15.29,7.13,24.82,8.31c23.44,2.91,28.94-12.81,48.93-14.74
			c18.93-1.83,31.12,12.62,47.24,19.62c20.95,9.1,26.63-0.49,46.04-4.88c18.14-4.1,36.26,3.36,50.41,13.5
			c16.83,12.07,28.39,11.31,47.61,16.22c20.38,2.8-9.58,16.14-9.58,16.14c-19.67,5.36-25.38,25.66-44.19,29.49
			c-21.7,4.41-36.14-1.8-55.81,11.05c-11.25,7.36-7.96,9.5-24.08,10.24c-9.78,0.45-19.09-0.14-28.23,2.88
			c-19.98,6.63-30.32,25.85-54.04,19.36c-8.25-2.25-15.64-9.08-24.61-10.77c-6.63-1.25-14.51,0.06-21.29-0.01
			c-18.38-0.17-33.42-6.81-50.86-9.74c-16.07-2.71-29.18,0.78-44.55,3.23c-18.37,2.93-38.93-2.47-57.38,1.65
			c-12.1,2.7-34.4,15.67-43.44,23.43c-12.14,10.42-8.26,29.73-16.99,42.07c-11.3,15.98-30.63,10.05-29.6,31.86
			c0.68,14.26,2.01,28.09,2.04,43.46c0.12,53.35-31.61,21.03-43-9.47c-2.54-6.82-3.23-16.15-7.37-22.15
			c-3.51-5.1-10.95-3.64-13.99-8.89C11.48,468.92,17.54,446.75,16.35,434.57z"/>
		<path class="st2" d="M589.21,313.04c-0.04,0.01-0.09,0.02-0.13,0.02c-8.96,1.06-18.26-0.79-27.25,0
			c-11.24,0.99-14.35,6.52-22.68,13.23c-10.91,8.78-15.65,4.38-27.5,3.81c-20.53-0.99-37.11-0.59-53.97,11.11
			c-9.84,6.82-16.82,15.76-30.04,13.76c-9.82-1.48-17.67-5.91-27.92-6.88c-9.81-0.93-26.86-4.23-36.55-0.94
			c-9.17,3.11-8.7,15.1-20.97,16.09c-9.77,0.79-17.77-4.7-28.57-4.73c-6.11-0.02-10.69,2.7-16.33,2.83
			c-7.6,0.18-12.77-4.2-19.3-7.34c-9.31-4.47-19.13-5.74-29.49-4.3c-5.82,0.81-11.46,2.52-17.61,3.12
			c-9.29,0.9-7.39,0.71-13.92-3.61c-18.72-12.36-43.48-10.07-64.88-14.2c-19.68-3.79-28.3,19.1-46.62,22.53
			c-17.9,3.36-37.64,3.84-38.01-17.9c-7.78-0.79-17.84,11.62-24.28,6.34c-6.32-5.18,0.03-16.46,2.44-20.9
			c1.98-3.64,5.22-6.53,4.96-11.1c-0.3-5.26-4.91-6.78-5.77-11.31c-0.77-4.05,4.22-8.76,2.72-14.04c-0.2-0.71-0.45-1.35-0.71-1.94
			c-3.33,4.46-7.53,8.44-9.66,13.67c-2.86,7.03-3.04,15.29-8.49,21.25c-10.7,11.7-14.55,5.34-17.23,21.3
			c-3.46,20.59,15.25,28.5,9.83,50.4c-4.29,17.32-6.7,23.41-4.95,41.23c1.19,12.18-4.87,34.35,1.15,44.75
			c3.04,5.25,10.48,3.79,13.99,8.89c4.14,6,4.83,15.33,7.37,22.15c11.39,30.5,43.12,62.82,43,9.47c-0.03-15.37-1.36-29.2-2.04-43.46
			c-1.03-21.81,18.3-15.88,29.6-31.86c8.73-12.34,4.85-31.65,16.99-42.07c9.04-7.76,31.34-20.73,43.44-23.43
			c18.45-4.12,39,1.28,57.38-1.65c15.37-2.45,28.48-5.94,44.55-3.23c17.44,2.93,32.48,9.57,50.86,9.74
			c6.78,0.07,14.67-1.24,21.29,0.01c8.97,1.69,16.35,8.52,24.61,10.77c3.32,0.91,6.36,1.27,9.22,1.28v29.87c0,1.77,1.43,3.2,3.2,3.2
			c1.77,0,3.2-1.43,3.2-3.2v-30.5c1.97-0.42,3.84-1.05,5.66-1.8v14.58c0,1.77,1.43,3.2,3.2,3.2c1.77,0,3.2-1.43,3.2-3.2v-17.77
			c2.5-1.46,4.96-3.08,7.44-4.74v81.49c0,1.77,1.43,3.2,3.2,3.2c1.77,0,3.2-1.43,3.2-3.2v-85.65c3.85-2.39,7.92-4.59,12.52-6.11
			c9.13-3.03,18.45-2.44,28.23-2.88c16.12-0.74,12.83-2.88,24.08-10.24c13.35-8.73,24.3-8.67,36.75-9.1v15.04
			c0,1.77,1.43,3.2,3.2,3.2c1.77,0,3.2-1.43,3.2-3.2v-15.37c1.52-0.1,3.07-0.22,4.66-0.39v52.43c0,1.77,1.43,3.2,3.2,3.2
			c1.77,0,3.2-1.43,3.2-3.2V351.4c0.53-0.1,1.05-0.17,1.6-0.28c1.71-0.35,3.29-0.88,4.81-1.48v88.42c0,1.77,1.43,3.2,3.2,3.2
			c1.77,0,3.2-1.43,3.2-3.2v-91.84c2.81-1.93,5.37-4.2,7.86-6.61v23.91c0,1.77,1.43,3.2,3.2,3.2c1.77,0,3.2-1.43,3.2-3.2v-30.2
			c5.16-4.94,10.8-9.53,18.72-11.68C574.89,321.63,584.62,317.29,589.21,313.04z"/>
	</g>
</g>
</svg>
