<?xml version="1.0" encoding="UTF-8"?>
<!DOCTYPE svg PUBLIC "-//W3C//DTD SVG 1.1//EN" "http://www.w3.org/Graphics/SVG/1.1/DTD/svg11.dtd">
<!-- Creator: CorelDRAW 2019 (64-Bit) -->
<svg xmlns="http://www.w3.org/2000/svg" xml:space="preserve" version="1.1" shape-rendering="geometricPrecision" text-rendering="geometricPrecision" image-rendering="optimizeQuality" fill-rule="evenodd" clip-rule="evenodd"
viewBox="0 0 1240 590.48"
 xmlns:xlink="http://www.w3.org/1999/xlink"
 xmlns:xodm="http://www.corel.com/coreldraw/odm/2003">
 <g id="Слой_x0020_1">
  <metadata id="CorelCorpID_0Corel-Layer"/>
  <path fill="#FEFEFE" d="M1175.37 151.42l1.9 0c-0.4,-4.76 0.33,-1.17 -2,-4.65 -1.07,-1.61 -1.46,-2.21 -2.45,-4.21 -1.62,-3.24 -3.3,-5.72 -4.11,-9.2l-1.9 0c-0.81,3.48 -2.49,5.96 -4.11,9.2 -4.27,8.57 -3.99,3.3 -4.45,8.86l1.9 0c-1.05,4.53 -4.04,7.45 -6.65,10.46 1.34,3.33 1.26,-0.12 2.85,3.81 -1.92,1.4 -3.09,3.04 -3.81,5.7 -53.06,0 -105.66,1.23 -159.76,0.95 -11.48,-0.06 -23.96,1.77 -38.98,0.96l-38.98 -0.96c-27.78,0 -52.55,-0.95 -79.88,-0.95 -0.7,-2.99 -3.25,-6.66 -4.76,-9.51 2.76,0.65 5.8,1.26 8.56,1.91 -0.35,-4.29 -0.97,-3.12 -3.51,-6.01 -2.7,-3.06 -10.79,-15.74 -11.7,-19.67l4.75 0c-0.38,-4.62 -0.08,-1.54 -4.77,-8.54 -3.65,-5.46 -6.11,-11.57 -8.87,-17.76 -3.64,-8.16 -1.02,-6.39 -4.43,-8.88 -5.85,12.19 -4.65,15.76 -15.12,30.51 -2.33,3.29 -1.62,0.19 -1.99,4.67l4.75 0c-1.14,4.89 -7.72,13.98 -10.46,18.07 -4.76,-3.19 -24.12,-32.34 -25.67,-38.99 3.23,0.07 7.61,2.1 9.51,0.2 1.82,-1.81 0.81,0.18 -4.23,-6.43 -4.04,-5.32 -6.17,-9.26 -9.4,-15.33 -1.6,-2.98 -2.65,-4.06 -4.14,-7.27 -1.49,-3.21 -2.3,-5.41 -3.79,-8.57l-6.97 -17.75c-1.16,1.33 -1.26,1.43 -2.21,3.49 -6.09,13.34 -13.25,35.14 -25.24,48.1 -6.82,7.37 2.56,3.67 7.48,3.56 -0.88,3.77 -3.44,7.21 -5.41,10.75 -2.18,3.92 -4.1,6.86 -6.57,10.55l-13.7 19.59c6.68,0 8.91,-2.41 14.27,-2.85 -1.24,5.32 -4.5,6.89 -5.71,11.41 -8.99,0 -14.47,-1.01 -22.81,-0.96 -19.14,0.12 -49.86,-2.85 -69.43,-2.85 -0.69,-2.98 -3.25,-6.66 -4.75,-9.51 2.76,0.65 5.8,1.26 8.56,1.91 -0.35,-4.22 -2.4,-4.09 -7.8,-12.17 -2.29,-3.42 -6.48,-9.46 -7.42,-13.51l4.76 0c-0.39,-4.69 -3.85,-5.78 -9.2,-16.48l-7.92 -18.7c-3.4,2.49 -0.78,0.72 -4.43,8.88 -4.63,10.38 -5.12,12.44 -11.65,21.64 -2.33,3.28 -1.61,0.19 -1.99,4.66l4.76 0c-0.69,2.95 -1.22,2.76 -1.9,5.71l-1.91 0c-0.61,-2.32 -15.22,-21.42 -17.11,-28.53 3.62,0.84 3.78,0.95 8.55,0.95 -0.67,-2.52 -5.93,-7.92 -10.16,-15.51 -1.44,-2.58 -2.05,-3.22 -3.49,-6.02 -1.78,-3.5 -8.81,-22.46 -11.07,-24.11 -1.72,3.58 -3.08,8.5 -4.78,12.33 -4.64,10.51 -8.04,18.51 -15.18,27.61 -1.91,2.43 -2.99,2.64 -3.81,5.7 4.78,0 4.93,-0.11 8.56,-0.95 -0.61,2.29 -2.64,5.47 -3.85,7.56 -1.37,2.34 -2.55,4.59 -4.15,7.26 -1.52,2.55 -2.93,4.5 -4.54,6.88 -1.85,2.74 -3.51,4.5 -5.53,6.83 -1.21,-5.19 -4.5,-8.13 -5.71,-13.32l-1.9 0c-0.81,3.49 -2.49,5.97 -4.1,9.21 -4.28,8.56 -3.99,3.3 -4.46,8.86l1.91 0c-0.75,3.18 -4.47,8.86 -6.66,10.46 2.01,4.99 -2.83,-3.74 0.94,1.1 4.57,5.86 -4.81,4.99 -11.4,4.61 -4.32,-0.24 -5.2,-0.98 -10.43,-0.99l-98.12 -4.58c-11.6,-1.28 -12,5.46 -25.53,-20.11 2.76,0.65 5.8,1.26 8.56,1.9 -0.35,-4.21 -2.39,-4.08 -7.8,-12.16 -2.29,-3.42 -6.48,-9.47 -7.42,-13.51l4.76 0c-0.37,-4.44 0.11,-1.34 -4.39,-7.98 -2.21,-3.26 -3,-4.88 -4.81,-8.5l-7.92 -18.7c-3.4,2.49 -0.78,0.72 -4.43,8.88 -2.75,6.19 -5.22,12.3 -8.87,17.76 -4.68,7 -4.38,3.92 -4.77,8.54l4.76 0c-0.91,3.9 -8.64,15.99 -11.27,19.16 -2.47,2.99 -3.58,2.13 -3.95,6.51 2.76,-0.64 5.8,-1.25 8.56,-1.9l-10.46 17.12c-8.71,0 -16.55,0.01 -23.91,-0.81 -7.5,-0.84 -16.85,0.28 -24.59,-0.14l-36.15 -0.93c-5.52,0.02 -6.97,-0.74 -11.39,-0.98 -23.63,-1.27 -72.34,0.01 -98.9,0.01l-19.97 -32.34c6.66,1.56 12.44,4.76 19.97,4.76l-17.68 -25.11c-4.75,-7.26 -13.69,-19.95 -15.6,-28.14 3.69,1.77 7.72,1.9 13.31,1.9 -1.42,-5.32 -7.72,-10.96 -10.85,-15.77 -7.13,-10.96 -12.71,-23.19 -17.94,-35.31 -1.48,-3.42 -2.43,-6.03 -3.81,-9.51 -1.29,-3.25 -2.02,-7.02 -4.48,-8.83 -2.46,1.81 -3.19,5.58 -4.48,8.83 -7.26,18.24 -15.17,37.17 -27.3,52.58 -2.24,2.84 -4.33,4.34 -5.31,8.01 5.59,0 9.62,-0.13 13.31,-1.9 -1.73,7.42 -7.38,14.73 -11.23,21.1 -1,1.65 -1.9,3.11 -2.9,4.71 -1.48,2.39 -1.84,2.44 -2.03,5.52l0 17.16c1.51,0.76 -1.75,0.98 2.85,0 -1.77,2.65 -2.54,5.8 -2.85,9.16l0 13.67 0 386.07c5,0 7.14,-0.17 9.81,2.56 7.02,7.17 2.07,24.29 8.26,28.82 0.49,-2.13 1.43,-6.01 1.67,-7.84 0.44,-3.46 0.2,-6.25 0.73,-9.72 2.37,-15.39 11.3,-14.26 12.91,-6.31 0.68,3.38 0.85,6.26 0.85,10.56l1.9 0c0.88,-3.75 1.34,-7.31 2.86,-10.46 23.75,0 21.3,17.33 21.84,35.21l4.78 31.35c5.34,-22.89 -1.19,-23.22 6.51,-50.55 2.12,-7.53 6.24,-14.29 13.7,-15.83 11.95,-2.46 11.95,7.2 15.93,13.13 3.27,-2.4 6.61,-13.28 22.82,-9.51 1.26,5.41 1.63,16.32 1.89,21.88 0.26,5.34 0.22,6.93 0.94,11.42 0.27,1.62 0.47,3.79 0.77,4.94 0.9,3.49 -0.79,2.57 3.06,3.6 0.07,-3.33 1.28,-9.75 1.67,-12.64 1.05,-7.91 -3.26,-30.99 7.84,-33.95 2.73,2.59 3.81,6.41 4.75,10.46l1.9 0c2.69,-11.53 10.69,-8.7 18.09,-8.48 10.97,0.34 11.18,-7.83 20.9,-8.64 2.35,4.44 0.67,11.97 5.7,13.31 0.61,-2.61 1.3,-4.99 1.91,-7.6 9.58,-0.22 0.91,-6.68 10.57,-7.4 3.85,-0.28 8.05,1 16.37,-0.01 15.23,-1.85 5.82,17.36 13,22.62 3.15,-6.57 1.62,-15.72 7.6,-20.92 5.97,3.16 3.32,3.79 7.61,6.66 4.79,-3.52 3.06,-9.77 11.41,-10.46 3.96,7.48 3.57,11.11 3.25,20.09 -0.08,2.23 1.26,8.18 1.2,10.36 -0.12,4.38 -3.24,7.05 3.16,7.58 0.44,-5.33 0.97,-9.37 0.95,-16.16 -0.02,-6.13 -0.56,-12.08 2.29,-15.78 4.49,-5.79 11.96,-5.76 18.29,-2.91 6.52,2.94 7.14,1.29 10.85,7.23 7.02,11.26 4,-1.53 8.27,18.35 2.6,12.13 1.8,26.25 2.5,27.93 1.58,3.76 -0.47,1.19 2.49,2.26 2.36,-4.92 1.94,-20.58 1.89,-28.54 -0.02,-3.31 0.39,-11.73 1.45,-13.77 2.45,-4.72 8.61,-1.24 11.88,-0.48 0,4.51 -0.56,8.27 0.95,11.41 4.08,-2.98 -0.44,-15.21 6.65,-15.21 4.22,1.13 4.76,3.3 4.76,8.56l2.85 0c0.31,-3.67 0.95,-3.07 0.95,-7.61 3.88,1.56 0.16,1.38 3.81,2.85 1,-2.08 1.66,-3.74 1.9,-6.65 4.43,0.09 5.02,1.11 7.61,2.85 4.63,-1.08 3.87,-2.73 9.5,-2.85 2.19,3.26 4.34,6.35 4.76,11.41 3.55,-0.95 3.16,-2.42 4.73,-5.73 2.55,-5.37 8.53,-7.45 13.16,-3.61 3.95,3.26 2.07,3.45 3.98,7.44 3.73,-1.35 2.55,-5.29 7.61,-5.71 5,7.47 0.89,22.38 4.75,30.43 3.84,-2.81 3.86,-11.04 3.83,-16.15 -0.05,-7.6 -0.4,-13.61 5.68,-15.23 8.73,0 3.92,35.19 6.66,40.89 5.6,-1.5 3.49,-10.96 4.2,-15.77 0.89,-5.99 0.55,-12.95 0.55,-19.42 2.86,-1.91 1.43,-2.18 5.45,-3.15 8.96,-2.17 11.24,7.76 15.47,8.86 5.03,1.3 9.56,-9.94 9.48,16.2 -0.01,4.98 0.68,5.78 0.98,9.47 7.31,-1.95 3.19,-21.96 3.72,-27.61 0.45,-4.75 1.82,-4.72 6.74,-4.72 1.77,3.7 1.91,7.72 1.91,13.32 4.39,-1.18 2.85,-3.77 2.85,-9.51 7.73,4.09 7.01,16.78 8.15,25.13l3.42 22.25c0.85,3.85 0.15,3.98 3.64,4.92l-1.01 -18.07c0,-5.49 1.84,-11.38 1.99,-17.09 0.24,-8.96 -1.39,-10.02 3.11,-15.91 3.07,-4 3.52,-9.73 3.52,-15.5l3.8 4.76c0.84,-3.58 0.39,-3.9 2.86,-5.71 1.17,2.45 1.9,5.8 1.9,9.51l1.9 0c0.1,-4.39 1.37,-12.12 2.85,-15.21 10.35,0 1.95,1.09 8.56,2.85 4.26,-2.85 7.63,-5.94 9.96,0.5 3.2,8.83 0.5,14.78 4.3,17.57 1.92,-8.21 1.26,-18.43 9.74,-19.81 4.01,-0.66 9.07,1.83 12.76,1.32 4.73,-0.65 6.2,-3.26 11.74,-3.38 1.97,1.87 3.63,3.9 5.7,5.7 3.63,-0.97 2.12,-1.9 4.76,-2.85l2.85 22.82c3.82,-1.02 3.31,-4.55 3.68,-8.68 0.43,-4.78 -0.64,-7.7 1.08,-11.29 6.23,0.68 0.32,2.34 8.41,3.95 4.73,0.94 5.25,1.1 7,5.36 3.7,8.98 1.64,17.02 3.6,21.12 4.02,-1.45 2.59,-4.22 3.4,-8.96 0.33,-1.95 1.51,-9.34 2.12,-10.26 2.44,-3.68 3.5,2.18 7.73,-2.67 0.82,-0.93 3.58,-6.69 4.82,-8.54l6.66 0c1.86,2.77 2.26,4.69 3.8,7.61 6.03,-1.41 3.7,-2.68 8.72,-0.22 3.84,1.87 5.63,0.61 10.3,0.22 0.17,7.73 2.1,5.69 6.66,6.66 0.57,6.85 0.32,18.89 1.9,25.67l1.9 0c0.23,-10.18 2.65,-22.02 7.61,-31.38 5.55,2.94 5.73,4.53 12.69,4.06 5.36,-0.36 13.28,-3.39 15.3,1.23 1.72,3.95 0.36,12.78 0.5,17.56 0.16,5.25 1.52,12.13 1.94,17.09 4.34,-1.16 3.59,-4.82 4.25,-9.06 1.68,-10.86 -0.46,-17.15 5.84,-27.45 1.67,-2.74 1.46,-1.36 2.27,-4.38 7.26,0.16 2.9,3.35 11,3.41 8.02,0.06 5.76,2.1 9.92,5.15 1.86,-3.52 2.43,-5.85 6.07,-8.21 4.63,-3 6.35,-2.27 10.69,-0.02 9.77,5.07 13.61,-3.28 20.04,-6.32 29.21,-13.84 18.34,23.23 25.96,28.81 2.22,-9.52 1.45,-30.65 10.46,-29.48 6.5,0.84 5.71,10.74 5.71,16.17l1.9 0c0.87,-3.75 1.34,-7.31 2.85,-10.46 5.89,0 14.62,2.36 17.18,5.64 5.44,6.96 4.39,20.45 4.66,29.57l4.79 31.35c1.24,-5.34 3.3,-12.35 2.74,-18.85 -0.26,-2.97 -1.02,-2.54 -0.83,-6.74 0.58,-12.18 4.7,-37.99 18.29,-40.79 11.96,-2.46 11.96,7.2 15.93,13.13 4.45,-3.26 0.76,-4.7 8.83,-8.28 5.03,-2.23 8.4,-2.53 13.99,-1.23 2.51,10.76 0.77,27.27 3.6,38.24 0.9,3.49 -0.79,2.57 3.06,3.6 0.07,-3.33 1.28,-9.75 1.67,-12.64 1.06,-7.91 -3.25,-30.99 7.84,-33.95 2.73,2.59 3.81,6.41 4.75,10.46l1.91 0c3.78,-16.27 17.13,-3.35 28.66,-12.23 3.62,-2.78 5.27,-3.71 10.32,-4.89 2.35,4.44 0.67,11.97 5.71,13.31 0.61,-2.61 1.29,-4.99 1.9,-7.6 9.56,-0.22 0.92,-5.82 9.82,-7.31 3.03,-0.51 9.94,1.01 16.31,0.05 14.3,-2.17 8.56,13.52 12.86,22.47 2.9,-2.12 2.37,-5.46 3.24,-10.07 0.98,-5.22 2.46,-5.81 3.41,-9.9 8.59,0 4.13,2.1 9.51,5.71 5.25,-3.51 2.65,-9.73 11.42,-10.46 3.93,7.44 3.73,11.13 3.16,20.18 -0.16,2.44 1.18,8.31 1.17,10.39 -0.02,4.39 -3.04,6.94 3.27,7.46 0.45,-5.33 0.97,-9.37 0.95,-16.16 -0.02,-6.13 -0.56,-12.08 2.3,-15.78 4.48,-5.79 11.95,-5.76 18.29,-2.91 2.77,1.25 5.37,1.39 7.14,2.38l7.73 9.38c3.79,4.11 6.44,23.44 6.41,28.78 -0.02,2.84 -0.13,5.83 -0.1,8.65 0.06,6.26 0.05,5.54 2.93,6.58 2.36,-4.92 1.93,-20.58 1.88,-28.54 -0.1,-17.81 1.29,-17.05 13.33,-14.25 0,5.53 -0.07,7.03 0.95,11.41 4.08,-2.98 -0.43,-15.21 6.66,-15.21 4.21,1.13 4.75,3.3 4.75,8.56l2.85 0c0.31,-3.67 0.96,-3.07 0.96,-7.61 3.87,1.56 0.15,1.38 3.8,2.85 1,-2.08 1.66,-3.74 1.9,-6.65 4.43,0.09 5.02,1.11 7.61,2.85 4.64,-1.08 3.87,-2.73 9.51,-2.85 2.18,3.26 4.33,6.35 4.75,11.41 5.59,-1.49 3.8,-9.36 9.92,-11.11 8.65,-2.48 10.14,5.43 11.95,9.21 3.73,-1.35 2.55,-5.29 7.61,-5.71 5,7.47 0.89,22.38 4.76,30.43 3.83,-2.81 3.85,-11.04 3.82,-16.15 -0.04,-7.6 -0.4,-13.61 5.69,-15.23 6.76,1.81 4.42,10.88 5.44,18.33 0.96,6.96 -1.35,17.22 1.21,22.56 3.42,-0.91 3.14,-1.94 3.62,-5.89 1.18,-9.63 1.14,-19.27 1.14,-29.3 3.67,-2.45 6.41,-4.77 11.86,-2.42 4.56,1.96 5.46,5.72 9.06,8.13 5.02,1.3 9.55,-9.94 9.48,16.2 -0.02,4.98 0.67,5.78 0.98,9.47l1.9 -526.8c-2.83,2.07 -2.06,2.38 -3.54,5.96 -1.17,2.82 -2.13,4.27 -3.44,7.03l-6.65 13.32c-2.81,5.25 -15.1,21.26 -15.85,24.08 5.59,0 9.62,-0.13 13.31,-1.9 -1.81,7.79 -10.72,20.84 -15.2,27.59l-18.08 25.66c7.97,0 13.32,-3.2 19.97,-4.75 -4.36,6.51 -14.59,26.97 -20.33,31.97 -2.4,2.1 -2.19,1.31 -6.3,1.31 -1.38,-2.06 -1.79,-3.28 -3.8,-4.75 1.57,-3.88 1.38,-0.16 2.85,-3.81 -2.19,-1.6 -5.91,-7.28 -6.65,-10.46z"/>
 </g>
</svg>
