<?xml version="1.0" encoding="utf-8"?>
<!-- Generator: Adobe Illustrator 23.0.3, SVG Export Plug-In . SVG Version: 6.00 Build 0)  -->
<svg version="1.1" id="Capa_1" xmlns="http://www.w3.org/2000/svg" xmlns:xlink="http://www.w3.org/1999/xlink" x="0px" y="0px"
	 viewBox="0 0 33 33" style="enable-background:new 0 0 33 33;" xml:space="preserve">
<style type="text/css">
	.st0{fill:#FF8200;}
</style>
<g>
	<g>
		<path class="st0" d="M28.2,4.8C25,1.7,20.9,0,16.5,0S8,1.7,4.8,4.8S0,12.1,0,16.5S1.7,25,4.8,28.2S12.1,33,16.5,33
			s8.5-1.7,11.7-4.8S33,20.9,33,16.5S31.3,8,28.2,4.8z M26.8,26.8c-2.8,2.8-6.4,4.3-10.3,4.3s-7.6-1.5-10.3-4.3
			c-5.7-5.7-5.7-15,0-20.7c2.8-2.8,6.4-4.3,10.3-4.3s7.6,1.5,10.3,4.3C32.5,11.9,32.5,21.1,26.8,26.8z"/>
		<path class="st0" d="M23.8,9.2c-0.4-0.4-1-0.4-1.3,0l-5.9,5.9l-5.9-5.9c-0.4-0.4-1-0.4-1.3,0s-0.4,1,0,1.3l5.9,5.9l-5.9,5.9
			c-0.4,0.4-0.4,1,0,1.3C9.4,24,9.7,24,9.9,24s0.5-0.1,0.7-0.3l5.9-5.9l5.9,5.9c0.2,0.2,0.4,0.3,0.7,0.3c0.2,0,0.5-0.1,0.7-0.3
			c0.4-0.4,0.4-1,0-1.3l-5.9-5.9l5.9-5.9C24.1,10.2,24.1,9.6,23.8,9.2z"/>
	</g>
</g>
</svg>
