<svg xmlns="http://www.w3.org/2000/svg" width="650.438" height="189.625" viewBox="0 0 650.438 189.625">
  <defs>
    <style>
      .cls-1 {
        fill: #f8f8f8;
        fill-rule: evenodd;
      }
    </style>
  </defs>
  <path id="Мандарим_в_виктории_" data-name="Мандарим в «виктории»!" class="cls-1" d="M85.592,346.78l1.933,0.282,0.4,2.457a3.567,3.567,0,0,0,1.53.363,4.9,4.9,0,0,0,1.651-.2,5.822,5.822,0,0,0,1.933-1.087q5.075-4.188,7.21-23.682a183.436,183.436,0,0,0,1.168-18.648l-1.893-2.014,0.2-1.812h13.533l0.121,2.134q-1.532.081-1.491,1.168a79.234,79.234,0,0,0,4.35,22.233,47.379,47.379,0,0,0,3.5,8.256q1.853,3.262,3.182,3.182,2.94-.282,5.075-5.76a57.689,57.689,0,0,0,2.9-11.881,143.679,143.679,0,0,0,1.611-17.117l-1.692-.322,0.524-1.692,13.613-.806-0.2,2.175q-2.459.726-2.457,0.967,0.522,24.569,1.611,32.825a30.643,30.643,0,0,0,1.893,7.854q1.208,2.577,3.141,2.98a4.124,4.124,0,0,0,2.9-.564,9.41,9.41,0,0,0,2.457-2.014,18.781,18.781,0,0,0,2.3-3.141l-0.484-1.289,1.128-1.571,7.934,8.055-0.6,1.732-2.376.323a17.448,17.448,0,0,1-3.625,3.745,17.79,17.79,0,0,1-4.35,2.5,14.5,14.5,0,0,1-5.84,1.047,11.876,11.876,0,0,1-8.981-3.826,15.836,15.836,0,0,1-3.5-7.974,31.461,31.461,0,0,1,0-11.439,37.075,37.075,0,0,1-3.383,8.982A20.178,20.178,0,0,1,128,349.157a8.973,8.973,0,0,1-6.767,2.215q-2.778-.282-5.477-3.464a28.6,28.6,0,0,1-4.149-6.766,54.252,54.252,0,0,1-3.463-9.586q-2.741,16.635-8.055,22.474-4.23,4.713-9.264,4.793a8.406,8.406,0,0,1-4.149-.846l-2.255,1.571-1.41-.765Zm73.061-22.232a9.54,9.54,0,0,0,1.49-1.611,10.351,10.351,0,0,0-1.853-.4l-0.846-.08c-0.268-.027-0.5-0.041-0.684-0.041l-1.531,1.773h1.047q0.523,0,1.007.04a3.848,3.848,0,0,1,1.37.322h0Zm-4.068,1.651a6.518,6.518,0,0,0,3.383-1.127,6.767,6.767,0,0,1-.725-0.121,11.934,11.934,0,0,0-1.973,0h-0.725l-0.967,1.168a7.8,7.8,0,0,0,1.007.08h0Zm-1.208-6.323a6.616,6.616,0,0,0-.806,3.464,9.1,9.1,0,0,0,.322,2.255l0.967-.886v-0.362l0.08-.161v-0.323a5.492,5.492,0,0,1,.041-0.684v-0.846a3.792,3.792,0,0,0-.6-2.457h0Zm2.456-2.5a6.468,6.468,0,0,0-2.094,1.973v-0.08a2.128,2.128,0,0,1,.725,1.369,5.668,5.668,0,0,1,.2,1.652,15.223,15.223,0,0,1,0,1.57l1.209-1.53h-0.041l0.041-.4v-0.161a1.937,1.937,0,0,0,.08-0.524c0.027-.268.041-0.509,0.041-0.725l0.08-.845a5.339,5.339,0,0,0-.242-2.3h0Zm1.048-.524-0.443.2a6.229,6.229,0,0,1,.322,2.618v0.886a4.071,4.071,0,0,0-.081.805l1.047-1.45,0.121-.443a8.976,8.976,0,0,0,.121-2.175v-0.523l-0.04-.161-0.081-.081,0.081-.08Zm4.712,2.095a4.154,4.154,0,0,0,.08-1.128,4.827,4.827,0,0,0-.322-1.732q-0.846,1.37-1.893,2.779c0.376-.026.7-0.04,0.967-0.04a3.558,3.558,0,0,1,1.168.121h0Zm-2.819.765-1.491,1.973q0.645,0.082,1.128.121l1.088,0.2a4.682,4.682,0,0,1,1.006.282,7.9,7.9,0,0,0,.967-2.618l-0.04.04a0.537,0.537,0,0,0-.282-0.121,3.376,3.376,0,0,0-.725-0.08,5.3,5.3,0,0,0-.846.08,6.2,6.2,0,0,1-.805.121h0Zm-0.2-3.3a2.021,2.021,0,0,1,.161.886q0,0.525-.08,1.37l1.852-2.86a10.071,10.071,0,0,0-1.973.443Zm-3.987,10.512a6.188,6.188,0,0,1-1.651-.161,11.93,11.93,0,0,1-1.45,1.45q-0.484.322-.564,0.081a0.972,0.972,0,0,1,.241-0.806,7.318,7.318,0,0,1,1.168-1.289,11.109,11.109,0,0,1-.483-2.819v-0.04a7.035,7.035,0,0,1,1.45-4.672,8.06,8.06,0,0,1,3.343-2.457,11.958,11.958,0,0,1,3.222-1.047c0.376-.081.751-0.148,1.128-0.2h0.6l0.121,0.2a6.074,6.074,0,0,1,.684,2.658,9.243,9.243,0,0,1-1.288,4.914,7.59,7.59,0,0,1-6.525,4.188h0Zm34.439,0.161,12.969-.523q-3.343-15.627-5.195-15.587a24.79,24.79,0,0,0-2.82.2,1.509,1.509,0,0,0-1.007.323q-0.242,1.087-1.731,7.048-1.532,6.2-2.216,8.538h0Zm35.04,26.583q0.564-.122.524,2.013L211.9,359.628q-1.611-1.973-1.007-2.376a3.411,3.411,0,0,0,1.289-1.53q-1.651-4.431-6.927-16.634-1.531-3.5-3.021-4.028a2.57,2.57,0,0,0-1.208-.04l-0.524.121q-0.322.041-.524,0.08-2.135.081-6.565,0.161l-5.558.2a11.141,11.141,0,0,0-1.732,4.027l-0.04.041-0.04.04-0.04.08a1.561,1.561,0,0,0-.081.2,1.713,1.713,0,0,0-.161.322q-0.2.4-.4,0.926-0.242.685-.523,1.49a104.509,104.509,0,0,0-2.9,12.889q1.972,0.966,1.933,1.772l-0.644,2.054a32.166,32.166,0,0,0-11-1.571,9.418,9.418,0,0,0-2.5.363q-1.531-2.376-.765-2.658a10.709,10.709,0,0,0,1.732-.685q10.591-31.7,13.613-40.518,0.442-1.288,1.087-3.423l0.484-1.652q0.28-.885.483-1.53a11.467,11.467,0,0,1,2.094-4.35,5.414,5.414,0,0,1,1.934-.483q1.851-.323,3.987-0.524,5.8-.562,7.33.282,1.209,0.726,9.264,23.32l1.57,4.39q0.927,2.579,1.531,4.31,1.731,4.833,2.9,7.974a83.817,83.817,0,0,0,4.189,10.19q0.764,1.249.765,1.249l2.134-.443h0Zm-40.437-48.895a1.3,1.3,0,0,1-.161.563l-0.08.2-0.041.08-0.04.041-0.121-.041,0.121,0.081q-2.015,4.149-6.887,18.648-1.773,5.316-3.665,11.116-1.57,4.833-2.5,7.854-0.363,1.128-1.249,3.987-0.322,1.007-.685,2.054c-0.08.269-.161,0.537-0.241,0.806a2.443,2.443,0,0,0-.161.483q0.12,0.161.2,0.282a2.124,2.124,0,0,1,.121.443v0.121a0.918,0.918,0,0,1-1.128.926,2.213,2.213,0,0,1-.6-0.161,1,1,0,0,1-.443-0.967l-0.04-.04a0.924,0.924,0,0,1,.161-0.524,1.2,1.2,0,0,1,.564-0.362l0.04-.081a2.928,2.928,0,0,0,.242-0.563q0.281-.726.805-2.3,0.322-1.007,1.088-3.5l0.322-1.047,0.362-1.088q0.4-1.288.725-2.376,0.282-.806.443-1.37,0.282-.845.524-1.611,0.644-2.053,1.248-3.947,1.692-5.114,3.142-9.464,4.147-12.325,6.4-17.48l-0.04-.04,0.161-.2,0.08-.161,0.081-.121,0.08-.121,0.081-.161,0.121-.161a0.523,0.523,0,0,1,.4-0.241l0.041-.041h0.04q0.161,0.04.282,0.081a0.39,0.39,0,0,1,.161.241l0.04,0.081v0.081Zm41.141-1.491q5.84-.242,14.782-0.725a1.181,1.181,0,0,1,.443,1.37q-0.242.846-2.014,0.805l0.322,22.353q23.321,1.29,23.642-.523a59.223,59.223,0,0,0,.282-20.7,4.87,4.87,0,0,1-1.974-.806,4.214,4.214,0,0,1-.6-1.892l13.936-1.289-0.242,1.651q-1.974.6-1.893,0.926,1.007,3.061,1.531,23.36,0.12,3.707.2,8.3,0.039,3.223.121,8.055,0.161,10.311.241,12.969,0,0.525,2.337.766l0.2,1.852-14.419.282-0.04-1.611q1.934,0.322,2.3-.926a20.975,20.975,0,0,0,.08-3.826q-0.081-3.5-.322-7.17-0.724-10.027-1.974-9.867a36.241,36.241,0,0,1-6.323.04q-1.25-.079-3.7-0.282l-1.893-.121-1.813-.12a43.991,43.991,0,0,0-6.242-.041q-2.578.322-2.578,1.531,0,1.812.121,18.929,1.851,0.283,2.134.766,0.363,0.6-.443,2.134l-13.774-.2-0.161-1.732q1.53,0.081,1.691-.886a119.181,119.181,0,0,0,1.048-18.446q-0.122-8.1-1.007-17.561-0.324-3.423-.766-7.129-0.161-1.368-.322-2.9-0.081-.6-0.161-1.289-0.081-.443-0.161-1.128-0.523-4.068-.242-3.1l-1.651-.484Zm34.839,69.436a2.7,2.7,0,0,0,1.289,1.329,1.88,1.88,0,0,0,1.651.04,1.852,1.852,0,0,0,1.007-1.288,2.808,2.808,0,0,0-.242-1.853,2.7,2.7,0,0,0-1.288-1.329,1.877,1.877,0,0,0-1.611,0,1.849,1.849,0,0,0-1.007,1.289,2.538,2.538,0,0,0,.2,1.812h0Zm70.409-42.625,3.138-44.673a3.4,3.4,0,0,0-.8-3.692,5.908,5.908,0,0,0-2.523-.738l-16.06.553q-4.677.248-5.23,0.923a4.9,4.9,0,0,0-1.108,3.631l1.539,43.627Zm31.689,27.136-0.369,2.953H342.445l-1.107-3.692,3.261-.738,2.4-10.707q-53.165-2.954-52.426.739a38.084,38.084,0,0,0,1.846,6.707,6.546,6.546,0,0,0,1.538,2.646,0.879,0.879,0,0,0,1.477,0l2.154,0.369v4.369l-20.306-.37v-3.261l1.6-.738a21.82,21.82,0,0,0-1.354-9.722l-0.8-2.154-0.8-2.092q-1.047-2.585-1.538-4.123c-0.083-.286-0.164-0.594-0.246-0.923l-0.123-.369-0.062-.246c-0.123-.41-0.206-0.677-0.246-0.8a1.906,1.906,0,0,1,.369-1.108,9.074,9.074,0,0,1,1.354-1.477l17.844-2.03-3.138-54.149a4.581,4.581,0,0,1,.862-3.692l0.184-.246,0.185-.246a4.529,4.529,0,0,1,.492-0.431,5.723,5.723,0,0,1,2.462-.554q6.213-.554,22.09-0.984,14.4-.308,21.782-0.246a4.075,4.075,0,0,1,2.4.738,2.9,2.9,0,0,1,.431.554l0.123,0.246,0.061,0.185q0.984,1.724.923,5.661-0.123,16.059-3.076,53.533a90.08,90.08,0,0,1,10.522,0q10.4,0.553,9.722,3.261-1.107,4.371-5.415,23.137h3.815Zm37.617-47.319,19.814-.8q-5.109-23.874-7.938-23.813a37.632,37.632,0,0,0-4.307.308q-1.539.246-1.539,0.492-0.369,1.661-2.646,10.768-2.339,9.477-3.384,13.045h0Zm53.533,40.612q0.861-.186.8,3.076l-19.382,6.03q-2.463-3.013-1.539-3.63a5.209,5.209,0,0,0,1.969-2.338q-2.523-6.768-10.583-25.413-2.34-5.353-4.615-6.154a3.945,3.945,0,0,0-1.846-.061l-0.8.185c-0.329.041-.595,0.082-0.8,0.123q-3.262.123-10.03,0.246l-8.491.307q-1.355,1.539-2.646,6.154l-0.062.061-0.061.062-0.062.123a2.24,2.24,0,0,0-.123.307,2.711,2.711,0,0,0-.246.493q-0.309.615-.615,1.415-0.371,1.047-.8,2.277a160,160,0,0,0-4.431,19.69q3.015,1.477,2.954,2.708l-0.985,3.138q-9.908-2.892-16.8-2.4a14.363,14.363,0,0,0-3.815.554q-2.34-3.63-1.169-4.061a16.278,16.278,0,0,0,2.646-1.046q16.182-48.426,20.8-61.9,0.677-1.969,1.661-5.231l0.739-2.522q0.429-1.353.738-2.339,1.66-5.169,3.2-6.645a8.258,8.258,0,0,1,2.953-.739q2.831-.49,6.092-0.8,8.861-.861,11.2.431,1.845,1.109,14.152,35.628l2.4,6.707q1.414,3.938,2.338,6.584,2.646,7.383,4.431,12.183,4.614,12.553,6.4,15.568,1.168,1.908,1.169,1.907l3.261-.676h0Zm-61.778-74.7a2,2,0,0,1-.246.861l-0.124.308-0.061.123-0.062.062-0.184-.062,0.184,0.123q-3.076,6.339-10.522,28.49-2.707,8.123-5.6,16.983-2.4,7.383-3.815,12-0.554,1.724-1.908,6.091-0.494,1.539-1.046,3.139l-0.369,1.23a3.82,3.82,0,0,0-.246.739c0.123,0.164.225,0.307,0.308,0.43a3.348,3.348,0,0,1,.184.677V347.2q0,1.416-1.723,1.415a3.358,3.358,0,0,1-.923-0.246,1.526,1.526,0,0,1-.677-1.477l-0.061-.061a1.415,1.415,0,0,1,.246-0.8,1.849,1.849,0,0,1,.861-0.554l0.062-.123a4.459,4.459,0,0,0,.369-0.862q0.43-1.107,1.231-3.507,0.492-1.537,1.661-5.353l0.493-1.6,0.553-1.662q0.615-1.968,1.108-3.63,0.429-1.23.677-2.092,0.429-1.293.8-2.461,0.983-3.139,1.907-6.031,2.585-7.813,4.8-14.46,6.336-18.828,9.783-26.7l-0.061-.062,0.246-.307,0.123-.246,0.123-.185,0.123-.185,0.123-.246,0.185-.246a0.8,0.8,0,0,1,.615-0.369l0.062-.062h0.061c0.164,0.042.308,0.083,0.431,0.124a0.6,0.6,0,0,1,.246.369l0.062,0.123v0.123ZM507.65,299.142q1.784-11.875-11.015-15.445a37.173,37.173,0,0,0-10.153-1.292,27.862,27.862,0,0,0-7.2.738q-1.539.369-1.969,4.615a59.067,59.067,0,0,0-.061,9.107q0.429,6.524,1.353,12.86a47.5,47.5,0,0,0,13.661.493,23.584,23.584,0,0,0,9.906-2.892,10.99,10.99,0,0,0,5.477-8.184h0Zm-45.165-25.659a1.748,1.748,0,0,1,1.846-1.354c0.328-.04,1.025-0.062,2.092-0.062H467.9q0.923,0,1.723-.061l1.6-.062,1.6-.123q1.907-.06,3.508-0.123,4.184-.123,7.63-0.123a85.616,85.616,0,0,1,16,1.415q18.645,3.693,20.8,17.353a29.994,29.994,0,0,1-1.107,14.891,25.452,25.452,0,0,1-8.061,11.322q-12.061,9.845-33.659,7.814l0.985,29.782,4.369,1.354-0.493,4.122-20.059-.184-1.415-2.523,3.938-.923-1.539-75.439a9.468,9.468,0,0,1-1.23-7.076h0Zm-5.907,7.26a2.467,2.467,0,0,0,0,1.108V282.1l0.061,0.185v0.246h0q1.23,8.122,1.6,26.274,0.123,3.324.123,7.384,0.06,2.648.123,7.077,0.06,8.922.123,12.122,0.061,2.154.246,7.753,0.061,1.97.123,4.061,0,0.863.062,1.538v1.046a2.121,2.121,0,0,0-.431.431,2.191,2.191,0,0,0-.369.677l-0.062.246a1.637,1.637,0,0,0,1.416,2.154,1.991,1.991,0,0,0,.984,0,2.038,2.038,0,0,0,1.108-1.539v-0.061a2.253,2.253,0,0,0,0-1.046,1.575,1.575,0,0,0-.677-0.862l-0.062-.184c-0.041-.247-0.082-0.636-0.123-1.17q-0.123-1.476-.246-4.553-0.062-1.906-.184-6.892l-0.062-2.03L460.27,332.8q-0.063-2.522-.124-4.676-0.061-3.63-.123-10.215v-5.476q0-3.261-.061-5.723a212.472,212.472,0,0,0-1.354-23.936h0.062l-0.123-.431-0.062-.369c-0.041-.163-0.083-0.348-0.123-0.554l-0.062-.246-0.123-.369a1.174,1.174,0,0,0-.553-0.615l-0.062-.062H457.5v-0.061a1.392,1.392,0,0,0-.431.061,0.55,0.55,0,0,0-.369.308l-0.123.184h0v0.123Zm69.06-8.86q0.307,0,3.2.307,1.168,0.125,3.016.308l1.6,0.123,1.723,0.185q9.168,0.923,9.907.923a0.719,0.719,0,0,1,.615.677,3.722,3.722,0,0,1,0,1.353,2.885,2.885,0,0,1-.43,1.231q-0.309.494-.677,0.246-1.109-.738-4,0.615l-1.784,56.8a178.921,178.921,0,0,0,16.306-17.967q6.03-7.507,13.906-18.46,1.168-1.722,2.954-4.246L573.387,292l1.354-1.908q3.138-4.368,4.922-6.768,4.738-6.276,6.584-7.138,1.6-.677,8.738-0.677-0.738,15.876,2.831,77.9a8.448,8.448,0,0,1,3.322.615q0.677,0.615-.061,2.707l-19.445,3.015-1.292-4a2.728,2.728,0,0,1,1.969-1.108q1.416,0-2.4-46.518-11.2,13.6-23.26,26.582A231.767,231.767,0,0,1,539.3,352q-8.492,7.385-10.707,5.661-3.323-2.521-3.384-31.689-0.061-27.137,2.031-39.689a36.534,36.534,0,0,0,.615-7.753,4.581,4.581,0,0,0-.985-2.953,2.948,2.948,0,0,0-2.153-.923ZM599.6,287.574a4.429,4.429,0,0,0,0,1.046l0.123,0.43V289.3q0.677,6.954,1.354,21.9l0.246,6.092,0.185,2.953,0.123,2.954q0.306,6.892.492,10.707,0.123,2.029.431,7.384,0.122,1.785.246,3.815,0.06,0.738.123,1.476v0.554a1.189,1.189,0,0,1,.061.369l-0.369.493a2.169,2.169,0,0,0-.369.677l-0.062.184a1.533,1.533,0,0,0,1.354,1.969,1.442,1.442,0,0,0,.923-0.061,1.969,1.969,0,0,0,.923-1.539l0.062-.061a2.691,2.691,0,0,0-.062-0.985,1.324,1.324,0,0,0-.677-0.8V347.26a6.265,6.265,0,0,1-.184-1.169q-0.185-1.353-.37-4.246-0.123-1.845-.369-6.522l-0.123-1.969-0.123-2.031q-0.124-2.337-.246-4.368-0.738-12.121-1.846-38.028l-0.062-.307h-0.061a1.1,1.1,0,0,0-.123-0.493l-0.062-.246-0.123-.369a0.986,0.986,0,0,0-.43-0.554l-0.124-.061H600.4a1.189,1.189,0,0,0-.369.061,0.559,0.559,0,0,0-.308.308l-0.123.185v0.123ZM611.837,340l2.953,0.431,0.615,3.754a5.432,5.432,0,0,0,2.339.553,7.455,7.455,0,0,0,2.522-.307,8.9,8.9,0,0,0,2.954-1.662q7.754-6.4,11.014-36.181a280.265,280.265,0,0,0,1.785-28.489l-2.892-3.077,0.307-2.769h20.675l0.185,3.261q-2.338.125-2.277,1.785a121.044,121.044,0,0,0,6.646,33.966,72.458,72.458,0,0,0,5.353,12.614q2.831,4.985,4.861,4.861,4.491-.43,7.753-8.8a88.075,88.075,0,0,0,4.431-18.152,219.048,219.048,0,0,0,2.461-26.152l-2.584-.492,0.8-2.584,20.8-1.231-0.308,3.323q-3.754,1.107-3.753,1.477,0.8,37.534,2.461,50.149a46.841,46.841,0,0,0,2.892,12q1.846,3.938,4.8,4.553a6.306,6.306,0,0,0,4.431-.861,14.426,14.426,0,0,0,3.753-3.077,28.637,28.637,0,0,0,3.508-4.8l-0.739-1.969,1.723-2.4,12.122,12.306-0.923,2.646-3.63.492a26.663,26.663,0,0,1-5.538,5.723,27.231,27.231,0,0,1-6.646,3.815,22.181,22.181,0,0,1-8.922,1.6q-8.737-.246-13.722-5.846-4-4.491-5.353-12.183a48.105,48.105,0,0,1,0-17.476,56.588,56.588,0,0,1-5.169,13.722,30.783,30.783,0,0,1-6.892,9.107,13.7,13.7,0,0,1-10.337,3.384q-4.247-.429-8.369-5.292a43.642,43.642,0,0,1-6.337-10.337,82.913,82.913,0,0,1-5.292-14.645q-4.185,25.414-12.307,34.335-6.461,7.2-14.152,7.323a12.855,12.855,0,0,1-6.338-1.292l-3.446,2.4-2.154-1.169Zm111.62-33.966a14.6,14.6,0,0,0,2.277-2.461,15.864,15.864,0,0,0-2.831-.615l-1.292-.123q-0.616-.061-1.046-0.062l-2.338,2.708h1.6q0.8,0,1.539.061a5.9,5.9,0,0,1,2.092.492h0Zm-6.215,2.523a9.947,9.947,0,0,0,5.169-1.723,10.157,10.157,0,0,1-1.108-.184,18.353,18.353,0,0,0-3.015,0H717.18l-1.476,1.784a11.826,11.826,0,0,0,1.538.123h0ZM715.4,298.9a10.11,10.11,0,0,0-1.231,5.291,13.883,13.883,0,0,0,.493,3.446l1.476-1.353v-0.554l0.123-.246v-0.493a8.455,8.455,0,0,1,.062-1.046v-1.292q-0.061-2.892-.923-3.753h0Zm3.754-3.815a9.863,9.863,0,0,0-3.2,3.015v-0.123a3.248,3.248,0,0,1,1.107,2.092,8.636,8.636,0,0,1,.308,2.523q0.06,1.168,0,2.4l1.846-2.338H719.15l0.061-.615v-0.246a2.926,2.926,0,0,0,.123-0.8q0.062-.615.062-1.108l0.123-1.292a8.205,8.205,0,0,0-.369-3.507h0Zm1.6-.8-0.676.307a9.5,9.5,0,0,1,.492,4v1.354a6.19,6.19,0,0,0-.123,1.23l1.6-2.215,0.184-.677a13.769,13.769,0,0,0,.185-3.322v-0.8l-0.062-.247-0.123-.123,0.123-.123Zm7.2,3.2a6.362,6.362,0,0,0,.123-1.723,7.4,7.4,0,0,0-.492-2.645q-1.293,2.092-2.893,4.245,0.861-.06,1.477-0.061a5.47,5.47,0,0,1,1.785.184h0Zm-4.308,1.17-2.276,3.015q0.982,0.123,1.723.184l1.661,0.308a7.183,7.183,0,0,1,1.538.431,12.084,12.084,0,0,0,1.477-4l-0.061.062a0.812,0.812,0,0,0-.431-0.185,5.1,5.1,0,0,0-1.108-.123,7.992,7.992,0,0,0-1.292.123,9.606,9.606,0,0,1-1.231.185h0Zm-0.307-5.046a3.09,3.09,0,0,1,.246,1.354q0,0.8-.123,2.092l2.83-4.369a15.268,15.268,0,0,0-3.015.677Zm-6.092,16.06a9.522,9.522,0,0,1-2.523-.246,18.223,18.223,0,0,1-2.215,2.215c-0.492.329-.78,0.369-0.861,0.123a1.483,1.483,0,0,1,.369-1.231,11.141,11.141,0,0,1,1.784-1.969,16.859,16.859,0,0,1-.738-4.307v-0.062a10.749,10.749,0,0,1,2.215-7.137,12.31,12.31,0,0,1,5.107-3.754,18.283,18.283,0,0,1,4.923-1.6q0.861-.185,1.723-0.307h0.923l0.184,0.307a9.252,9.252,0,0,1,1.046,4.061,14.119,14.119,0,0,1-1.969,7.507q-3.569,6.154-9.968,6.4h0ZM98.722,450.575a53.716,53.716,0,0,0,12.2-1.007,25.718,25.718,0,0,0,8.538-3.061q3.987-2.5,4.229-6.283,0.644-9.666-10.592-9.666-1.974.04-4.552,0.322-1.007.081-2.255,0.282l-1.128.161-1.047.121a31.833,31.833,0,0,1-6.645.563Zm-1.41-27.106a28.586,28.586,0,0,0,6.927-1.249q7.128-2.175,8.136-6.766,1.248-5.718-6.364-6.162a28.087,28.087,0,0,0-3.021,0q-1.128.041-2.859,0.2a22.255,22.255,0,0,1-3.826.161Zm19.534-.806a19.029,19.029,0,0,1,9.143,2.82,14.411,14.411,0,0,1,5.357,6.041,16.231,16.231,0,0,1,1.49,7.814,18.96,18.96,0,0,1-2.3,8.135q-2.82,5.236-9.545,8.338a39.063,39.063,0,0,1-13.171,3.383,37.7,37.7,0,0,1-11.76-.564q-5.115-1.128-5.316-3.3-1.088-12.243-1.208-28.112-0.04-5.88.04-11.922,0.08-4.389.242-8.539a9.518,9.518,0,0,1,.2-2.174,3.618,3.618,0,0,1,.644-0.927,2.9,2.9,0,0,1,1.732-1.087q11.076-1.611,18.245.362,6.081,1.733,8.7,5.8a10.7,10.7,0,0,1-2.5,13.935h0ZM86.881,404.177a2.044,2.044,0,0,1,.04.725v0.282l-0.04.161H86.76l0.121,0.04q-0.483,5.679-.081,20.9,0.16,5.679.443,11.962,0.2,5.157.4,9.022,0.08,1.41.242,5.115,0.08,1.25.121,2.658c0.026,0.35.04,0.685,0.04,1.007a6.037,6.037,0,0,1,.04.645,1.11,1.11,0,0,1,.322.282,1.636,1.636,0,0,1,.362.4l0.04,0.161a0.967,0.967,0,0,1-.121.886,1.409,1.409,0,0,1-.765.645h-0.04a1.6,1.6,0,0,1-.725.08,1.326,1.326,0,0,1-.886-0.926v-0.04h-0.04a1.179,1.179,0,0,1-.04-0.685,1.156,1.156,0,0,1,.483-0.644v-0.081a6.132,6.132,0,0,0,.04-0.805q0.04-.927-0.081-2.981-0.041-1.288-.2-4.511l-0.081-1.329-0.081-1.45q-0.081-1.61-.161-3.02l-0.04-.806-0.04-.886q-0.041-1.007-.081-1.853-0.081-2.3-.161-4.269-0.242-5.316-.362-9.827-0.323-12.405.04-19.373h-0.04l0.081-.282v-0.242h0.04v-0.161l0.04-.2,0.04-.2,0.04-.2a0.967,0.967,0,0,1,.362-0.483l0.081-.04h0.04a0.458,0.458,0,0,1,.322-0.041,0.606,0.606,0,0,1,.282.161l0.081,0.121h0Zm91.346,48.17h0.564v-1.49l-8.257-10.714,8.257-10.713v-1.49h-0.564l-13.775,12.2Zm12.606,0H191.4v-1.49l-8.257-10.714L191.4,429.43v-1.49h-0.564l-13.774,12.2Zm20.447-1.772a53.716,53.716,0,0,0,12.2-1.007,25.733,25.733,0,0,0,8.539-3.061q3.987-2.5,4.228-6.283,0.645-9.666-10.592-9.666-1.974.04-4.551,0.322-1.008.081-2.256,0.282l-1.127.161-1.048.121a31.828,31.828,0,0,1-6.645.563Zm-1.409-27.106a28.586,28.586,0,0,0,6.927-1.249q7.129-2.175,8.136-6.766,1.248-5.718-6.364-6.162a28.069,28.069,0,0,0-3.02,0q-1.128.041-2.86,0.2a22.251,22.251,0,0,1-3.826.161Zm19.534-.806a19.029,19.029,0,0,1,9.142,2.82,14.4,14.4,0,0,1,5.357,6.041,16.22,16.22,0,0,1,1.49,7.814,18.96,18.96,0,0,1-2.3,8.135q-2.819,5.236-9.545,8.338a39.063,39.063,0,0,1-13.17,3.383,37.706,37.706,0,0,1-11.761-.564q-5.115-1.128-5.316-3.3-1.088-12.243-1.208-28.112-0.042-5.88.04-11.922,0.079-4.389.241-8.539a9.515,9.515,0,0,1,.2-2.174,3.6,3.6,0,0,1,.644-0.927,2.9,2.9,0,0,1,1.732-1.087q11.076-1.611,18.245.362,6.081,1.733,8.7,5.8a10.7,10.7,0,0,1-2.5,13.935h0Zm-29.966-18.486a2.039,2.039,0,0,1,.041.725v0.282l-0.041.161h-0.121l0.121,0.04q-0.483,5.679-.08,20.9,0.16,5.679.443,11.962,0.2,5.157.4,9.022,0.079,1.41.241,5.115,0.081,1.25.121,2.658c0.026,0.35.04,0.685,0.04,1.007a5.9,5.9,0,0,1,.041.645,1.114,1.114,0,0,1,.322.282,1.623,1.623,0,0,1,.362.4l0.041,0.161a0.968,0.968,0,0,1-.121.886,1.409,1.409,0,0,1-.766.645h-0.04a1.6,1.6,0,0,1-.725.08,1.327,1.327,0,0,1-.886-0.926v-0.04H198.8a1.168,1.168,0,0,1-.04-0.685,1.151,1.151,0,0,1,.483-0.644v-0.081a6.232,6.232,0,0,0,.04-0.805q0.041-.927-0.08-2.981-0.041-1.288-.2-4.511l-0.08-1.329-0.081-1.45q-0.081-1.61-.161-3.02l-0.04-.806-0.041-.886q-0.04-1.007-.08-1.853-0.081-2.3-.161-4.269-0.242-5.316-.363-9.827-0.323-12.405.041-19.373h-0.041l0.081-.282v-0.242h0.04v-0.161l0.04-.2,0.041-.2,0.04-.2a0.969,0.969,0,0,1,.362-0.483l0.081-.04h0.04a0.459,0.459,0,0,1,.323-0.041,0.6,0.6,0,0,1,.281.161L199.4,404.1h0ZM250.462,402q0.2,0,2.095.2c0.509,0.054,1.168.121,1.973,0.2l1.047,0.08,1.128,0.121q6,0.6,6.485.6a0.471,0.471,0,0,1,.4.443,2.424,2.424,0,0,1,0,.886,1.885,1.885,0,0,1-.282.806q-0.2.322-.443,0.161-0.724-.483-2.618.4l-1.168,37.174a116.976,116.976,0,0,0,10.673-11.76q3.948-4.914,9.1-12.083,0.765-1.127,1.933-2.779l0.926-1.289,0.887-1.248q2.053-2.861,3.222-4.431,3.1-4.108,4.309-4.672,1.047-.442,5.719-0.443-0.483,10.392,1.853,50.989a5.559,5.559,0,0,1,2.175.4q0.442,0.4-.04,1.772l-12.728,1.974-0.845-2.618a1.786,1.786,0,0,1,1.288-.725q0.927,0-1.57-30.449-7.332,8.9-15.225,17.4A151.763,151.763,0,0,1,259.4,454.441q-5.559,4.833-7.008,3.706-2.175-1.651-2.216-20.743-0.041-17.762,1.329-25.978a23.83,23.83,0,0,0,.4-5.074,3,3,0,0,0-.644-1.934,1.936,1.936,0,0,0-1.41-.6Zm48.412,10.27a2.885,2.885,0,0,0,0,.685l0.081,0.282V413.4q0.443,4.553.886,14.338L300,431.726l0.121,1.933,0.08,1.933q0.2,4.51.322,7.008,0.081,1.329.282,4.833,0.081,1.168.161,2.5l0.081,0.967v0.362a0.786,0.786,0,0,1,.04.242c-0.08.108-.161,0.215-0.241,0.322a1.41,1.41,0,0,0-.242.443l-0.04.121a1,1,0,0,0,.886,1.289,0.949,0.949,0,0,0,.6-0.04,1.291,1.291,0,0,0,.6-1.007l0.04-.041a1.754,1.754,0,0,0-.04-0.644,0.869,0.869,0,0,0-.443-0.524v-0.08a4.145,4.145,0,0,1-.121-0.765q-0.12-.887-0.242-2.779-0.081-1.209-.241-4.27l-0.081-1.288-0.08-1.33q-0.081-1.53-.161-2.859-0.484-7.935-1.209-24.891l-0.04-.2H300a0.711,0.711,0,0,0-.081-0.322l-0.04-.161-0.081-.242a0.648,0.648,0,0,0-.282-0.363l-0.08-.04H299.4a0.782,0.782,0,0,0-.242.04,0.365,0.365,0,0,0-.2.2l-0.081.121v0.08Zm8.571-9.545,0.443-.886a10.868,10.868,0,0,0,3.585,1.047,67.735,67.735,0,0,0,8.619-1.047q1.047,1.933-.041,1.812-1.128-.12-1.812,1.49,1.692,18.528,1.41,19.454-0.162.4,1.369-.443a29.217,29.217,0,0,0,3.585-2.538,55.169,55.169,0,0,0,8.578-9.022q3.786-5.6,7.169-7.612a12.929,12.929,0,0,1,4.149-1.651l0.362-1.249q1.289-.4,1.329-0.08a16.013,16.013,0,0,0,1.692,5.357q0.2,0.443.524,1.006l0.241,0.444,0.2,0.4a5.955,5.955,0,0,1,.564,1.249q0.12,0.524-1.571,1.128L347.4,410.9a6.652,6.652,0,0,0-4.39,2.416q-0.927,1.048-3.625,4.713a91.59,91.59,0,0,1-7.29,7.37,15.12,15.12,0,0,1,8.619,6.928,41.618,41.618,0,0,1,2.376,5.115l0.564,1.409,0.564,1.41q0.684,1.812,1.168,2.98,2.094,5.035,5.478,5.84a4.436,4.436,0,0,0,2.98-.2,1.457,1.457,0,0,1,.121-0.926,2.33,2.33,0,0,1,1.369-.443v0.08a1.169,1.169,0,0,0,.04.282,2.248,2.248,0,0,0,.041.443q0.079,0.6.161,1.249c0.053,0.51.121,1.021,0.2,1.53q0.282,1.974.6,3.464a13.174,13.174,0,0,0,.806,2.86q0.12,0.282-.6.563a1.738,1.738,0,0,1-1.007.2,2.376,2.376,0,0,1-.6-0.282,3.311,3.311,0,0,1-.766-0.564q-8.1,2.94-13.734-5.075a35.964,35.964,0,0,1-3.7-7.088q-0.6-1.53-1.249-3.424-0.2-.6-0.483-1.49l-0.242-.685-0.2-.6a10.55,10.55,0,0,0-3.866-5.155,9.863,9.863,0,0,0-5.8-2.135,12.756,12.756,0,0,1-5.478,2.417l1.047,21.789a5.488,5.488,0,0,1,2.377.363,0.927,0.927,0,0,1,.322.483,1.872,1.872,0,0,1,.161.765,0.829,0.829,0,0,1-.846,1.088q-2.9-.041-13.371.845a1.55,1.55,0,0,1-.484-1.409q0-.846,1.329-0.806-1.571-44.544-.886-52.117,0.122-1.167-1.651-2.376h0Zm38.141,28.233a10.022,10.022,0,0,0,1.249,1.128,5.153,5.153,0,0,0,.282-1.45,6.182,6.182,0,0,1,.04-0.685,3.938,3.938,0,0,0,.04-0.563l-1.369-1.168a7.305,7.305,0,0,0,.04.805q-0.041.483-.04,0.846a3.1,3.1,0,0,1-.242,1.087h0Zm-1.248-4.108q-0.041.483-.04,0.846a5.676,5.676,0,0,0,.886,2.739,2.53,2.53,0,0,0,.08-0.6,15.941,15.941,0,0,0,0-1.611,4.114,4.114,0,0,0-.04-0.564Zm4.672-.2a4.576,4.576,0,0,0-2.578-.564,8.546,8.546,0,0,0-1.691.282l0.684,0.725h0.121l0.04,0.04h0.121a0.821,0.821,0,0,0,.363,0,3.676,3.676,0,0,0,.523.04h0.645a2.424,2.424,0,0,0,1.772-.523h0Zm1.933,1.973a6.5,6.5,0,0,0-1.45-1.691l0.04,0.08a2.412,2.412,0,0,1-1.047.564,6.665,6.665,0,0,1-1.248.161,5.7,5.7,0,0,1-1.168-.04q0.6,0.564,1.168,1.047l-0.041-.08,0.363,0.04,0.04,0.04h0.483l0.564,0.081h0.645a3.851,3.851,0,0,0,1.651-.2h0Zm0.4,0.766-0.121-.282a6.026,6.026,0,0,1-1.974.282h-0.725l-0.563-.081,1.127,0.846,0.323,0.08h0.04l0.121,0.041h0.4l0.524,0.04a3.7,3.7,0,0,0,.524.04,1.067,1.067,0,0,0,.4-0.08l0.121-.041,0.081-.04,0.04,0.081a5.915,5.915,0,0,0-.322-0.886h0ZM350.7,433.3a3.091,3.091,0,0,0,1.33-.282q-1.049-.725-2.135-1.53,0.039,0.444.08,0.805a5.161,5.161,0,0,1-.12.967,3.008,3.008,0,0,0,.845.04h0Zm-1.49-2.3-1.45-1.168a5.388,5.388,0,0,0-.08.886l-0.081.443-0.04.443c-0.081.349-.148,0.618-0.2,0.805a6.717,6.717,0,0,0,1.974.765l-0.04-.04a0.357,0.357,0,0,0,.08-0.241,3.963,3.963,0,0,0,.041-0.564c-0.027-.215-0.055-0.457-0.081-0.725a5.97,5.97,0,0,0-.121-0.6h0Zm2.538-.2a3.132,3.132,0,0,1-.685.121c-0.3,0-.631-0.013-1.007-0.04q0.966,0.685,2.175,1.45-0.162-.805-0.363-1.571Zm-4.753,2.1v0a6.044,6.044,0,0,1-3.262-5.156,7.7,7.7,0,0,1,.12-1.329,8.344,8.344,0,0,1-1.127-1.168c-0.135-.268-0.148-0.416-0.041-0.443a0.753,0.753,0,0,1,.605.242,4.874,4.874,0,0,1,1.007.846,10.98,10.98,0,0,1,2.094-.4h0.04a5.164,5.164,0,0,1,3.5,1.087,6.741,6.741,0,0,1,1.933,2.618,9.63,9.63,0,0,1,.806,2.618,5.211,5.211,0,0,1,.161.886v0.242l0.04,0.08v0.161l-0.121.081a4,4,0,0,1-2.054.6,6.843,6.843,0,0,1-3.705-.966h0Zm7.878-30.973q1.168-.483,1.49-0.161a1.363,1.363,0,0,1,.2.322l0.08,0.242,0.081,0.282a0.748,0.748,0,0,0,.564.6q12.565-.643,42.008,0v-0.846l1.731-.322V413l-1.893-.2-0.563-1.531q-13.091-1.731-17.2.484-1.128.643,0.322,45.068,1.692-.361,2.054,0,0.643,0.6.282,2.618l-13.251-.241-0.443-1.611,1.772-.886q0.16-10.392.081-21.065-0.121-21.426-1.41-22.957-1.128-1.329-7.974-.967-3.425.2-6.646,0.685l-0.443,1.45q-1.169.282-1.168,0,0.16-4.148.322-11.922h0Zm13.372,14.661a3.028,3.028,0,0,0-.04.564l0.04,0.241,0.04,0.081v0.04h0a113.113,113.113,0,0,1,.685,13.533q0.039,1.692.04,3.786v3.665q-0.041,4.591,0,6.2,0,1.128.081,4.028,0,0.966.04,2.094v0.806a2.486,2.486,0,0,0,.04.483,1.042,1.042,0,0,0-.242.242,1.063,1.063,0,0,0-.241.362v0.121a0.828,0.828,0,0,0,.725,1.128,1.7,1.7,0,0,0,.523,0,1.166,1.166,0,0,0,.6-0.806v-0.04a0.882,0.882,0,0,0,0-.524,0.748,0.748,0,0,0-.363-0.483v-0.08q-0.04-.2-0.081-0.6-0.041-.724-0.08-2.336-0.041-1.005-.081-3.544v-1.047l-0.04-1.128q0-1.289-.04-2.376v-5.276l0.04-1.41v-4.35a106.46,106.46,0,0,0-.6-12.324h0.04l-0.04-.242-0.04-.161-0.041-.161-0.04-.121-0.04-.161-0.04-.161a0.493,0.493,0,0,0-.282-0.322l-0.041-.04h-0.04a0.372,0.372,0,0,0-.242,0,0.389,0.389,0,0,0-.2.161l-0.04.08v0.081Zm69.965,11.035v-1.772q-0.04-2.013-.161-3.544a16.508,16.508,0,0,0-1.369-6.162,13.11,13.11,0,0,0-4.269-5.276,10.958,10.958,0,0,0-5.881-1.41,17.784,17.784,0,0,0-6.726,1.41,12.491,12.491,0,0,0-5.679,4.148q-2.818,4.027-2.819,15.144a16.978,16.978,0,0,0,1.208,6.363,42.555,42.555,0,0,0,2.779,5.277q3.423,5.8,11.68,5.8a11.155,11.155,0,0,0,5.156-.966A10.626,10.626,0,0,0,436,442.479q2.216-3.664,2.215-13.17v-1.692Zm4.954-19.372a17.827,17.827,0,0,1,3.947,8.941,106.413,106.413,0,0,1,.363,11.438q0,10.956-3.947,18.527-3.183,6.162-6.767,8.9a15.519,15.519,0,0,1-8.578,3.061,20.178,20.178,0,0,1-12.043-3.141,25.105,25.105,0,0,1-9.223-9.667,48.976,48.976,0,0,1-3.424-7.41,27.717,27.717,0,0,1-1.329-8.66q0-15.143,6.726-22.313,5.8-6.2,16.151-6.2a33.449,33.449,0,0,1,9.787,1.329,17.568,17.568,0,0,1,8.337,5.2h0Zm7.33-13.533a3.589,3.589,0,0,0,.162-1.49q-1.087.846-2.336,1.691,0.483,0.122.845,0.2a3.169,3.169,0,0,1,1.007.483,9.053,9.053,0,0,0,.322-0.886h0Zm-2.134,3.222a7.523,7.523,0,0,0,1.53-1.812l-0.08.04c0.026-.054-0.04-0.121-0.2-0.2a2.429,2.429,0,0,0-.6-0.241c-0.215-.054-0.47-0.107-0.765-0.161a5.158,5.158,0,0,0-.685-0.121l-1.772,1.168q0.524,0.2.927,0.362l0.443,0.242,0.443,0.242a3.794,3.794,0,0,1,.765.483h0Zm-6,1.531a6.235,6.235,0,0,0,3.141,0,5.492,5.492,0,0,0-.564-0.282,15.469,15.469,0,0,0-1.691-.564l-0.322-.081-0.282-.08-1.168.644a8.945,8.945,0,0,0,.886.363h0Zm0.564-5.357a5.448,5.448,0,0,0-1.571,2.537,7.98,7.98,0,0,0-.282,1.893l1.047-.483,0.04-.121v-0.04l0.041-.081,0.08-.161,0.121-.242a4.628,4.628,0,0,0,.2-0.563l0.2-.645a2.749,2.749,0,0,0,.121-2.094h0Zm0.483-.4a2.194,2.194,0,0,1,.282,1.289,7.308,7.308,0,0,1-.282,1.369,10.775,10.775,0,0,1-.4,1.209q0.765-.4,1.45-0.846h-0.04l0.121-.322,0.04-.041,0.04-.121a3.094,3.094,0,0,0,.161-0.4,2.585,2.585,0,0,0,.242-0.564l0.242-.645a4.086,4.086,0,0,0,.4-1.852,5.765,5.765,0,0,0-2.295.966Zm1.772,4.914a4.529,4.529,0,0,1,1.047.644,9.246,9.246,0,0,0,1.652-.926,9.388,9.388,0,0,0-1.45-.806c-0.216-.08-0.457-0.174-0.725-0.282l-0.564-.241-1.732,1.007q0.483,0.161.886,0.282,0.483,0.16.886,0.322h0Zm1.49-6-0.4.04a6,6,0,0,1-.4,2.175q-0.121.361-.282,0.725c-0.081.215-.161,0.416-0.242,0.6l1.289-.846,0.2-.362v-0.041l0.081-.121,0.08-.161,0.081-.241c0.081-.188.161-0.363,0.242-0.524,0.08-.214.147-0.4,0.2-0.564,0.027-.161.054-0.308,0.081-0.443v-0.241l0.08-.041q-0.523,0-1.007.041h0Zm1.571-.041V392.7a3.33,3.33,0,0,1-.121.765q-0.161.444-.4,1.048,1.087-.765,2.3-1.732a13.373,13.373,0,0,0-1.772-.2h0Zm2.98-.04a4.831,4.831,0,0,1-.12,2.376,7.233,7.233,0,0,1-2.336,3.545,6.693,6.693,0,0,1-6.565,1.611,8.579,8.579,0,0,1-1.41-.564,5.974,5.974,0,0,1-1.611.684q-0.483.162-.483-0.08a0.988,0.988,0,0,1,.443-0.564,9.091,9.091,0,0,1,1.289-.725,10.323,10.323,0,0,1,.322-2.376,5.838,5.838,0,0,1,2.416-3.343,7.185,7.185,0,0,1,3.424-1.088,13.077,13.077,0,0,1,3.061.041q0.483,0.081.966,0.2h0.161l0.121,0.04h0.041l0.04,0.041,0.2,0.04Zm35.757,27.307q1.168-7.773-7.209-10.109a24.318,24.318,0,0,0-6.646-.846,18.239,18.239,0,0,0-4.712.483q-1.007.242-1.289,3.021a38.643,38.643,0,0,0-.04,5.961q0.282,4.269.886,8.418a31.1,31.1,0,0,0,8.941.322,15.429,15.429,0,0,0,6.485-1.893,7.191,7.191,0,0,0,3.584-5.357h0Zm-29.562-16.8a1.144,1.144,0,0,1,1.208-.886q0.323-.039,1.37-0.04h0.966q0.6,0,1.128-.041l1.047-.04,1.047-.08q1.248-.04,2.3-0.081,2.739-.079,4.994-0.08a56.035,56.035,0,0,1,10.472.926q12.2,2.417,13.613,11.358a19.626,19.626,0,0,1-.725,9.746,16.651,16.651,0,0,1-5.276,7.411q-7.895,6.445-22.031,5.115l0.645,19.494,2.859,0.886-0.322,2.7-13.13-.12-0.926-1.652,2.577-.6-1.007-49.378a6.2,6.2,0,0,1-.805-4.632h0Zm-3.867,4.753a1.623,1.623,0,0,0,0,.725v0.161l0.041,0.121v0.161h0a149.143,149.143,0,0,1,1.047,17.2q0.079,2.175.08,4.834,0.04,1.731.081,4.631,0.039,5.841.08,7.935,0.041,1.41.162,5.074,0.039,1.29.08,2.659c0,0.376.013,0.711,0.04,1.007v0.684a1.449,1.449,0,0,0-.282.282,1.427,1.427,0,0,0-.241.443l-0.04.161a1.071,1.071,0,0,0,.926,1.41,1.3,1.3,0,0,0,.644,0,1.333,1.333,0,0,0,.725-1.007v-0.04a1.467,1.467,0,0,0,0-.685,1.028,1.028,0,0,0-.443-0.564l-0.04-.121q-0.041-.241-0.081-0.765-0.081-.966-0.161-2.98-0.041-1.248-.121-4.511l-0.04-1.329-0.04-1.41q-0.041-1.651-.081-3.061-0.04-2.376-.08-6.686v-3.584q0-2.135-.04-3.746a139.139,139.139,0,0,0-.887-15.667h0.041l-0.081-.282-0.04-.242c-0.027-.107-0.054-0.228-0.081-0.362l-0.04-.161-0.08-.242a0.772,0.772,0,0,0-.363-0.4l-0.04-.04h-0.041v-0.04a0.882,0.882,0,0,0-.281.04,0.359,0.359,0,0,0-.242.2l-0.081.121h0V407.8Zm45.2-5.8q0.2,0,2.1.2c0.509,0.054,1.168.121,1.973,0.2l1.047,0.08,1.128,0.121q6,0.6,6.485.6a0.471,0.471,0,0,1,.4.443,2.424,2.424,0,0,1,0,.886,1.885,1.885,0,0,1-.282.806q-0.2.322-.443,0.161-0.724-.483-2.618.4l-1.168,37.174a117.1,117.1,0,0,0,10.674-11.76q3.946-4.914,9.1-12.083,0.765-1.127,1.933-2.779l0.926-1.289,0.887-1.248q2.053-2.861,3.222-4.431,3.1-4.108,4.309-4.672,1.047-.442,5.719-0.443Q543.659,414.77,546,455.367a5.559,5.559,0,0,1,2.175.4q0.443,0.4-.04,1.772L535.4,459.516l-0.845-2.618a1.786,1.786,0,0,1,1.288-.725q0.927,0-1.57-30.449-7.332,8.9-15.225,17.4a151.763,151.763,0,0,1-11.357,11.317q-5.559,4.833-7.008,3.706-2.175-1.651-2.216-20.743-0.041-17.762,1.33-25.978a23.883,23.883,0,0,0,.4-5.074,3,3,0,0,0-.644-1.934,1.936,1.936,0,0,0-1.41-.6Zm48.412,10.27a2.885,2.885,0,0,0,0,.685l0.081,0.282V413.4q0.442,4.553.886,14.338l0.161,3.988,0.121,1.933,0.08,1.933q0.2,4.51.322,7.008,0.081,1.329.282,4.833,0.081,1.168.161,2.5l0.081,0.967v0.362a0.786,0.786,0,0,1,.04.242c-0.08.108-.161,0.215-0.241,0.322a1.41,1.41,0,0,0-.242.443l-0.04.121a1,1,0,0,0,.886,1.289,0.949,0.949,0,0,0,.6-0.04,1.291,1.291,0,0,0,.6-1.007l0.04-.041a1.754,1.754,0,0,0-.04-0.644,0.866,0.866,0,0,0-.443-0.524v-0.08a4.145,4.145,0,0,1-.121-0.765q-0.12-.887-0.242-2.779-0.081-1.209-.241-4.27l-0.081-1.288-0.08-1.33q-0.081-1.53-.161-2.859-0.485-7.935-1.209-24.891l-0.04-.2h-0.04a0.711,0.711,0,0,0-.081-0.322l-0.04-.161-0.081-.242a0.648,0.648,0,0,0-.282-0.363l-0.08-.04h-0.04a0.782,0.782,0,0,0-.242.04,0.365,0.365,0,0,0-.2.2l-0.081.121v0.08ZM557.275,402q0.2,0,2.1.2c0.509,0.054,1.168.121,1.973,0.2l1.047,0.08,1.128,0.121q6,0.6,6.484.6a0.471,0.471,0,0,1,.4.443,2.424,2.424,0,0,1,0,.886,1.885,1.885,0,0,1-.282.806q-0.2.322-.443,0.161-0.724-.483-2.618.4l-1.168,37.174a117.1,117.1,0,0,0,10.673-11.76q3.947-4.914,9.1-12.083,0.764-1.127,1.933-2.779l0.926-1.289,0.886-1.248q2.055-2.861,3.222-4.431,3.1-4.108,4.31-4.672,1.047-.442,5.719-0.443-0.483,10.392,1.853,50.989a5.559,5.559,0,0,1,2.175.4q0.443,0.4-.041,1.772l-12.727,1.974L593.08,456.9a1.788,1.788,0,0,1,1.289-.725q0.927,0-1.57-30.449-7.332,8.9-15.225,17.4a151.551,151.551,0,0,1-11.358,11.317q-5.558,4.833-7.008,3.706-2.175-1.651-2.215-20.743-0.041-17.762,1.329-25.978a23.83,23.83,0,0,0,.4-5.074,3,3,0,0,0-.644-1.934,1.936,1.936,0,0,0-1.41-.6Zm48.412,10.27a2.885,2.885,0,0,0,0,.685l0.08,0.282V413.4q0.444,4.553.886,14.338l0.162,3.988,0.12,1.933,0.081,1.933q0.2,4.51.322,7.008,0.081,1.329.282,4.833,0.081,1.168.161,2.5l0.081,0.967v0.362a0.786,0.786,0,0,1,.04.242l-0.242.322a1.427,1.427,0,0,0-.241.443l-0.041.121a1,1,0,0,0,.887,1.289,0.95,0.95,0,0,0,.6-0.04,1.291,1.291,0,0,0,.6-1.007l0.04-.041a1.776,1.776,0,0,0-.04-0.644,0.869,0.869,0,0,0-.443-0.524v-0.08a4.061,4.061,0,0,1-.121-0.765q-0.122-.887-0.242-2.779-0.081-1.209-.241-4.27l-0.081-1.288-0.08-1.33q-0.082-1.53-.162-2.859-0.483-7.935-1.208-24.891l-0.04-.2h-0.04a0.711,0.711,0,0,0-.081-0.322l-0.04-.161-0.081-.242a0.648,0.648,0,0,0-.282-0.363l-0.08-.04H606.21a0.78,0.78,0,0,0-.241.04,0.37,0.37,0,0,0-.2.2l-0.08.121v0.08Zm23.944,27.871-13.774-12.2h-0.564v1.49l8.257,10.713-8.257,10.714v1.49h0.564Zm12.607,0-13.775-12.2H627.9v1.49l8.257,10.713L627.9,450.857v1.49h0.564Zm14.739,2.376q-7.813.363-7.692-.886,1.49-15.867-.323-37.778l-1.007.12a1.257,1.257,0,0,1-.6-1.208q-0.12-.885,11.68-0.523a1.7,1.7,0,0,1-.161,1.852,0.5,0.5,0,0,1-.523.161l-0.725-.12q-0.927-.081-0.806,1.329,0.885,12.444.161,37.053h0Zm-0.04,12.2q0-4.068-4.712-4.068-4.673,0-4.672,4.068a4.313,4.313,0,0,0,1.691,3.343,5.45,5.45,0,0,0,3.625,1.369q4.068,0,4.068-4.712h0Z" transform="translate(-83 -269.906)"/>
</svg>
