<?xml version="1.0" encoding="utf-8"?>
<!-- Generator: Adobe Illustrator 23.0.3, SVG Export Plug-In . SVG Version: 6.00 Build 0)  -->
<svg version="1.1" id="Layer_1" xmlns="http://www.w3.org/2000/svg" xmlns:xlink="http://www.w3.org/1999/xlink" x="0px" y="0px"
	 viewBox="0 0 612 792" style="enable-background:new 0 0 612 792;" xml:space="preserve">
<style type="text/css">
	.st0{fill:#648339;}
</style>
<path class="st0" d="M56.02,407.39c53.62,20.09,98.82,34.75,156.04,41.42c12.16,1.4,24.67,1.37,37.32,0.59
	c-15.79,8.43-31.64,16.78-46.7,26.37c-42.72,27.18-81.49,56.8-74.27,111.92c1.68,12.92,14.59,27.23,27.32,30.05
	c11.6,2.53,23,3.49,34.22,3.46c-12.59,39.09-8.54,72.68,30.72,87.57c39.09,14.8,73.01-0.67,101.51-30.38
	c0.81,6.29,1.44,12.59,2.63,18.8c3.13,16.11,17.34,25.94,32.84,27.56c144.5,15.02,97.7-249.05,79.14-325.22
	c-2.77-11.41-12.24-24.93-24.75-27.17c-58.54-10.56-116.4,1.95-175.09-4.33c-31.62-3.36-60.07-8.67-88.34-15.88
	c30.75-13.91,68.99-25.94,83.95-32.85c44.74-20.66,89.64-40.86,132.29-65.55c79.36-45.95,171.45-86.44,235.1-153.73
	c18.72-19.76-1.35-49.07-26.53-38.61C466.9,105.61,373.07,177.94,268.97,227.64c-52,24.82-104.85,48-156.28,74
	c-32.78,16.55-56.11,16.34-77.82,45.86C18.8,369.33,32.92,398.75,56.02,407.39z"/>
</svg>
