<?xml version="1.0" encoding="utf-8"?>
<!-- Generator: Adobe Illustrator 23.0.3, SVG Export Plug-In . SVG Version: 6.00 Build 0)  -->
<svg version="1.1" id="Layer_1" xmlns="http://www.w3.org/2000/svg" xmlns:xlink="http://www.w3.org/1999/xlink" x="0px" y="0px"
	 viewBox="0 0 348.4 348.4" style="enable-background:new 0 0 348.4 348.4;" xml:space="preserve">
<style type="text/css">
	.st0{fill:#FFFFFF;}
</style>
<title>Logo Dixy_значок</title>
<g>
	<path class="st0" d="M160.5,105.4c0,4.2-0.2,29-0.6,34.6c-0.4,5.6-1.2,11.4-2.2,17.3c-1,5.8-2.5,11.6-4.3,17.3
		c-1.6,5.1-4,10-7,14.4h53.8V96.9h-39.6V105.4z"/>
	<path class="st0" d="M324.4,85.9C275.7,3,168.9-24.7,86,24.1C3,72.8-24.7,179.6,24.1,262.5c0,0,60.6,21.4,150.1,21.4
		s150.2-21.4,150.2-21.4c15.8-26.7,24.1-57.2,24-88.3h0C348.5,143.2,340.2,112.7,324.4,85.9z M252.3,193.9L252.3,193.9v45.4v0.1
		c0,2.7-2.2,4.8-4.8,4.8h-28.5c-2.7,0-4.8-2.2-4.8-4.8c0-0.1,0-0.1,0-0.1V231v-11.2h-80v19.5c0,0.1,0,0.1,0,0.1c0,0,0,0,0,0
		c0,2.7-2.2,4.8-4.9,4.8H101c-2.7,0-4.8-2.2-4.8-4.8v-0.1v-42.5c0-3.2,0.7-5.2,2.2-6.2c1.1-0.7,2.4-1.2,3.7-1.4
		c1.5-0.2,3-0.9,4.1-1.9c2.5-2.2,4.6-4.8,6.3-7.7c2.4-4,4.4-8.2,5.9-12.6c1.6-4.8,2.9-9.6,3.8-14.6c0.9-5.1,1.7-10.3,2.1-15.5
		s0.8-30.1,0.9-35.1c0.1-5,0.2-9.6,0.2-13.9V75.2c0-2.7,0.6-4.7,1.6-6c1.2-1.4,2.7-2.3,4.5-2.8c2.1-0.5,4.3-0.8,6.4-0.7
		c2.4,0,4.9,0.1,7.5,0.1h87.7c2.7,0,4.8,2.2,4.8,4.8c0,0.1,0,0.1,0,0.1V79V189h9.5C250.2,189,252.3,191.2,252.3,193.9L252.3,193.9z"
		/>
</g>
<path class="st0" d="M32,274.8c55.5,78.5,164.1,97.2,242.6,41.8c16.2-11.4,30.3-25.6,41.8-41.8c0,0-70.4,24.1-142.2,24.1
	S32,274.8,32,274.8L32,274.8z"/>
<path class="st0" d="M174.2,298.9c71.8,0,142.2-24.1,142.2-24.1S256.7,323,173.2,323S32,274.8,32,274.8S102.4,298.9,174.2,298.9z"/>
</svg>
