<?xml version="1.0" encoding="utf-8"?>
<!-- Generator: Adobe Illustrator 23.0.3, SVG Export Plug-In . SVG Version: 6.00 Build 0)  -->
<svg version="1.1" id="_x31_" xmlns="http://www.w3.org/2000/svg" xmlns:xlink="http://www.w3.org/1999/xlink" x="0px" y="0px"
	 viewBox="0 0 600 600" style="enable-background:new 0 0 600 600;" xml:space="preserve">
<style type="text/css">
	.st0{fill:#6A8136;}
	.st1{fill:#FA842F;}
	.st2{fill:#F46F23;}
	.st3{fill:#FFB32F;}
	.st4{fill:#EA631F;}
	.st5{fill:#FFC543;}
	.st6{fill:#809925;}
	.st7{fill:#8CB238;}
	.st8{fill:#FFC050;}
	.st9{fill:#F1F2F2;}
	.st10{fill:#E6E7E8;}
	.st11{fill:#FF813B;}
	.st12{fill:#C9501B;}
	.st13{fill:#04537A;}
	.st14{fill:#FFFFFF;}
	.st15{fill:#68503A;}
	.st16{fill:#B51C1C;}
	.st17{fill:#628236;}
</style>
<g>
	<g>
		<g>
			<path class="st0" d="M269.8,161.71c0.64-8.61-2.23-17.22-5.02-25.25c-1.48-4.26-3.15-8.49-5.26-12.47
				c-7.18-13.56,2.32-7.77,1.64-15.31c-1.17-12.96-17.12-6.7-24.15-3.23c-4.87,2.4-23.42,17.08-12.47,23.39
				c1.91,1.1,3.13,1.76,5.47,1.25c7.71-1.66,12.09,0.21,17.61,5.62c7.48,7.33,10.37,19.24,10.18,29.36
				c-0.02,1.18,1.07,2.41,2.31,2.31c3.45-0.29,6-0.86,9.06-2.5C270.55,164.11,270.51,162.69,269.8,161.71z"/>
			<path class="st1" d="M489.91,266.24c0.11-0.09,0.23-0.15,0.33-0.27c2.09-2.32,1.15-5.79,0.07-8.39c-1.14-2.76-3.16-5.75-6.2-6.56
				c-0.19-0.05-0.36-0.05-0.53-0.05c0.89-0.75,1.46-1.9,1.24-3.32c-1.03-6.51-5.24-19.23-13.8-18.65c1.95-3.24-0.5-7.82-2.98-9.97
				c-2.34-2.04-5.8-3.99-8.96-4.06c-0.01,0-0.01,0-0.02,0c-4.2-4.79-8.66-9.34-13.4-13.58c-7.67-6.86-15.26-12.88-22.72-18.18
				c-0.31-2.39-1.52-4.83-2.62-6.64c-2.32-3.8-5.8-7.32-9.89-9.17c-3.47-1.57-8.34-1.99-11.74,0.15c-0.03-0.33-0.04-0.65-0.13-0.98
				c-0.63-2.44-2.91-4.29-5.14-5.24c-1.36-0.58-2.66-1.03-4.16-0.98c-0.88,0.03-1.67,0.18-2.47,0.53c-0.16,0.07-0.31,0.15-0.46,0.24
				c0.98-0.58-0.16,0.04-0.54,0.24c-0.21,0.11-0.41,0.26-0.6,0.41c-11.46-4.94-22.48-8.32-32.95-10.54
				c-2.39-3.28-8.17-5.33-11.27-5.2c-2.45,0.1-5.33,0.87-7.56,2.3c-38.89-3.74-67.89,6.98-79.77,6.66
				c-27.48-0.74-57.72,1.89-86.27,25.38c-2.78-0.75-6.15-0.03-8.44,1.42c-2.18,1.39-3.73,3.43-4.56,5.86
				c-0.43,1.28-0.38,3.1,0.15,4.67c-0.01,0-0.03-0.01-0.04-0.02c-8.39-2.53-15.81,4.62-17.17,12.62c-0.29,1.75,0.12,4.01,1.97,4.83
				c0.38,0.17,0.76,0.32,1.14,0.47c-11.08,15.92-21.63,36.3-31.35,62.37c-18.54,49.77-16.12,98.86,3.29,139.39
				c-3.28,1.29-4.09,5.81-1.93,8.64c1.95,2.55,5.06,3.42,7.98,2.74c3.97,6.81,8.46,13.34,13.43,19.54c-0.51,1.64-0.39,3.3,0.44,4.91
				c0.92,1.77,2.73,2.58,4.6,2.83c0.49,0.07,0.98-0.01,1.47-0.13c0.09,0.1,0.18,0.19,0.27,0.29c-0.63,0.73-1.1,1.58-1.28,2.52
				c-0.68,3.58,1.18,6.89,3.67,9.32c2.62,2.55,6.33,4.45,10.03,4.44c1.26,0,2.57-0.31,3.75-0.86c0.03,0.02,0.05,0.04,0.08,0.06
				c-1.83,10.8,17.04,22.62,27.86,20.11c0.99,3.23,3.8,5.56,7.42,5.6c1.35,0.01,2.62-0.49,3.78-1.18
				c8.71,4.02,17.93,7.46,27.64,10.28c0.19,0.99,0.51,1.99,0.93,2.7c0.7,1.19,2.77,1.95,4.08,2.25c2.24,0.51,4.07-0.61,5.4-2.21
				c29.32,6.94,62.66,8.39,99.35,2.89c27.82-4.17,51.88-11.54,72.45-21.33c2.94,2.03,7.09,1.93,9.88-0.39
				c1.65-1.37,2.77-3.88,2.56-6.09c0.75-0.43,1.5-0.85,2.25-1.28c0.99,0.56,2.08,0.94,3.1,1.09c2.99,0.43,6.14-0.09,8.69-1.78
				c2.48-1.65,3.96-3.93,4.32-6.88c0.1-0.81-0.05-1.78-0.37-2.67C503.26,417.3,515.95,333.13,489.91,266.24z"/>
			<path class="st2" d="M172.19,454.56c47.26,32.45,104.66,40.37,160.61,32.07c42.22-6.26,83.24-19.59,120.53-40.54
				c3.58-2.01,7.16-4.11,10.73-6.29c33.82-39.96,43.96-91.24,35.6-138.69c-2.69-6.49-5.67-12.86-9.02-19.02
				c-25.38-46.64-68.69-74.14-117.86-91.53c-21.47-7.59-45.44-14.03-69.81-17.19c26.23,7.28,51.72,15.95,73.95,34.08
				c33.4,27.24,68.19,68.28,66.22,114.28c-2.16,50.45-43,84.31-89.78,93.95c-44.28,9.12-93.8,6.2-137.72-4.11
				c-41.28-9.69-85.7-32.88-103.1-73.96c-7.48-17.67-9.52-35.13-7.78-52.15c-8.15,27.04-10.17,53.67-6.72,78.63
				C115.52,399.28,140.27,432.63,172.19,454.56z"/>
			<path class="st3" d="M126.31,244.53c-29.86,41.53-20.5,89.55-7.55,107.89c12.95,18.34,50.71,26.97,50.71,26.97
				s29.13,25.89,92.78,19.42s94.94-59.34,94.94-59.34s41-11.87,10.79-102.49S249.3,166.85,212.62,179.8S142.05,222.63,126.31,244.53
				z"/>
			<path class="st3" d="M365.82,205.01c-1.25,0.16-2.6,1.01-2.48,2.48c0.44,5.31,1.94,11.42,4.99,16.06
				c1.34,3.21,3.08,6.25,5.87,8.4c1.65,1.27,4.52-0.04,4.9-1.99C380.68,221.81,377.37,203.5,365.82,205.01z"/>
			<path class="st3" d="M360.2,194.22c-0.58-0.99-1.59-1.47-2.59-1.92c-1.15-0.52-2.41-0.9-3.64-0.63
				c-0.13,0.01-0.25,0.02-0.38,0.02c-0.74,0.01-1.46,0.64-1.42,1.42c0.01,0.19,0.04,0.37,0.07,0.55c0,1.2,0.6,2.13,1.23,3.03
				c0.06,1.43,1.27,3.04,2.68,3.25c1.77,0.26,4.11-0.41,4.45-2.52C360.78,196.31,360.78,195.22,360.2,194.22z"/>
			<path class="st3" d="M254.31,413.25c-1.03-2-2.66-3.32-4.63-4.17c-9.56-6.9-31.92-4.23-38.42,1.58
				c-6.19,5.54-0.55,13.64,5.17,16.39c8.75,4.21,20.53,4.5,29.75,1.84C253.69,426.73,258.12,420.67,254.31,413.25z"/>
			<path class="st3" d="M276.11,408.83c-0.54-1.06-1.54-1.88-2.62-2.33c-0.39-0.16-0.79-0.24-1.21-0.3c-1.95-0.72-4.09-0.88-6.1-0.2
				c-3.44,1.16-5.09,4.45-5.14,7.91c-0.02,1.58,1.23,2.47,2.65,2.65c4.21,0.54,11.32,0.19,12.63-4.75
				C276.82,410.91,276.67,409.76,276.11,408.83z"/>
			<path class="st1" d="M122.38,364.79c-0.75-0.56-1.57-1.04-2.39-1.41c-0.98-0.43-2.07-0.79-3.16-0.79c-0.48,0-0.93,0.12-1.37,0.3
				c-1.29-0.77-3.51-0.13-4.1,1.24c-0.03,0.07-0.04,0.13-0.07,0.2c-0.7,0.75-1.09,1.8-1.18,2.83c-0.4,4.57,1.77,8.3,5.11,10.37
				c2.5,2,5.69,3.29,8.92,3.49c1.72,0.1,3.15-1.24,3.65-2.78C129.65,372.43,126.88,367.34,122.38,364.79z"/>
			<g>
				<path class="st4" d="M444.14,439.13c-5.35-6.3-14.51-1.25-19.02,3.03c-5.25,4.98-11.58,13.76-11.2,21.38
					c0.1,1.97,1.61,3.74,3.69,3.69c11.01-0.28,22.2-8.01,27.2-17.73c0.7-1.35,1.18-2.95,1.28-4.52
					C446.31,443.02,445.77,441.04,444.14,439.13z"/>
				<path class="st4" d="M458.53,433.85c0.04-0.25,0.07-0.5,0.09-0.74c0,0.02,0,0.01-0.01,0.03c0.33-1.64-1.11-3.11-2.78-2.68
					c-0.06,0.01-0.12,0.03-0.18,0.05c0.55-0.07,0.42-0.05-0.39,0.05c-0.42,0.08-0.8,0.28-1.18,0.48c-0.12,0.05-0.25,0.12-0.37,0.17
					c-0.85,0.13-1.65,0.49-2.36,1.13c-2.19,1.96-1.23,6.46,1.84,6.96c1.68,0.27,2.78-0.04,4.1-1.09c0.69-0.55,0.98-1.37,1.15-2.21
					C458.68,435.28,458.71,434.55,458.53,433.85z"/>
				<path class="st4" d="M408.2,458.65c0-3.27-0.91-6.52-2.79-9.02c-4.08-5.42-10.56-4.28-14.55,0.58
					c-5.06,6.15-6.06,14.58-2.32,21.63c3.32,6.26,10.7,7.11,15.46,2.06C407.75,469.94,408.84,464.16,408.2,458.65z"/>
				<path class="st4" d="M415.47,431.53c-2.11,0.3-4.59,0.44-6.18,2.05c-1.59,1.61-1.45,4.15-1.47,6.24
					c-0.02,1.32,0.9,2.2,1.99,2.45c0.83,0.97,2.14,1.33,3.42,0.63c1.57-0.86,3.07-1.9,4.13-3.36c0.96-1.33,1.1-3.22,1.33-4.78
					C419.01,432.64,417.57,431.23,415.47,431.53z"/>
				<path class="st4" d="M472.4,248.06c-2.14-1.47-4.58-2.5-7.33-2.86c-1.72-0.23-3.46,1.39-3.86,2.94
					c-2.97,11.28,5.53,27.24,17.26,29.84c2.01,0.44,4-0.58,4.59-2.61C485.45,267.25,480.88,252,472.4,248.06z"/>
				<path class="st4" d="M464.97,233.66c-0.22-0.29-0.44-0.58-0.67-0.86c-1.03-0.8-1.15-0.89-0.35-0.26
					c-0.66-0.51-1.16-0.93-2.01-1.09c-1.57-0.3-3.61,0.13-4.35,1.77c-0.62,1.37-0.67,2.28-0.42,3.73c0.24,1.43,1.65,2.6,2.98,2.98
					c0.04,0.01,0.08,0.02,0.12,0.03c1.38,0.39,3.08,0,4.07-1.07c0.29-0.32,0.51-0.66,0.69-1.01c-0.01,0.06-0.03,0.12-0.05,0.17
					C465.79,236.75,465.73,234.95,464.97,233.66z"/>
				<path class="st4" d="M477.66,393.16c-1.91-5.77-7.91-6.22-12.55-3.51c-4.68,2.73-9.02,7.74-11.52,12.49
					c-0.78,1.48-1.58,3.78-1.89,6.1c-0.39,1.29-0.7,2.57-0.83,3.85c-0.6,5.56,5.01,8.23,9.68,7.48c5.08-0.81,9.97-4.29,13.07-8.28
					C477.43,406.41,479.68,399.25,477.66,393.16z"/>
				<path class="st4" d="M449.13,421.23c-0.97-2.29-2.87-3.99-5.4-4.18c-0.21-0.02-0.44-0.01-0.66,0.01
					c-1.43-0.62-3.22-0.07-4.57,0.55c-3.79,1.74-4.69,7.15-1.62,9.97c3.59,3.3,8.54,1.58,11.63-1.46
					C449.91,424.73,449.84,422.92,449.13,421.23z"/>
			</g>
			<path class="st1" d="M159.91,387.21c-0.09-0.07-0.2-0.14-0.29-0.21c-2.61-3.76-7.6-5.45-11.66-1.96
				c-4.21,3.61-3.62,10.21,0.69,13.34c4.34,3.15,15.61,4.4,15.43-3.52C164.01,392.02,162.08,388.93,159.91,387.21z"/>
			<g>
				<g>
					<path class="st5" d="M175.9,219.54c-0.76-6.45-6.14-8.64-12-7.68c-3.21,0.53-7.26,2.46-9.11,5.42
						c-7.99,5.68-14.26,18.25-2.41,23.15C164.57,245.49,177.3,231.51,175.9,219.54z"/>
					<path class="st5" d="M168.38,197.9c-7.27,0-7.27,11.28,0,11.28S175.65,197.9,168.38,197.9z"/>
					<path class="st5" d="M202.29,198.58c-1.5-4.98-8.73-4.64-12.67-3.77c-4.36,0.96-8.23,4.27-10.25,8.19
						c-1.63,3.18-2.02,7.43,0.79,10.07c0.22,0.21,0.45,0.39,0.69,0.56c0.52,0.94,1.55,1.61,2.63,1.58c0.9-0.03,1.77-0.16,2.64-0.33
						c2.8-0.21,5.7-1.39,7.76-2.62c1.71-1.02,3.26-2.43,4.39-4.08C200.88,205.71,203.37,202.14,202.29,198.58z"/>
					<path class="st5" d="M137.09,242.98c-3.39,0-3.39,5.26,0,5.26C140.49,248.24,140.49,242.98,137.09,242.98z"/>
					<path class="st5" d="M201.28,219.19c-2.36-3.17-7.32-2.01-10.36-0.7c-1.91,0.82-3.73,1.84-5.26,3.1
						c-3.74,2.05-6.95,5.08-8.14,8.39c-1.17,3.25,0.96,6.8,4.11,7.72c3.6,1.05,7.91-1.56,10.83-3.34
						C196.44,231.92,205.27,224.55,201.28,219.19z"/>
				</g>
			</g>
		</g>
		<g>
			<path class="st6" d="M257.12,112.51c-6.77-7.03,2.58-3.29,12.9-14.26c10.31-10.97,44.82-28.71,119.26-3.3
				c74.44,25.41,45.66,27.84,38.98,30.78c-6.67,2.93-35.24,23.11-98.99,10.02C265.51,122.67,257.12,112.51,257.12,112.51z"/>
			<path class="st7" d="M270.02,98.25c7.17-7.62,26.03-18.5,61.83-15.92c-8.19,1.58-20.43,4.94-21.85,14.9
				c-1.35,9.46,5.49,14.87,11.74,18.36c17.84,9.96,38.62,14.32,58.65,15.94c12.24,0.99,25.22,1.2,37.92-0.89
				c-14.05,6.28-41.92,14.76-89.03,5.1c-63.76-13.08-72.15-23.24-72.15-23.24C250.36,105.48,259.71,109.22,270.02,98.25z"/>
		</g>
	</g>
	<g>
		<g>
			<path class="st8" d="M203.35,255.79c16.38-6.35,34.73-10.81,52.43-9.95c6.68,0.32,15.66,1.53,24.09,4.2
				c-23.96-18.73-68.02-14.12-85.35,9.43C197.52,258.02,200.62,256.84,203.35,255.79z"/>
			<path class="st9" d="M284.99,279.21c-15.2-7.18-33.5-4.41-49.5-0.83c-9.36,2.09-18.94,4.04-27.4,8.78
				c-6.02,3.38-11.62,8.36-18.03,11c16.83,44.38,103.21,31.79,105.92-12.92C291.44,285.95,286.78,283.33,284.99,279.21z"/>
			<path class="st8" d="M363.32,253.31c6.73-0.13,13.88-0.01,20.89,0.85c-12.16-5.24-26.93-6.81-37.99-6.63
				c-11.09,0.18-18.83,3.36-24.19,8.76C335.09,252.41,352.84,253.53,363.32,253.31z"/>
			<path class="st9" d="M351.69,282.2c-9.64,0.9-18.99,2.49-28.26,5.32c-4.47,1.36-8.15,1.96-12.38,0.77
				c-2.29,50.56,92.53,53.11,95.47-0.82C389.67,279.87,369.72,280.5,351.69,282.2z"/>
			<path class="st10" d="M284.99,279.21c-2.46-1.17-5.01-2.04-7.62-2.72c-5.63,8.21-14.84,14.73-24.69,18.52
				c-15.92,6.13-38.16,7.51-53.13-2.31c-3.06,2.08-6.17,4.09-9.5,5.46c16.83,44.38,103.2,31.79,105.92-12.92
				C291.44,285.94,286.78,283.33,284.99,279.21z"/>
			<path class="st10" d="M387.75,282.17c-4.31,9.58-13.41,17.03-25.13,19.51c-15.87,3.35-33.15-0.56-43.11-13.16
				c-2.86,0.56-5.53,0.6-8.48-0.22c-2.29,50.56,92.53,53.11,95.47-0.82C400.57,284.79,394.25,283.11,387.75,282.17z"/>
			<path class="st11" d="M202.56,256.09c16.9-15.35,48.26-18.55,68.7-8.29c2.86,0.59,5.77,1.33,8.61,2.23
				c-23.96-18.73-68.02-14.12-85.35,9.43C197.24,258.16,200.02,257.07,202.56,256.09z"/>
			<path class="st12" d="M290.37,284.5c-6.79,45.68-82.12,47.88-97.13,12.13c-1.04,0.56-2.1,1.09-3.18,1.53
				c16.83,44.38,103.21,31.79,105.92-12.92C294.06,285.54,292.11,285.26,290.37,284.5z"/>
			<path class="st11" d="M329.41,254.64c11.29-5.76,25.75-5.49,38.98-1.37c5.19,0.01,10.54,0.24,15.81,0.89
				c-12.16-5.24-26.93-6.81-37.99-6.63c-11.09,0.18-18.83,3.36-24.19,8.76C324.36,255.6,326.84,255.06,329.41,254.64z"/>
			<path class="st12" d="M404.34,286.52c1.15,8.9-2.91,18.38-14.85,27.14c-28.79,21.14-68.61,2.93-73.5-24.76
				c-1.62,0.04-3.24-0.14-4.95-0.62c-2.29,50.56,92.53,53.11,95.47-0.82C405.79,287.14,405.07,286.82,404.34,286.52z M383.44,318.11
				C383.34,318.18,383.35,318.18,383.44,318.11L383.44,318.11z"/>
			<path class="st13" d="M351.69,282.2c-3.05,0.28-6.06,0.67-9.05,1.11c-1.96,2.91-2.33,6.52,0.55,9.98
				c10.41,12.5,26.38-3.13,19.01-11.89C358.65,281.59,355.13,281.88,351.69,282.2z"/>
			<path class="st13" d="M265.74,283.67c-2.34-7.04-18.29-12.04-22.35-3.44C234.33,299.4,272.18,303.08,265.74,283.67
				C264.18,278.97,267.79,289.87,265.74,283.67z"/>
			<path class="st14" d="M250.29,275.63c-4.5,0.61-8.94,1.46-13.24,2.4c-1.67,9.83,18.45,11.02,14.72-0.24
				C251.51,277.02,250.98,276.29,250.29,275.63z"/>
			<path class="st14" d="M337.41,284.14c3.74,3.93,12.71,3.67,13.58-1.86C346.41,282.73,341.88,283.32,337.41,284.14z"/>
		</g>
		<path class="st12" d="M413.24,291.17c-0.02-0.05-0.06-0.1-0.09-0.16c0.21-0.63,0.15-1.36-0.48-1.98
			c-6.97-6.94-18.54-10.06-27.76-12.85c-9.9-3-20.11-4.86-30.45-5.34c-19.24-0.9-40.02,5.14-48.8,23.75
			c-0.56,1.19,0.42,2.19,1.4,2.09c0.68,0.6,1.92,0.41,2.4-0.37c0,0.02,0.01,0.03,0.01,0.05c1.15-2.35,5.77-4.33,8.03-5.48
			c3.84-1.97,8.06-3.09,12.24-4.05c7.73-1.77,15.69-2.37,23.61-2.44c8.82-0.07,17.65-0.13,26.45,0.48
			c5.36,0.37,10.67,1.17,15.9,2.37c1.99,0.46,3.93,1.09,5.87,1.73c0.28,0.09,5.59,1.97,7.31,2.87c0.1,0.47,0.37,0.91,0.89,1.22
			c0.18,0.11,0.37,0.22,0.55,0.33C411.78,294.27,413.79,292.84,413.24,291.17z"/>
		<path class="st12" d="M298.29,286.99c-0.69-0.32-1.41-0.57-2.11-0.87c-6.17-6.32-16.79-8.94-24.75-11.58
			c-12.47-4.13-26.17-4.02-38.99-1.86c-16.89,2.85-41.91,9.6-47.61,28.22c-0.11,0.36-0.11,0.67-0.05,0.96
			c-0.03,0.03-0.07,0.05-0.1,0.09c-1.51,1.35,0.44,3.81,2.14,2.77c16.52-10.05,32.51-17.89,51.83-20.97
			c19.54-3.12,39.19-0.3,57.55,6.73c0.29,0.18,0.62,0.31,0.96,0.27c0.04-0.01,0.07-0.01,0.11-0.01
			C299.05,290.59,300.29,287.92,298.29,286.99z"/>
		<path class="st15" d="M276.07,196.57c-4.54-12.07-17.69-10.38-27.8-7.03c-6.82,2.26-13.31,5.61-19.52,9.18
			c-4.25,2.44-9.93,5.42-12.67,9.67c-0.38,0.59-0.01,1.37,0.57,1.62c0.36,0.84,1.16,1.42,2.27,0.96c9.9-4.04,20.96-5.91,31.56-7.08
			c8.25-0.91,17.05-1.17,24.61-4.95C275.88,198.56,276.38,197.4,276.07,196.57z"/>
		<path class="st15" d="M372.86,201.82c-6.49-4.49-13.4-8.39-20.58-11.64c-6.59-2.98-13.86-5.69-21.2-5.42
			c-3.36,0.12-8.96,2.03-9.72,5.83c-1.42,7.16,16.32,9.54,20.51,10.43c8.17,1.72,16.11,3.85,23.81,7.13
			c4.21,1.79,8.11,4.08,12.06,6.36c1.82,1.06,3.59,2.99,5.66,3.5c0.63,0.2,1.31-0.02,1.78-0.47c0.02,0.03,0.04,0.05,0.05,0.08
			c0.39,0.63,1.4,0.22,1.2-0.51C384.48,210.08,378.62,205.8,372.86,201.82z"/>
		<path class="st16" d="M429.51,309.14c-1.12-4.51-7.18-13.75-12.12-7.22c-0.81,1.08-1.17,2.38-1.2,3.76
			c-0.49,1.37-0.32,3.12,0.22,4.9c-1.15,2.39-5.35,6.81-6.18,7.83c-3.1,3.79-6.73,7.15-10.47,10.31
			c-8.07,6.81-17.66,11.78-27.46,15.58c-19.57,7.58-40.95,9.81-61.79,10.1c-23.73,0.33-46.96-2.57-69.73-9.33
			c-12.3-3.65-24.52-8.01-35.92-13.92c-5.37-2.79-10.5-6.14-15.23-9.9c-2.75-2.18-7.08-4.13-9.19-7.05c1.35-1.89,2.8-4.13,2.73-6.38
			c-0.09-3.16-3.47-3.25-5.76-2.65c-2.38,0.62-5.69,2.98-6.68,5.73c-2,3.38-2.13,7.79,1.01,10.88c1.01,1,2.53,0.69,3.29-0.42
			c0.94-1.39,1.99-2.7,3.04-4.02c1.55,1.86,3.88,3.27,5.69,4.63c4.38,3.29,8.68,6.59,13.32,9.51c11.67,7.34,24.98,11.94,38.01,16.17
			c25.75,8.36,52.14,11.34,79.12,10.78c22.68-0.47,45.58-3.96,66.44-13.2c10.16-4.5,19.43-10.81,27.43-18.51
			c2.32-2.23,7.46-7,10.43-11.6c0.91,1.44,1.91,2.61,2.76,3.17c2.28,1.51,5.4,1.48,7.34-0.6
			C430.68,315.47,430.17,311.8,429.51,309.14z"/>
	</g>
	<path class="st17" d="M564.12,304.29c-2.82-4.86-6.38-5.22-11.11-8.29c-7.41-4.81-15.09-9.23-22.61-13.88
		c-15.05-9.31-28.17-21.89-43.68-30.4c-3.66-2.01-7.21,2.13-4.69,5.45c8.6,11.32,21.97,19.02,33.31,27.34
		c6.1,4.47,12.61,8.3,19.09,12.19c2.17,1.3,7.8,3.77,12.26,6.4c-4.43,0.63-8.86,0.96-13.74,0.95c-9.06-0.01-17.67-2.88-26.78-2.24
		c-1.94,0.13-3.61,2.04-4.22,3.73c-4.09,11.31-15.61,50.81,6.68,50.92c2.39,0.01,4.72-1.25,5.47-3.66c0.29-0.93,0.48-1.88,0.71-2.82
		c3.85,5,8.77,7.93,14.98,6.31c6.24-1.62,7.41-6.67,6.14-12.85c1.71,0.19,3.47,0.23,5.28,0.04c1.99-0.21,4.2-2.19,4.67-4.13
		c2.01-8.29-3.41-13.45-9.47-18.31c-2.14-1.71-4.42-3.25-6.69-4.8c1.92,0.33,3.83,0.55,5.71,0.53c8.84-0.06,15.97-1.55,24.48-3.73
		C563.57,312.15,566.21,307.89,564.12,304.29z"/>
	<path class="st17" d="M42.44,296.64c8.23,3.08,15.16,5.33,23.94,6.36c1.87,0.21,3.78,0.21,5.73,0.09
		c-2.42,1.29-4.85,2.57-7.16,4.05c-6.55,4.17-12.5,8.72-11.4,17.17c0.26,1.98,2.24,4.18,4.19,4.61c1.78,0.39,3.53,0.54,5.25,0.53
		c-1.93,6-1.31,11.15,4.71,13.44c6,2.27,11.2-0.1,15.58-4.66c0.12,0.97,0.22,1.93,0.4,2.88c0.48,2.47,2.66,3.98,5.04,4.23
		c22.17,2.31,14.99-38.21,12.14-49.9c-0.43-1.75-1.88-3.82-3.8-4.17c-8.98-1.62-17.86,0.3-26.86-0.66
		c-4.85-0.52-9.22-1.33-13.55-2.44c4.72-2.13,10.59-3.98,12.88-5.04c6.86-3.17,13.75-6.27,20.3-10.06
		c12.18-7.05,26.3-13.26,36.07-23.59c2.87-3.03-0.21-7.53-4.07-5.92c-16.34,6.78-30.74,17.88-46.71,25.5
		c-7.98,3.81-16.09,7.36-23.98,11.35c-5.03,2.54-8.61,2.51-11.94,7.04C36.73,290.8,38.9,295.32,42.44,296.64z"/>
</g>
</svg>
