<?xml version="1.0" encoding="utf-8"?>
<!-- Generator: Adobe Illustrator 23.0.3, SVG Export Plug-In . SVG Version: 6.00 Build 0)  -->
<svg version="1.1" id="Layer_1" xmlns="http://www.w3.org/2000/svg" xmlns:xlink="http://www.w3.org/1999/xlink" x="0px" y="0px"
	 viewBox="0 0 612 792" style="enable-background:new 0 0 612 792;" xml:space="preserve">
<style type="text/css">
	.st0{fill:#69513B;}
</style>
<path class="st0" d="M459.93,342.41c-51.9-35.89-107.11-67.09-164.57-93.08c-52.7-23.81-110.86-45.49-169.49-43.34
	c-26.83,0.99-71.65,16.26-77.7,46.62c-11.39,57.22,130.46,76.31,163.97,83.37c65.3,13.73,128.83,30.82,190.4,57.02
	c33.65,14.34,64.89,32.59,96.43,50.88c14.58,8.46,28.71,23.89,45.28,28.02c5.01,1.63,10.49-0.15,14.23-3.76
	c0.13,0.2,0.3,0.41,0.44,0.62c3.09,5.05,11.23,1.79,9.6-4.04C552.83,408.51,506.02,374.24,459.93,342.41z"/>
</svg>
