<?xml version="1.0" encoding="utf-8"?>
<!-- Generator: Adobe Illustrator 23.0.3, SVG Export Plug-In . SVG Version: 6.00 Build 0)  -->
<svg version="1.1" id="Layer_1" xmlns="http://www.w3.org/2000/svg" xmlns:xlink="http://www.w3.org/1999/xlink" x="0px" y="0px"
	 viewBox="0 0 612 792" style="enable-background:new 0 0 612 792;" xml:space="preserve">
<style type="text/css">
	.st0{fill:#FEBF51;}
	.st1{fill:#F2F2F2;}
	.st2{fill:#E6E7E7;}
	.st3{fill:#F5803E;}
	.st4{fill:#C95228;}
	.st5{fill:#03547B;}
	.st6{fill:#FFFFFF;}
</style>
<path class="st0" d="M334.5,220.76c34.88-0.7,71.93-0.08,108.26,4.41c-63.05-27.16-139.6-35.29-196.94-34.36
	c-57.5,0.93-97.63,17.41-125.42,45.38C188.2,216.06,280.17,221.87,334.5,220.76z"/>
<path class="st1" d="M274.22,370.5c-49.98,4.69-98.42,12.93-146.49,27.57c-23.17,7.02-42.25,10.16-64.19,4
	c-11.85,262.08,479.64,275.32,494.88-4.25C471.11,358.4,367.67,361.71,274.22,370.5z"/>
<path class="st2" d="M461.16,370.33c-22.33,49.63-69.52,88.3-130.24,101.12c-82.25,17.38-171.85-2.93-223.44-68.22
	c-14.81,2.88-28.69,3.11-43.94-1.16c-11.85,262.08,479.64,275.32,494.88-4.25C527.6,383.9,494.84,375.21,461.16,370.33z"/>
<path class="st3" d="M158.75,227.66c58.52-29.87,133.49-28.48,202.03-7.1c26.93,0.08,54.64,1.24,81.98,4.61
	c-63.05-27.16-139.6-35.29-196.94-34.36c-57.5,0.93-97.63,17.41-125.42,45.38C132.55,232.59,145.4,229.79,158.75,227.66z"/>
<path class="st4" d="M547.12,392.91c5.94,46.14-15.1,95.28-76.95,140.7c-149.22,109.57-355.65,15.2-380.98-128.33
	c-8.38,0.2-16.79-0.72-25.66-3.21c-11.85,262.08,479.64,275.32,494.88-4.25C554.67,396.13,550.92,394.47,547.12,392.91z
	 M438.8,556.64C438.32,557,438.33,556.99,438.8,556.64L438.8,556.64z"/>
<path class="st5" d="M274.22,370.5c-15.79,1.47-31.4,3.48-46.92,5.76c-10.17,15.09-12.07,33.78,2.86,51.71
	c53.96,64.82,136.73-16.22,98.53-61.65C310.29,367.34,292.08,368.82,274.22,370.5z"/>
<path class="st6" d="M200.19,380.57c19.37,20.35,65.88,19.03,70.41-9.66C246.84,373.23,223.39,376.3,200.19,380.57z"/>
<path class="st4" d="M593.3,417.01c-0.1-0.28-0.33-0.52-0.44-0.82c1.11-3.28,0.76-7.04-2.46-10.25
	c-36.14-35.97-96.11-52.13-143.91-66.63c-51.3-15.58-104.26-25.18-157.84-27.69c-99.76-4.66-207.46,26.64-252.93,123.11
	c-2.92,6.18,2.16,11.34,7.26,10.86c3.5,3.1,9.95,2.14,12.44-1.93c0.02,0.1,0.04,0.17,0.06,0.27c5.96-12.17,29.92-22.42,41.62-28.41
	c19.9-10.19,41.8-16.01,63.47-20.98c40.07-9.19,81.35-12.31,122.38-12.63c45.73-0.35,91.47-0.68,137.12,2.49
	c27.77,1.92,55.29,6.07,82.4,12.31c10.32,2.38,20.39,5.64,30.45,8.95c1.45,0.47,28.99,10.22,37.87,14.86
	c0.5,2.41,1.92,4.7,4.64,6.34c0.94,0.57,1.89,1.15,2.85,1.71C585.73,433.04,596.16,425.64,593.3,417.01z"/>
</svg>
