<?xml version="1.0" encoding="utf-8"?>
<!-- Generator: Adobe Illustrator 23.0.3, SVG Export Plug-In . SVG Version: 6.00 Build 0)  -->
<svg version="1.1" id="Layer_1" xmlns="http://www.w3.org/2000/svg" xmlns:xlink="http://www.w3.org/1999/xlink" x="0px" y="0px"
	 viewBox="0 0 612 792" style="enable-background:new 0 0 612 792;" xml:space="preserve">
<style type="text/css">
	.st0{fill:#6B8137;}
</style>
<path class="st0" d="M508.45,643.44c5.67-75.79-19.64-151.56-44.21-222.25c-13.02-37.46-27.76-74.71-46.32-109.76
	c-63.16-119.29,20.4-68.41,14.39-134.78C421.98,62.6,281.62,117.72,219.77,148.2C176.94,169.33,13.68,298.48,109.99,354
	c16.82,9.7,27.58,15.45,48.12,11.02c67.87-14.63,106.4,1.86,154.95,49.46c65.83,64.53,91.26,169.33,89.62,258.36
	c-0.19,10.35,9.4,21.23,20.29,20.29c30.37-2.6,52.78-7.53,79.72-21.97C515.05,664.52,514.75,652.02,508.45,643.44z"/>
</svg>
